<svg width="60" height="60" viewBox="0 0 60 60" fill="none" xmlns="http://www.w3.org/2000/svg">
<path d="M48.3375 25.54C48.3375 23.49 46.6675 21.82 44.6175 21.82C42.5675 21.82 40.8975 23.49 40.8975 25.54V36.4L36.1775 38.12H34.4675C35.7575 36.92 36.5675 35.21 36.5675 33.32C36.5675 29.7 33.6275 26.76 30.0075 26.76C26.3875 26.76 23.4475 29.7 23.4475 33.32C23.4475 35.21 24.2575 36.92 25.5475 38.12H23.8475L19.1275 36.4V25.54C19.1275 23.49 17.4575 21.82 15.4075 21.82C13.3575 21.82 11.6875 23.49 11.6875 25.54V38.07C11.6875 39.54 12.3975 40.95 13.5775 41.82L21.4275 47.63C21.5075 47.69 21.5475 47.78 21.5475 47.87V51.55C21.5475 52.04 21.9375 52.43 22.4275 52.43C22.9175 52.43 23.3075 52.04 23.3075 51.55V47.87C23.3075 47.22 22.9975 46.6 22.4675 46.21L14.6175 40.4C13.8775 39.85 13.4375 38.98 13.4375 38.06V29.25H17.3575V37C17.3575 37.37 17.5875 37.7 17.9375 37.83L23.3775 39.81C23.4775 39.85 23.5775 39.86 23.6775 39.86H36.3275C36.4275 39.86 36.5275 39.84 36.6275 39.81L42.0675 37.83C42.4175 37.7 42.6475 37.37 42.6475 37V29.25H46.5675V31.63C46.5675 32.12 46.9575 32.51 47.4475 32.51C47.9375 32.51 48.3275 32.12 48.3275 31.63V25.53L48.3375 25.54ZM13.4475 25.54C13.4475 24.46 14.3275 23.58 15.4075 23.58C16.4875 23.58 17.3675 24.46 17.3675 25.54V27.5H13.4475V25.54ZM25.2175 33.31C25.2175 30.66 27.3675 28.51 30.0175 28.51C32.6675 28.51 34.8175 30.66 34.8175 33.31C34.8175 35.96 32.6675 38.11 30.0175 38.11C27.3675 38.11 25.2175 35.96 25.2175 33.31ZM46.5875 27.5H42.6675V25.54C42.6675 24.46 43.5475 23.58 44.6275 23.58C45.7075 23.58 46.5875 24.46 46.5875 25.54V27.5Z" fill="#0F9EA9"/>
<path d="M22.4375 54.79C21.9475 54.79 21.5575 55.18 21.5575 55.67V59.12C21.5575 59.61 21.9475 60 22.4375 60C22.9275 60 23.3175 59.61 23.3175 59.12V55.67C23.3175 55.18 22.9275 54.79 22.4375 54.79Z" fill="#0F9EA9"/>
<path d="M47.4675 34.87C46.9775 34.87 46.5875 35.26 46.5875 35.75V38.07C46.5875 38.99 46.1475 39.86 45.4075 40.41L37.5575 46.21C37.0375 46.6 36.7175 47.22 36.7175 47.87V59.11C36.7175 59.6 37.1075 59.99 37.5975 59.99C38.0875 59.99 38.4775 59.6 38.4775 59.11V47.87C38.4775 47.77 38.5175 47.68 38.5975 47.63L46.4475 41.82C47.6375 40.94 48.3375 39.54 48.3375 38.07V35.75C48.3375 35.26 47.9475 34.87 47.4575 34.87H47.4675Z" fill="#0F9EA9"/>
<path d="M23.7075 12.33C23.7775 12.4 23.8075 12.5 23.7975 12.6L23.0675 16.85C22.9375 17.63 23.2475 18.4 23.8875 18.87C24.5275 19.34 25.3575 19.39 26.0575 19.03L29.8775 17.02C29.9675 16.97 30.0775 16.97 30.1575 17.02L33.9775 19.03C34.2775 19.19 34.6075 19.27 34.9375 19.27C35.3675 19.27 35.7875 19.14 36.1475 18.87C36.7875 18.41 37.0975 17.63 36.9675 16.85L36.2375 12.6C36.2175 12.5 36.2575 12.4 36.3275 12.33L39.4175 9.32C39.9875 8.77 40.1875 7.96001 39.9375 7.21001C39.6975 6.46001 39.0575 5.92001 38.2675 5.81001L33.9975 5.19C33.8975 5.18 33.8075 5.11 33.7675 5.02L31.8575 1.15C31.5075 0.440002 30.7975 0 30.0075 0C29.2175 0 28.5075 0.440002 28.1575 1.15L26.2475 5.02C26.2075 5.11 26.1175 5.17 26.0175 5.19L21.7475 5.81001C20.9675 5.92001 20.3275 6.46001 20.0775 7.21001C19.8375 7.96001 20.0375 8.77 20.5975 9.32L23.6875 12.33H23.7075ZM21.7675 7.75C21.7875 7.68 21.8475 7.57 22.0175 7.54L26.2875 6.92001C26.9575 6.82001 27.5375 6.4 27.8375 5.79L29.7475 1.92001C29.8175 1.77001 29.9475 1.75 30.0175 1.75C30.0875 1.75 30.2175 1.77001 30.2875 1.92001L32.1975 5.79C32.4975 6.4 33.0775 6.82001 33.7475 6.92001L38.0175 7.54C38.1775 7.56 38.2375 7.68 38.2675 7.75C38.2875 7.82 38.3075 7.95001 38.1875 8.06001L35.0975 11.07C34.6075 11.54 34.3875 12.23 34.5075 12.9L35.2375 17.15C35.2675 17.31 35.1775 17.41 35.1175 17.45C35.0575 17.49 34.9375 17.55 34.7975 17.47L30.9775 15.46C30.6775 15.3 30.3475 15.22 30.0175 15.22C29.6875 15.22 29.3575 15.3 29.0575 15.46L25.2375 17.47C25.0875 17.55 24.9775 17.49 24.9175 17.45C24.8575 17.41 24.7675 17.31 24.7975 17.15L25.5275 12.9C25.6375 12.23 25.4175 11.55 24.9375 11.07L21.8475 8.06001C21.7275 7.94001 21.7475 7.81 21.7675 7.75Z" fill="#0F9EA9"/>
<path d="M55.0475 20.05V13.43H55.3175C56.1075 13.43 56.8175 12.99 57.1675 12.28C57.5175 11.57 57.4375 10.74 56.9475 10.11L53.4275 5.54001C53.0375 5.03001 52.4375 4.73001 51.7875 4.73001C51.1375 4.73001 50.5475 5.02001 50.1475 5.54001L46.6275 10.11C46.1475 10.74 46.0675 11.57 46.4075 12.28C46.7575 12.99 47.4675 13.43 48.2575 13.43H48.5275V20.05C48.5275 21.19 49.4575 22.11 50.5875 22.11H52.9575C54.0975 22.11 55.0175 21.18 55.0175 20.05H55.0475ZM50.3075 20.05V12.55C50.3075 12.06 49.9175 11.67 49.4275 11.67H48.2775C48.1075 11.67 48.0375 11.56 48.0075 11.5C47.9775 11.44 47.9375 11.31 48.0375 11.18L51.5575 6.61001C51.6375 6.51001 51.7475 6.49001 51.7975 6.49001C51.8475 6.49001 51.9575 6.51001 52.0375 6.61001L55.5575 11.18C55.6575 11.31 55.6175 11.44 55.5875 11.5C55.5575 11.56 55.4775 11.67 55.3175 11.67H54.1675C53.6775 11.67 53.2875 12.06 53.2875 12.55V20.05C53.2875 20.22 53.1475 20.35 52.9875 20.35H50.6175C50.4475 20.35 50.3175 20.21 50.3175 20.05H50.3075Z" fill="#0F9EA9"/>
<path d="M13.5975 12.28C13.9475 11.57 13.8675 10.74 13.3775 10.11L9.85748 5.54001C9.46748 5.03001 8.86748 4.73001 8.22748 4.73001C7.57748 4.73001 6.98752 5.02001 6.58752 5.54001L3.0675 10.11C2.5875 10.74 2.50747 11.57 2.84747 12.28C3.19747 12.99 3.90751 13.43 4.69751 13.43H4.96747V20.05C4.96747 21.19 5.89753 22.11 7.02753 22.11H9.39752C10.5375 22.11 11.4575 21.18 11.4575 20.05V18.7C11.4575 18.21 11.0675 17.82 10.5775 17.82C10.0875 17.82 9.69751 18.21 9.69751 18.7V20.05C9.69751 20.22 9.55752 20.35 9.39752 20.35H7.02753C6.85753 20.35 6.72748 20.21 6.72748 20.05V12.55C6.72748 12.06 6.33747 11.67 5.84747 11.67H4.69751C4.52751 11.67 4.45749 11.56 4.42749 11.5C4.39749 11.44 4.35752 11.31 4.45752 11.18L7.97748 6.61001C8.05748 6.51001 8.16747 6.49001 8.21747 6.49001C8.27747 6.49001 8.37752 6.51001 8.45752 6.61001L11.9775 11.18C12.0775 11.31 12.0375 11.44 12.0075 11.5C11.9775 11.56 11.8975 11.67 11.7375 11.67H10.5875C10.0975 11.67 9.70752 12.06 9.70752 12.55V14.59C9.70752 15.08 10.0975 15.47 10.5875 15.47C11.0775 15.47 11.4675 15.08 11.4675 14.59V13.43H11.7375C12.5275 13.43 13.2375 12.99 13.5875 12.28H13.5975Z" fill="#0F9EA9"/>
<path d="M59.9475 27.45C59.7875 26.97 59.3875 26.63 58.8875 26.56L57.5475 26.37L56.9475 25.16C56.7275 24.71 56.2775 24.43 55.7675 24.43C55.2575 24.43 54.8076 24.71 54.5876 25.16L53.9875 26.37L52.6475 26.56C52.1475 26.63 51.7476 26.98 51.5876 27.45C51.4276 27.92 51.5575 28.45 51.9175 28.8L52.8875 29.74L52.6575 31.07C52.5675 31.57 52.7775 32.06 53.1775 32.35C53.5875 32.65 54.1175 32.68 54.5575 32.45L55.7575 31.82L56.9575 32.45C57.1475 32.55 57.3575 32.6 57.5675 32.6C57.8375 32.6 58.1076 32.51 58.3376 32.35C58.7476 32.05 58.9475 31.56 58.8575 31.07L58.6275 29.74L59.5975 28.8C59.9575 28.45 60.0875 27.93 59.9275 27.45H59.9475ZM57.2575 28.65C56.9475 28.95 56.8075 29.39 56.8775 29.81L56.9975 30.49L56.3875 30.17C56.1975 30.07 55.9876 30.02 55.7776 30.02C55.5676 30.02 55.3575 30.07 55.1675 30.17L54.5575 30.49L54.6775 29.81C54.7475 29.38 54.6075 28.95 54.2975 28.65L53.8075 28.17L54.4875 28.07C54.9175 28.01 55.2875 27.74 55.4775 27.35L55.7776 26.74L56.0775 27.35C56.2675 27.74 56.6375 28.01 57.0675 28.07L57.7475 28.17L57.2575 28.65Z" fill="#0F9EA9"/>
<path d="M7.36751 26.56L6.02754 26.37L5.42751 25.16C5.20751 24.71 4.75751 24.43 4.24751 24.43C3.73751 24.43 3.28752 24.71 3.06752 25.16L2.46748 26.37L1.12752 26.56C0.627518 26.63 0.22752 26.98 0.0675203 27.45C-0.0924797 27.93 0.0375374 28.45 0.397537 28.8L1.36751 29.74L1.13753 31.07C1.04753 31.57 1.25749 32.06 1.65749 32.35C2.06749 32.65 2.59749 32.68 3.03749 32.45L4.2375 31.82L5.43752 32.45C5.62752 32.55 5.8375 32.6 6.0475 32.6C6.3175 32.6 6.58752 32.51 6.81752 32.35C7.22752 32.05 7.42754 31.56 7.33754 31.07L7.1075 29.74L8.07753 28.8C8.43753 28.45 8.56749 27.93 8.40749 27.45C8.24749 26.97 7.84749 26.63 7.34749 26.56H7.36751ZM5.7375 28.65C5.4275 28.95 5.2875 29.39 5.3575 29.81L5.47749 30.49L4.86751 30.17C4.48751 29.97 4.02754 29.97 3.64754 30.17L3.03749 30.49L3.15749 29.81C3.22749 29.38 3.08754 28.95 2.77754 28.65L2.28749 28.17L2.96748 28.07C3.39748 28.01 3.76754 27.74 3.95754 27.35L4.25752 26.74L4.55751 27.35C4.74751 27.74 5.1175 28.01 5.5475 28.07L6.22749 28.17L5.7375 28.65Z" fill="#0F9EA9"/>
<path d="M39.3575 17.22C39.3575 17.71 39.7475 18.1 40.2375 18.1H40.8975V19.12C40.8975 19.61 41.2875 20 41.7775 20C42.2675 20 42.6575 19.61 42.6575 19.12V18.1H43.3175C43.8075 18.1 44.1975 17.71 44.1975 17.22C44.1975 16.73 43.8075 16.34 43.3175 16.34H42.6575V15.32C42.6575 14.83 42.2675 14.44 41.7775 14.44C41.2875 14.44 40.8975 14.83 40.8975 15.32V16.34H40.2375C39.7475 16.34 39.3575 16.73 39.3575 17.22Z" fill="#0F9EA9"/>
<path d="M16.7175 18.09H17.3775V19.11C17.3775 19.6 17.7675 19.99 18.2575 19.99C18.7475 19.99 19.1375 19.6 19.1375 19.11V18.09H19.7975C20.2875 18.09 20.6775 17.7 20.6775 17.21C20.6775 16.72 20.2875 16.33 19.7975 16.33H19.1375V15.31C19.1375 14.82 18.7475 14.43 18.2575 14.43C17.7675 14.43 17.3775 14.82 17.3775 15.31V16.33H16.7175C16.2275 16.33 15.8375 16.72 15.8375 17.21C15.8375 17.7 16.2275 18.09 16.7175 18.09Z" fill="#0F9EA9"/>
</svg>
