<svg width="53" height="50" viewBox="0 0 53 50" fill="none" xmlns="http://www.w3.org/2000/svg">
<g clip-path="url(#clip0_50_41)">
<path fill-rule="evenodd" clip-rule="evenodd" d="M7.35 1.99L2.19 6.75L7.36 6.69V1.99H7.35ZM33.73 14.39C27.42 13.64 21.7 18.14 20.94 24.45C20.18 30.76 24.69 36.48 31 37.24C37.31 37.99 43.03 33.49 43.79 27.18C44.54 20.87 40.04 15.15 33.73 14.39ZM37.4 37.49V48.67C37.4 48.67 37.37 48.74 37.33 48.74H4.55C4.55 48.74 4.48 48.71 4.48 48.67V46.68H34.06C34.76 46.68 35.34 46.11 35.34 45.4V38.18C36.04 38.01 36.73 37.78 37.4 37.49ZM35.34 13.46V4.48H37.33C37.33 4.48 37.4 4.51 37.4 4.55V14.14C36.73 13.85 36.05 13.62 35.34 13.46ZM34.13 13.23C27.18 12.26 20.75 17.11 19.78 24.06C18.81 31.01 23.66 37.44 30.61 38.41C31.78 38.57 32.96 38.57 34.13 38.41V45.4C34.13 45.4 34.1 45.47 34.06 45.47H1.28C1.28 45.47 1.21 45.44 1.21 45.4V7.96L7.96 7.89C8.29 7.89 8.56 7.62 8.56 7.29V1.21H34.06C34.06 1.21 34.13 1.24 34.13 1.28V13.23ZM33.41 17.1C38.22 17.68 41.66 22.05 41.09 26.86C40.51 31.67 36.14 35.11 31.33 34.54C26.52 33.96 23.08 29.59 23.65 24.78C24.23 19.97 28.6 16.53 33.41 17.1ZM33.55 15.9C39.03 16.55 42.94 21.53 42.28 27C41.63 32.48 36.65 36.39 31.18 35.73C25.7 35.08 21.79 30.1 22.45 24.63C23.11 19.16 28.08 15.25 33.55 15.9ZM46.43 41.18L43.99 43.1L48.08 48.29C48.29 48.55 48.85 48.97 49.18 48.7L50.66 47.54C51 47.28 50.73 46.63 50.52 46.37L46.43 41.18ZM38.67 36.86C39.76 36.24 40.75 35.46 41.61 34.55C41.73 34.7 43.07 36.32 42.96 36.41L40.17 38.61C40.06 38.7 38.79 37.01 38.67 36.86ZM43.05 37.87L45.29 40.54L43.62 41.86L41.56 39.05L43.06 37.87H43.05ZM42.41 33.61L43.75 35.31C43.98 35.6 44.12 35.96 44.14 36.33C44.16 36.59 44.09 36.85 43.96 37.08L46.25 39.81C46.51 39.68 46.82 39.75 47 39.97C48.42 41.78 50.1 43.89 51.48 45.67C51.8 46.09 51.99 46.59 52.01 47.12C52.04 47.64 51.82 48.14 51.43 48.48C50.99 48.87 50.4 49.29 49.92 49.67C49.49 49.99 48.94 50.09 48.43 49.94C47.91 49.79 47.45 49.48 47.12 49.06L42.66 43.39C42.48 43.16 42.49 42.84 42.68 42.62L40.57 39.75C40.32 39.83 40.05 39.83 39.8 39.75C39.44 39.64 39.12 39.41 38.89 39.11L38.61 38.76V48.69C38.61 49.39 38.04 49.97 37.33 49.97H4.55C3.85 49.97 3.27 49.4 3.27 48.69V46.7H1.28C0.58 46.7 0 46.13 0 45.42V7.38C0 7.21 0.07 7.05 0.2 6.94L7.52 0.19C7.64 0.07 7.79 0 7.96 0H34.06C34.76 0 35.34 0.57 35.34 1.28V3.27H37.33C38.03 3.27 38.61 3.84 38.61 4.55V14.74C44.73 18.19 46.89 25.95 43.43 32.07C43.13 32.61 42.79 33.12 42.41 33.61ZM37.43 28.73C37.43 28.73 37.43 28.75 37.43 28.77C34.05 28.77 30.69 28.74 27.31 28.77C27.3 28.77 27.29 28.74 27.3 28.73C27.8 27.87 32.33 20 32.35 19.98H32.38C32.38 19.98 36.99 27.96 37.43 28.73ZM38.48 28.12C38.82 28.71 38.62 29.47 38.03 29.81C37.84 29.92 37.63 29.97 37.42 29.98H27.33C26.65 29.98 26.09 29.43 26.09 28.74C26.09 28.52 26.15 28.31 26.26 28.12L31.3 19.38C31.64 18.79 32.39 18.59 32.98 18.93C33.17 19.04 33.33 19.2 33.43 19.38L38.47 28.11L38.48 28.12ZM31.76 27.55C31.75 27.22 32.01 26.94 32.34 26.92C32.67 26.91 32.95 27.17 32.97 27.5C32.97 27.51 32.97 27.53 32.97 27.54V27.68C32.96 28.01 32.68 28.28 32.34 28.26C32.02 28.25 31.77 27.99 31.76 27.68V27.54V27.55ZM31.76 22.6C31.77 22.27 32.05 22 32.39 22.02C32.71 22.03 32.96 22.29 32.97 22.6V25.81C32.96 26.14 32.68 26.41 32.34 26.39C32.02 26.38 31.77 26.12 31.76 25.81V22.6ZM18.46 41.8V35.05H16.46V41.8H18.46ZM13.24 41.8V32.18H11.24V41.8H13.24ZM4.69 41.8V27.92C4.69 27.59 4.96 27.31 5.3 27.31H8.51C8.84 27.31 9.12 27.58 9.12 27.92V41.8H10.03V31.57C10.03 31.24 10.3 30.96 10.64 30.96H13.85C14.18 30.96 14.46 31.23 14.46 31.57V41.8H15.26V34.44C15.26 34.11 15.53 33.83 15.87 33.83H19.08C19.41 33.83 19.69 34.1 19.69 34.44V41.8H20.15C20.48 41.79 20.76 42.05 20.78 42.38C20.79 42.71 20.53 42.99 20.2 43.01C20.19 43.01 20.17 43.01 20.16 43.01H4.14C3.81 43 3.54 42.72 3.56 42.38C3.57 42.06 3.83 41.81 4.14 41.8H4.68H4.69ZM7.9 41.8V28.52H5.9V41.8H7.9ZM4.45 12.57H21.29C21.62 12.56 21.89 12.28 21.87 11.94C21.86 11.62 21.6 11.37 21.29 11.36H4.45C4.12 11.35 3.83 11.61 3.82 11.94C3.81 12.27 4.07 12.56 4.4 12.57C4.41 12.57 4.43 12.57 4.44 12.57H4.45ZM4.45 15.5H19.33C19.66 15.49 19.93 15.21 19.91 14.87C19.9 14.55 19.64 14.3 19.33 14.29H4.45C4.12 14.28 3.83 14.54 3.82 14.87C3.81 15.2 4.07 15.49 4.4 15.5C4.41 15.5 4.43 15.5 4.44 15.5H4.45ZM4.45 18.44H17.16C17.49 18.45 17.78 18.19 17.79 17.86C17.8 17.53 17.54 17.24 17.21 17.23C17.19 17.23 17.18 17.23 17.16 17.23H4.45C4.12 17.22 3.83 17.48 3.82 17.81C3.81 18.14 4.07 18.43 4.4 18.44C4.42 18.44 4.43 18.44 4.45 18.44Z" fill="#0F9EA9"/>
</g>
<defs>
<clipPath id="clip0_50_41">
<rect width="52.02" height="50" fill="white"/>
</clipPath>
</defs>
</svg>
