<svg width="60" height="60" viewBox="0 0 60 60" fill="none" xmlns="http://www.w3.org/2000/svg">
<g clip-path="url(#clip0_60_137)">
<path d="M30 0C27.78 0 26 1.8 26 4C26 6.2 27.78 8 30 8C32.22 8 34 6.19 34 4C34 1.81 32.22 0 30 0ZM30 2C31.09 2 32 2.88 32 4C32 5.12 31.09 6 30 6C28.91 6 28 5.11 28 4C28 2.89 28.91 2 30 2ZM23.28 6L9.89 12.18C8.68 12.71 9.49 14.56 10.73 14L24.12 7.82C25.05 7.4 24.81 5.98 23.77 5.91C23.6 5.9 23.44 5.93 23.28 6.01V6ZM49.28 13.99C50.51 14.55 51.32 12.7 50.12 12.17L36.73 5.99C36.58 5.92 36.41 5.88 36.24 5.89C35.2 5.97 34.95 7.39 35.89 7.8L49.28 13.98V13.99ZM27.38 11.41C26.63 11.77 26.36 12.33 26.19 12.72C26.03 13.11 25.96 13.34 25.75 13.59C25.54 13.84 25.17 14.17 24.29 14.54C23.42 14.91 22.91 14.96 22.57 14.94C22.23 14.92 22.03 14.82 21.65 14.67C21.27 14.52 20.67 14.33 19.93 14.57C19.26 14.79 18.6 15.32 17.87 16.06C17.08 16.86 16.6 17.53 16.41 18.13C16.18 18.87 16.39 19.46 16.54 19.84C16.7 20.22 16.8 20.42 16.83 20.76C16.86 21.09 16.81 21.6 16.46 22.48C16.1 23.36 15.78 23.75 15.53 23.97C15.28 24.19 15.06 24.26 14.69 24.41C14.21 24.62 13.72 24.9 13.4 25.53C13.11 26.1 12.99 26.89 13 27.99C13 29.01 13.08 29.83 13.4 30.45C13.72 31.07 14.21 31.36 14.69 31.57C15.06 31.73 15.27 31.79 15.52 32.01C15.77 32.23 16.11 32.63 16.46 33.5C16.81 34.36 16.85 34.87 16.83 35.2C16.8 35.53 16.71 35.73 16.56 36.09C16.38 36.52 16.21 37.07 16.38 37.73C16.51 38.22 16.76 38.66 17.18 39.17C16.5 40.29 15.96 41.47 15.59 42.76C14.87 41.69 13.92 40.85 12.79 40.23C13.54 39.35 13.99 38.22 13.99 36.99C13.99 34.24 11.77 31.99 8.99 31.99C6.21 31.99 3.98 34.24 3.98 36.99C3.98 38.23 4.43 39.36 5.18 40.23C2.67 41.58 0.98 44.24 0.98 47.29V48.46C0.98 50.96 3 52.98 5.48 52.98H12.48C13.41 52.98 14.27 52.7 14.98 52.22V55.99C14.98 57.19 15.36 58.37 16.27 59.14C17.19 59.91 18.52 60.16 20.06 59.86C20.08 59.86 20.1 59.85 20.13 59.84L29.98 57.19L39.87 59.85C41.44 60.16 42.74 59.95 43.69 59.14C44.61 58.37 44.98 57.2 44.98 56V52.22C45.7 52.7 46.56 52.98 47.48 52.98H54.48C56.96 52.98 58.98 50.97 58.98 48.46V47.29C58.98 44.23 57.3 41.58 54.78 40.23C55.53 39.35 55.98 38.22 55.98 36.99C55.98 34.24 53.75 31.99 50.97 31.99C48.19 31.99 45.97 34.24 45.97 36.99C45.97 38.23 46.42 39.36 47.17 40.23C46.05 40.83 45.09 41.69 44.37 42.76C44 41.48 43.46 40.28 42.78 39.16C43.2 38.65 43.46 38.22 43.58 37.73C43.75 37.07 43.58 36.52 43.4 36.09C43.25 35.73 43.15 35.53 43.13 35.2C43.1 34.87 43.15 34.36 43.5 33.5C43.86 32.62 44.19 32.22 44.44 32.01C44.69 31.79 44.9 31.73 45.27 31.57C45.75 31.37 46.24 31.08 46.56 30.45C46.88 29.83 46.97 29 46.96 27.99C46.96 26.88 46.85 26.09 46.56 25.53C46.24 24.91 45.75 24.62 45.27 24.41C44.9 24.25 44.68 24.18 44.43 23.97C44.18 23.75 43.86 23.36 43.5 22.48C43.14 21.6 43.1 21.09 43.13 20.76C43.16 20.43 43.26 20.22 43.42 19.84C43.58 19.46 43.78 18.87 43.55 18.13C43.36 17.52 42.88 16.86 42.09 16.06C41.36 15.32 40.7 14.79 40.03 14.57C39.29 14.33 38.69 14.52 38.31 14.67C37.93 14.82 37.72 14.92 37.39 14.94C37.05 14.96 36.54 14.91 35.67 14.54C34.8 14.17 34.42 13.85 34.21 13.59C34 13.34 33.94 13.11 33.77 12.72C33.61 12.33 33.33 11.77 32.58 11.41C31.93 11.1 31.16 11 29.96 11C28.76 11 27.99 11.1 27.34 11.41H27.38ZM4 12C1.78 12 0 13.8 0 16C0 18.2 1.78 20 4 20C6.22 20 8 18.19 8 16C8 13.81 6.22 12 4 12ZM56 12C53.78 12 52 13.8 52 16C52 18.2 53.78 20 56 20C58.22 20 60 18.19 60 16C60 13.81 58.22 12 56 12ZM31.75 13.2C31.89 13.27 31.9 13.37 31.96 13.49C32.07 13.76 32.24 14.3 32.69 14.85C33.14 15.4 33.83 15.92 34.91 16.38C35.99 16.84 36.84 16.98 37.55 16.93C38.26 16.88 38.78 16.63 39.06 16.52C39.23 16.45 39.31 16.42 39.42 16.45C39.56 16.5 39.93 16.68 40.68 17.45C41.4 18.18 41.61 18.58 41.65 18.72C41.68 18.84 41.63 18.94 41.58 19.07C41.49 19.3 41.21 19.86 41.15 20.57C41.09 21.28 41.22 22.14 41.66 23.22C42.1 24.3 42.6 25.01 43.14 25.47C43.68 25.93 44.23 26.13 44.51 26.25C44.67 26.32 44.74 26.32 44.8 26.44C44.86 26.56 45 26.95 44.99 27.98C44.99 28.95 44.88 29.36 44.8 29.52C44.74 29.64 44.63 29.66 44.51 29.71C44.23 29.83 43.68 30.02 43.14 30.49C42.6 30.95 42.1 31.66 41.66 32.74C41.23 33.8 41.1 34.65 41.15 35.35C41.2 36.05 41.43 36.53 41.57 36.86C41.63 37.03 41.69 37.12 41.66 37.23C41.66 37.26 41.61 37.37 41.57 37.44C40.09 35.64 38.18 34.19 36.02 33.24C37.25 31.83 37.99 29.99 37.99 27.98C37.99 23.57 34.39 19.98 29.99 19.98C25.59 19.98 21.99 23.57 21.99 27.98C21.99 29.99 22.73 31.83 23.96 33.24C21.79 34.19 19.89 35.64 18.41 37.44C18.37 37.37 18.33 37.26 18.32 37.23C18.29 37.12 18.35 37.03 18.41 36.86C18.55 36.53 18.78 36.05 18.83 35.35C18.88 34.65 18.75 33.81 18.32 32.74C17.88 31.66 17.38 30.95 16.84 30.49C16.3 30.03 15.75 29.83 15.47 29.71C15.35 29.66 15.24 29.64 15.18 29.52C15.1 29.36 14.98 28.95 14.99 27.98C14.99 26.95 15.12 26.56 15.18 26.44C15.24 26.32 15.32 26.32 15.47 26.25C15.75 26.13 16.3 25.94 16.84 25.47C17.38 25.01 17.88 24.3 18.32 23.22C18.76 22.14 18.89 21.28 18.83 20.57C18.77 19.86 18.5 19.3 18.4 19.07C18.35 18.94 18.29 18.83 18.33 18.72C18.37 18.58 18.58 18.18 19.3 17.45C20.06 16.68 20.42 16.5 20.56 16.45C20.67 16.41 20.75 16.45 20.92 16.52C21.2 16.63 21.73 16.88 22.43 16.93C23.14 16.98 24 16.83 25.07 16.38C26.15 15.92 26.84 15.4 27.29 14.85C27.74 14.3 27.91 13.76 28.02 13.49C28.08 13.37 28.1 13.26 28.24 13.2C28.4 13.12 28.93 12.99 29.99 12.99C31.05 12.99 31.58 13.12 31.74 13.2H31.75ZM4 14C5.09 14 6 14.88 6 16C6 17.12 5.09 18 4 18C2.91 18 2 17.11 2 16C2 14.89 2.91 14 4 14ZM56 14C57.09 14 58 14.88 58 16C58 17.12 57.1 18 56 18C54.9 18 54 17.11 54 16C54 14.89 54.91 14 56 14ZM5.8 21.63C5.11 21.59 4.59 22.24 4.77 22.9L6.53 29.56C6.84 30.9 8.86 30.37 8.46 29.05L6.7 22.39C6.6 21.96 6.23 21.66 5.79 21.63H5.8ZM54.2 21.63C53.76 21.66 53.4 21.97 53.29 22.39L51.53 29.05C51.14 30.37 53.16 30.9 53.46 29.56L55.22 22.9C55.41 22.24 54.88 21.59 54.19 21.63H54.2ZM30 22C33.29 22 36 24.67 36 28C36 31.33 33.3 34 30 34C26.7 34 24 31.32 24 28C24 24.68 26.7 22 30 22ZM9 34C10.65 34 12 35.33 12 37C12 38.67 10.65 40 9 40C7.35 40 6 38.67 6 37C6 35.33 7.36 34 9 34ZM51 34C52.65 34 54 35.33 54 37C54 38.67 52.65 40 51 40C49.35 40 48 38.67 48 37C48 35.33 49.35 34 51 34ZM23 50.45V46.99C22.97 45.69 21.03 45.69 21 46.99V50.97L20.75 51.03C19.46 51.36 19.95 53.3 21.24 52.97L36.36 49.09C37.51 48.79 38.64 49.46 38.93 50.56C39.23 51.67 38.58 52.82 37.45 53.13L19.7 57.91C18.56 58.13 17.95 57.93 17.6 57.63C17.24 57.33 17.02 56.8 17.02 56.01V47C17.02 41.3 20.66 36.49 25.69 34.73C26.94 35.53 28.43 36 30.02 36C31.61 36 33.1 35.53 34.34 34.73C39.41 36.5 43.02 41.3 43.02 47V56.02C43.02 56.81 42.79 57.33 42.44 57.63C42.08 57.93 41.47 58.13 40.34 57.91L33.88 56.17L38 55.06C40.17 54.47 41.48 52.24 40.89 50.05C40.6 48.96 39.91 48.11 39.03 47.59V46.99C39 45.69 37.06 45.7 37.03 47.02C36.73 47 36.27 47.05 35.89 47.14L23.03 50.44L23 50.45ZM34 41C32.7 41.03 32.7 42.97 34 43H37C38.3 42.97 38.3 41.03 37 41H34ZM7.06 41.6C7.62 41.84 8.32 41.99 9 41.99C9.68 41.99 10.35 41.84 10.94 41.6C13.31 42.4 15 44.67 15 47.3V48.47C15 49.86 13.9 50.99 12.5 50.99H5.5C4.1 50.99 3 49.85 3 48.47V47.3C3 44.66 4.69 42.4 7.06 41.6ZM49.06 41.6C49.62 41.85 50.32 41.99 51 41.99C51.68 41.99 52.36 41.85 52.94 41.6C55.32 42.4 57 44.66 57 47.3V48.47C57 49.85 55.9 50.99 54.5 50.99H47.5C46.1 50.99 45 49.85 45 48.47V47.3C45 44.66 46.68 42.39 49.06 41.6Z" fill="url(#paint0_linear_60_137)"/>
</g>
<defs>
<linearGradient id="paint0_linear_60_137" x1="0" y1="30" x2="60" y2="30" gradientUnits="userSpaceOnUse">
<stop stop-color="#03A8AC"/>
<stop offset="0.07" stop-color="#0F9EA9"/>
<stop offset="1" stop-color="#0F9EA9"/>
</linearGradient>
<clipPath id="clip0_60_137">
<rect width="60" height="60" fill="white"/>
</clipPath>
</defs>
</svg>
