<svg width="100" height="100" viewBox="0 0 100 100" fill="none" xmlns="http://www.w3.org/2000/svg">
<g clip-path="url(#clip0_41_820)">
<path d="M98.33 20H69.29L59.57 3.33H61.33L92.69 16.53C93.54 16.89 94.52 16.49 94.87 15.64C95.22 14.79 94.83 13.81 93.98 13.46L62.32 0.13C62.11 0.04 61.89 0 61.67 0H38.34C38.12 0 37.9 0.04 37.69 0.13L6.02 13.46C5.4 13.72 5 14.33 5 15V20H1.67C0.75 20 0 20.75 0 21.67V28.34C0 29.26 0.75 30.01 1.67 30.01V38.34C1.66 42.93 5.37 46.66 9.95 46.67C12.6 46.67 15.09 45.42 16.67 43.29C19.36 46.97 24.53 47.78 28.21 45.09C28.9 44.59 29.5 43.98 30.01 43.29C32.7 46.97 37.87 47.78 41.55 45.09C42.24 44.59 42.84 43.98 43.35 43.29C46.04 46.97 51.21 47.78 54.89 45.09C55.58 44.59 56.18 43.98 56.69 43.29C59.38 46.97 64.55 47.78 68.23 45.09C68.92 44.59 69.52 43.98 70.03 43.29C72.72 46.97 77.89 47.78 81.57 45.09C82.26 44.59 82.86 43.98 83.37 43.29C84.93 45.41 87.4 46.67 90.04 46.67V96.67H45.87V61.67C45.87 60.75 45.12 60 44.2 60H16.7C15.78 60 15.03 60.75 15.03 61.67V96.67H10.03V51.43C10.03 50.51 9.28 49.76 8.36 49.76C7.44 49.76 6.69 50.51 6.69 51.43V98.33C6.69 99.25 7.44 100 8.36 100H91.69C92.61 100 93.36 99.25 93.36 98.33V45.96C96.39 44.64 98.36 41.64 98.36 38.33V35C98.36 34.08 97.61 33.33 96.69 33.33C95.77 33.33 95.02 34.08 95.02 35V38.33C95.02 41.09 92.78 43.33 90.02 43.33C87.26 43.33 85.02 41.09 85.02 38.33V30H98.35C99.27 30 100.02 29.25 100.02 28.33V21.66C100.02 20.74 99.27 19.99 98.35 19.99L98.33 20ZM18.33 96.67V63.34H42.5V96.67H18.33ZM55.71 3.33L65.43 20H34.57L44.29 3.33H55.71ZM8.33 16.11L38.67 3.33H40.43L30.71 20H8.33V16.11ZM10 43.33C7.24 43.33 5 41.09 5 38.33V30H15V38.33C15 41.09 12.76 43.33 10 43.33ZM23.33 43.33C20.57 43.33 18.33 41.09 18.33 38.33V30H28.33V38.33C28.33 41.09 26.09 43.33 23.33 43.33ZM36.67 43.33C33.91 43.33 31.67 41.09 31.67 38.33V30H41.67V38.33C41.67 41.09 39.43 43.33 36.67 43.33ZM50 43.33C47.24 43.33 45 41.09 45 38.33V30H55V38.33C55 41.09 52.76 43.33 50 43.33ZM63.33 43.33C60.57 43.33 58.33 41.09 58.33 38.33V30H68.33V38.33C68.33 41.09 66.09 43.33 63.33 43.33ZM81.67 38.33C81.67 41.09 79.43 43.33 76.67 43.33C73.91 43.33 71.67 41.09 71.67 38.33V30H81.67V38.33ZM96.67 26.67H3.33V23.34H96.66V26.67H96.67Z" fill="#0F9EA9"/>
<path d="M68.33 50C63.73 50 60 53.73 60 58.33V60H55C54.11 60 53.38 60.69 53.33 61.57L51.66 91.57C51.61 92.49 52.31 93.28 53.23 93.33C53.26 93.33 53.29 93.33 53.33 93.33H83.33C84.25 93.33 85 92.59 85 91.67C85 91.64 85 91.61 85 91.57L84.44 81.57C84.39 80.65 83.6 79.95 82.68 80C81.76 80.05 81.06 80.84 81.11 81.76L81.57 90H55.09L56.57 63.33H59.99V68.33C59.99 69.25 60.74 70 61.66 70C62.58 70 63.33 69.25 63.33 68.33V63.33H73.33V68.33C73.33 69.25 74.08 70 75 70C75.92 70 76.67 69.25 76.67 68.33V63.33H80.09L80.74 75.09C80.79 76.01 81.58 76.71 82.5 76.66C83.42 76.61 84.12 75.82 84.07 74.9L83.33 61.57C83.28 60.68 82.55 59.99 81.66 60H76.66V58.33C76.66 53.73 72.93 50 68.33 50ZM63.33 60V58.33C63.33 55.57 65.57 53.33 68.33 53.33C71.09 53.33 73.33 55.57 73.33 58.33V60H63.33Z" fill="#0F9EA9"/>
<path d="M68.33 71.67C64.65 71.67 61.66 74.65 61.66 78.34C61.66 82.03 64.64 85.01 68.33 85.01C72.02 85.01 75 82.03 75 78.34C75 74.65 72.02 71.67 68.33 71.67ZM68.33 81.67C66.49 81.67 65 80.18 65 78.34C65 76.5 66.49 75.01 68.33 75.01C70.17 75.01 71.66 76.5 71.66 78.34C71.66 80.18 70.17 81.67 68.33 81.67Z" fill="#0F9EA9"/>
<path d="M36.67 73.33C35.75 73.33 35 74.08 35 75V81.67C35 82.59 35.75 83.34 36.67 83.34C37.59 83.34 38.34 82.59 38.34 81.67V75C38.34 74.08 37.59 73.33 36.67 73.33Z" fill="#0F9EA9"/>
</g>
<defs>
<clipPath id="clip0_41_820">
<rect width="100" height="100" fill="white"/>
</clipPath>
</defs>
</svg>
