<svg width="60" height="61" viewBox="0 0 60 61" fill="none" xmlns="http://www.w3.org/2000/svg">
<g clip-path="url(#clip0_31_40)">
<path d="M30.33 21.5H7.58C7.09 21.5 6.69 21.9 6.69 22.39C6.69 22.88 7.09 23.28 7.58 23.28H30.33C30.82 23.28 31.22 22.88 31.22 22.39C31.22 21.9 30.82 21.5 30.33 21.5Z" fill="url(#paint0_linear_31_40)"/>
<path d="M30.33 27.75H7.58C7.09 27.75 6.69 28.15 6.69 28.64C6.69 29.13 7.09 29.53 7.58 29.53H30.33C30.82 29.53 31.22 29.13 31.22 28.64C31.22 28.15 30.82 27.75 30.33 27.75Z" fill="url(#paint1_linear_31_40)"/>
<path d="M30.33 33.99H7.58C7.09 33.99 6.69 34.39 6.69 34.88C6.69 35.37 7.09 35.77 7.58 35.77H30.33C30.82 35.77 31.22 35.37 31.22 34.88C31.22 34.39 30.82 33.99 30.33 33.99Z" fill="url(#paint2_linear_31_40)"/>
<path d="M31.22 41.12C31.22 40.63 30.82 40.23 30.33 40.23H7.58C7.09 40.23 6.69 40.63 6.69 41.12C6.69 41.61 7.09 42.01 7.58 42.01H30.33C30.82 42.01 31.22 41.61 31.22 41.12Z" fill="url(#paint3_linear_31_40)"/>
<path d="M7.58 49.38C7.09 49.38 6.69 49.78 6.69 50.27C6.69 50.76 7.09 51.16 7.58 51.16H18.98C19.47 51.16 19.87 50.76 19.87 50.27C19.87 49.78 19.47 49.38 18.98 49.38H7.58Z" fill="url(#paint4_linear_31_40)"/>
<path d="M40.57 11V8.12C40.57 7.02 39.68 6.13 38.58 6.13H20.34C19.24 6.13 18.35 7.02 18.35 8.12V11C18.35 12.1 19.24 12.99 20.34 12.99H21.88C22.37 12.99 22.77 12.59 22.77 12.1C22.77 11.61 22.37 11.21 21.88 11.21H20.34C20.22 11.21 20.13 11.11 20.13 11V8.12C20.13 8 20.23 7.91 20.34 7.91H38.58C38.7 7.91 38.79 8.01 38.79 8.12V11C38.79 11.12 38.69 11.21 38.58 11.21H26.03C25.54 11.21 25.14 11.61 25.14 12.1C25.14 12.59 25.54 12.99 26.03 12.99H38.58C39.68 12.99 40.57 12.1 40.57 11Z" fill="url(#paint5_linear_31_40)"/>
<path d="M47.21 54.18C46.72 54.18 46.32 54.58 46.32 55.07V56.27C46.32 57.71 45.15 58.89 43.7 58.89H4.4C2.96 58.89 1.78 57.72 1.78 56.27V13.56C1.78 13.37 1.8 13.18 1.84 13H9.93C11.62 13 12.99 11.63 12.99 9.94V1.84C13.17 1.8 13.36 1.78 13.55 1.78H43.7C45.14 1.78 46.32 2.95 46.32 4.4V16.23C46.32 16.72 46.72 17.12 47.21 17.12C47.7 17.12 48.1 16.72 48.1 16.23V4.4C48.1 1.98 46.13 0 43.7 0H13.56C12.39 0 11.28 0.46 10.45 1.29L1.29 10.45C0.46 11.28 0 12.38 0 13.56V56.27C0 58.69 1.97 60.67 4.4 60.67H43.71C46.13 60.67 48.11 58.7 48.11 56.27V55.07C48.11 54.58 47.71 54.18 47.22 54.18H47.21ZM11.22 3.03V9.93C11.22 10.64 10.64 11.22 9.93 11.22H3.03L11.22 3.03Z" fill="url(#paint6_linear_31_40)"/>
<path d="M59.38 31.75C60 30.83 60.17 29.71 59.82 28.65C59.47 27.59 58.68 26.78 57.64 26.4C56.95 26.15 56.49 25.52 56.46 24.78C56.43 23.67 55.89 22.66 55 22.01C54.1 21.36 52.98 21.16 51.92 21.47C51.21 21.68 50.47 21.43 50.02 20.85C49.34 19.97 48.32 19.47 47.21 19.47C46.1 19.47 45.08 19.97 44.4 20.85C43.95 21.43 43.2 21.67 42.5 21.47C41.44 21.16 40.31 21.36 39.42 22.01C38.52 22.66 37.99 23.67 37.96 24.78C37.94 25.51 37.48 26.15 36.78 26.4C35.74 26.77 34.94 27.59 34.6 28.65C34.26 29.7 34.42 30.83 35.04 31.75C35.45 32.36 35.45 33.14 35.04 33.75C34.42 34.67 34.25 35.79 34.6 36.85C34.94 37.9 35.74 38.72 36.78 39.1C37.47 39.35 37.93 39.98 37.96 40.72C37.99 41.74 38.46 42.7 39.24 43.35C39.76 43.78 40.38 44.05 41.03 44.14V52.23C41.03 52.91 41.4 53.54 42 53.88C42.6 54.21 43.33 54.2 43.91 53.84L47.17 51.83C47.22 51.8 47.25 51.81 47.28 51.83L50.54 53.84C51.12 54.2 51.85 54.21 52.45 53.88C53.05 53.55 53.42 52.92 53.42 52.23V44.14C54.07 44.05 54.69 43.78 55.21 43.35C55.99 42.7 56.46 41.74 56.49 40.72C56.51 39.99 56.97 39.35 57.67 39.1C58.71 38.73 59.51 37.91 59.85 36.85C60.19 35.8 60.03 34.67 59.41 33.75C59 33.14 59 32.36 59.41 31.75H59.38ZM51.46 52.31L48.2 50.3C47.59 49.93 46.83 49.93 46.22 50.3L42.96 52.31C42.89 52.36 42.79 52.31 42.79 52.22V43.96C43.4 43.89 44.01 44.14 44.39 44.64C45.07 45.52 46.09 46.02 47.2 46.02C48.31 46.02 49.33 45.52 50.01 44.64C50.4 44.14 51 43.89 51.61 43.96V52.22C51.61 52.31 51.52 52.36 51.44 52.31H51.46ZM57.91 34.75C58.22 35.21 58.3 35.77 58.13 36.3C57.96 36.83 57.56 37.24 57.04 37.42C55.66 37.92 54.73 39.19 54.69 40.66C54.67 41.18 54.45 41.64 54.05 41.97C53.6 42.34 53 42.48 52.42 42.31C51.01 41.9 49.51 42.38 48.61 43.55C48.27 43.99 47.76 44.24 47.21 44.24C46.66 44.24 46.14 43.99 45.81 43.55C45.12 42.66 44.09 42.17 43.01 42.17C42.68 42.17 42.34 42.22 42 42.31C41.41 42.48 40.81 42.34 40.37 41.97C39.97 41.64 39.75 41.18 39.73 40.66C39.69 39.19 38.76 37.92 37.38 37.42C36.86 37.23 36.46 36.82 36.29 36.3C36.12 35.77 36.2 35.21 36.51 34.75C37.34 33.53 37.34 31.96 36.51 30.75C36.2 30.29 36.12 29.73 36.29 29.2C36.46 28.67 36.86 28.26 37.38 28.08C38.76 27.58 39.69 26.31 39.73 24.84C39.75 24.29 40.01 23.78 40.46 23.46C40.91 23.13 41.47 23.04 42 23.19C43.41 23.6 44.91 23.12 45.8 21.95C46.14 21.51 46.65 21.26 47.2 21.26C47.75 21.26 48.27 21.51 48.6 21.95C49.5 23.11 50.99 23.6 52.4 23.19C52.93 23.03 53.49 23.13 53.94 23.46C54.39 23.79 54.65 24.29 54.67 24.84C54.71 26.31 55.64 27.58 57.02 28.08C57.54 28.27 57.94 28.68 58.11 29.2C58.28 29.73 58.2 30.29 57.89 30.75C57.06 31.97 57.06 33.54 57.89 34.75H57.91Z" fill="url(#paint7_linear_31_40)"/>
<path d="M47.21 25.31C43.1 25.31 39.76 28.65 39.76 32.76C39.76 36.87 43.1 40.21 47.21 40.21C51.32 40.21 54.66 36.87 54.66 32.76C54.66 28.65 51.32 25.31 47.21 25.31ZM47.21 38.42C44.08 38.42 41.54 35.88 41.54 32.75C41.54 29.62 44.08 27.08 47.21 27.08C50.34 27.08 52.88 29.62 52.88 32.75C52.88 35.88 50.34 38.42 47.21 38.42Z" fill="url(#paint8_linear_31_40)"/>
</g>
<defs>
<linearGradient id="paint0_linear_31_40" x1="6.69" y1="22.39" x2="31.22" y2="22.39" gradientUnits="userSpaceOnUse">
<stop stop-color="#03A8AC"/>
<stop offset="0.07" stop-color="#0F9EA9"/>
<stop offset="1" stop-color="#0F9EA9"/>
</linearGradient>
<linearGradient id="paint1_linear_31_40" x1="2.90437e-06" y1="28.64" x2="1" y2="28.64" gradientUnits="userSpaceOnUse">
<stop stop-color="#03A8AC"/>
<stop offset="0.07" stop-color="#0F9EA9"/>
<stop offset="1" stop-color="#0F9EA9"/>
</linearGradient>
<linearGradient id="paint2_linear_31_40" x1="2.90437e-06" y1="34.88" x2="1" y2="34.88" gradientUnits="userSpaceOnUse">
<stop stop-color="#03A8AC"/>
<stop offset="0.07" stop-color="#0F9EA9"/>
<stop offset="1" stop-color="#0F9EA9"/>
</linearGradient>
<linearGradient id="paint3_linear_31_40" x1="2.90437e-06" y1="41.12" x2="1" y2="41.12" gradientUnits="userSpaceOnUse">
<stop stop-color="#03A8AC"/>
<stop offset="0.07" stop-color="#0F9EA9"/>
<stop offset="1" stop-color="#0F9EA9"/>
</linearGradient>
<linearGradient id="paint4_linear_31_40" x1="6.69" y1="50.27" x2="19.87" y2="50.27" gradientUnits="userSpaceOnUse">
<stop stop-color="#03A8AC"/>
<stop offset="0.07" stop-color="#0F9EA9"/>
<stop offset="1" stop-color="#0F9EA9"/>
</linearGradient>
<linearGradient id="paint5_linear_31_40" x1="18.34" y1="9.56001" x2="40.57" y2="9.56001" gradientUnits="userSpaceOnUse">
<stop stop-color="#03A8AC"/>
<stop offset="0.07" stop-color="#0F9EA9"/>
<stop offset="1" stop-color="#0F9EA9"/>
</linearGradient>
<linearGradient id="paint6_linear_31_40" x1="0" y1="30.33" x2="48.1" y2="30.33" gradientUnits="userSpaceOnUse">
<stop stop-color="#03A8AC"/>
<stop offset="0.07" stop-color="#0F9EA9"/>
<stop offset="1" stop-color="#0F9EA9"/>
</linearGradient>
<linearGradient id="paint7_linear_31_40" x1="34.42" y1="36.8" x2="60" y2="36.8" gradientUnits="userSpaceOnUse">
<stop stop-color="#03A8AC"/>
<stop offset="0.07" stop-color="#0F9EA9"/>
<stop offset="1" stop-color="#0F9EA9"/>
</linearGradient>
<linearGradient id="paint8_linear_31_40" x1="39.76" y1="32.75" x2="54.66" y2="32.75" gradientUnits="userSpaceOnUse">
<stop stop-color="#03A8AC"/>
<stop offset="0.07" stop-color="#0F9EA9"/>
<stop offset="1" stop-color="#0F9EA9"/>
</linearGradient>
<clipPath id="clip0_31_40">
<rect width="60" height="60.66" fill="white"/>
</clipPath>
</defs>
</svg>
