<svg width="60" height="61" viewBox="0 0 60 61" fill="none" xmlns="http://www.w3.org/2000/svg">
<path d="M30.5658 27.42H24.4258C23.8858 27.42 23.4458 27.86 23.4458 28.4V52.8C23.4458 53.34 23.8858 53.78 24.4258 53.78H30.5658C31.1058 53.78 31.5458 53.34 31.5458 52.8V28.4C31.5458 27.86 31.1058 27.42 30.5658 27.42ZM29.5858 51.82H25.4058V29.38H29.5858V51.82ZM19.1658 33.86H13.0258C12.4858 33.86 12.0458 34.3 12.0458 34.84V52.79C12.0458 53.33 12.4858 53.77 13.0258 53.77H19.1658C19.7058 53.77 20.1458 53.33 20.1458 52.79V34.84C20.1458 34.3 19.7058 33.86 19.1658 33.86ZM18.1858 51.82H14.0058V35.83H18.1858V51.82ZM7.76581 40.04H1.62581C1.08581 40.04 0.64581 40.48 0.64581 41.02V52.8C0.64581 53.34 1.08581 53.78 1.62581 53.78H7.76581C8.30581 53.78 8.74581 53.34 8.74581 52.8V41.02C8.74581 40.48 8.30581 40.04 7.76581 40.04ZM6.78581 51.82H2.60581V42H6.78581V51.82ZM0.97581 36.18C0.56581 36.18 0.19581 35.93 0.0558099 35.52C-0.12419 35.01 0.14581 34.45 0.65581 34.27C15.4058 29.13 28.3758 21.67 39.2658 12.06L37.1158 12.18C36.5758 12.21 36.1158 11.8 36.0858 11.26C36.0558 10.72 36.4658 10.26 37.0058 10.23L41.9158 9.96C42.2058 9.94 42.4958 10.06 42.6958 10.28C42.8958 10.5 42.9858 10.79 42.9458 11.08L42.2358 15.95C42.1658 16.44 41.7458 16.79 41.2658 16.79C41.2158 16.79 41.1758 16.79 41.1258 16.78C40.5858 16.7 40.2158 16.21 40.2958 15.67L40.6158 13.5C29.5258 23.29 16.3058 30.9 1.29581 36.13C1.18581 36.17 1.08581 36.18 0.97581 36.18ZM44.0358 6.21L46.5458 8.23L45.6958 11.34C45.5558 11.85 45.7458 12.37 46.1658 12.68C46.3858 12.84 46.6458 12.92 46.9058 12.92C47.1458 12.92 47.3858 12.85 47.5958 12.71L50.2958 10.94L52.9958 12.71C53.4358 13 53.9958 12.98 54.4158 12.68C54.8358 12.37 55.0258 11.85 54.8858 11.34L54.0358 8.23L56.5458 6.21C56.9558 5.88 57.1158 5.35 56.9558 4.85C56.7958 4.35 56.3458 4.01 55.8258 3.99L52.6058 3.83L51.4658 0.81C51.2758 0.32 50.8158 0 50.2958 0C49.7758 0 49.3158 0.32 49.1258 0.81L47.9858 3.83L44.7658 3.99C44.2458 4.02 43.7958 4.35 43.6358 4.85C43.4758 5.35 43.6358 5.88 44.0458 6.21H44.0358ZM48.5458 5.76C49.0458 5.74 49.4758 5.42 49.6558 4.95L50.3058 3.24L50.9558 4.95C51.1358 5.42 51.5658 5.73 52.0658 5.76L53.8958 5.85L52.4758 6.99C52.0858 7.3 51.9258 7.81 52.0558 8.29L52.5358 10.05L51.0058 9.05C50.5858 8.78 50.0558 8.78 49.6358 9.05L48.1058 10.05L48.5858 8.29C48.7158 7.81 48.5458 7.3 48.1658 6.99L46.7458 5.85L48.5758 5.76H48.5458ZM59.3658 44.22L57.7058 43.58C57.4558 42.69 57.0958 41.84 56.6558 41.04L57.3758 39.41C57.5358 39.04 57.4558 38.61 57.1758 38.32L54.7158 35.86C54.6158 35.76 54.4858 35.68 54.3558 35.63V16.81C54.3558 16.27 53.9158 15.83 53.3758 15.83H47.2358C46.6958 15.83 46.2558 16.27 46.2558 16.81V33.04H44.4158C44.0058 33.04 43.6458 33.29 43.5058 33.67L42.9558 35.1V22.61C42.9558 22.07 42.5158 21.63 41.9758 21.63H35.8358C35.2958 21.63 34.8558 22.07 34.8558 22.61V42.82C34.7658 43.07 34.6858 43.33 34.6058 43.58L32.9458 44.22C32.5658 44.37 32.3158 44.73 32.3158 45.13V48.61C32.3158 49.02 32.5658 49.38 32.9458 49.52L34.6058 50.16C34.6758 50.42 34.7658 50.67 34.8558 50.92V52.79C34.8558 53.12 35.0158 53.41 35.2658 53.59L34.9358 54.33C34.7758 54.7 34.8558 55.13 35.1358 55.42L37.5958 57.88C37.8858 58.17 38.3158 58.25 38.6858 58.08L40.3158 57.36C41.1258 57.81 41.9758 58.16 42.8558 58.41L43.4958 60.07C43.6458 60.45 44.0058 60.7 44.4058 60.7H47.8858C48.2958 60.7 48.6558 60.45 48.7958 60.07L49.4358 58.41C50.3258 58.16 51.1758 57.8 51.9758 57.36L53.6058 58.08C53.9758 58.24 54.4058 58.16 54.6958 57.88L57.1558 55.42C57.4458 55.13 57.5258 54.7 57.3558 54.33L56.6358 52.7C57.0858 51.89 57.4358 51.04 57.6858 50.16L59.3458 49.52C59.7258 49.37 59.9758 49.01 59.9758 48.61V45.13C59.9758 44.72 59.7258 44.36 59.3458 44.22H59.3658ZM52.3958 17.78V36.19L51.9958 36.37C51.1858 35.92 50.3358 35.57 49.4558 35.32L48.8158 33.66C48.7058 33.38 48.4858 33.18 48.2158 33.09V17.79H52.3958V17.78ZM40.9858 23.58V36.03C40.7558 36.14 40.5358 36.25 40.3158 36.38L38.6858 35.66C38.3158 35.5 37.8858 35.58 37.5958 35.86L36.8058 36.65V23.59H40.9858V23.58ZM58.0358 47.94L56.5358 48.52C56.2358 48.64 56.0058 48.89 55.9358 49.21C55.6858 50.24 55.2858 51.23 54.7258 52.14C54.5558 52.42 54.5358 52.76 54.6658 53.05L55.3158 54.52L53.8058 56.03L52.3358 55.38C52.0358 55.25 51.6958 55.27 51.4258 55.44C50.5158 56 49.5358 56.41 48.4958 56.65C48.1858 56.72 47.9258 56.95 47.8058 57.25L47.2258 58.75H45.0858L44.5058 57.25C44.3858 56.95 44.1358 56.72 43.8158 56.65C42.7858 56.4 41.7958 56 40.8858 55.44C40.6058 55.27 40.2658 55.25 39.9758 55.38L38.5058 56.03L36.9958 54.52L37.6458 53.05C37.7758 52.75 37.7558 52.41 37.5858 52.14C37.0258 51.23 36.6158 50.25 36.3758 49.21C36.3058 48.9 36.0758 48.64 35.7758 48.52L34.2758 47.94V45.8L35.7758 45.22C36.0758 45.1 36.3058 44.85 36.3758 44.53C36.6258 43.5 37.0258 42.51 37.5858 41.6C37.7558 41.32 37.7758 40.98 37.6458 40.69L36.9958 39.22L38.5058 37.71L39.9758 38.36C40.2758 38.49 40.6158 38.47 40.8858 38.3C41.7958 37.74 42.7758 37.33 43.8158 37.09C44.1258 37.02 44.3858 36.79 44.5058 36.49L45.0858 34.99H47.2258L47.8058 36.49C47.9258 36.79 48.1758 37.02 48.4958 37.09C49.5258 37.34 50.5158 37.74 51.4258 38.3C51.6958 38.47 52.0458 38.49 52.3358 38.36L53.8058 37.71L55.3158 39.22L54.6658 40.69C54.5358 40.99 54.5558 41.33 54.7258 41.6C55.2858 42.51 55.6958 43.49 55.9358 44.53C56.0058 44.84 56.2358 45.1 56.5358 45.22L58.0358 45.8V47.94ZM46.1558 39.82C42.2658 39.82 39.1058 42.98 39.1058 46.87C39.1058 50.76 42.2658 53.92 46.1558 53.92C50.0458 53.92 53.2058 50.76 53.2058 46.87C53.2058 42.98 50.0458 39.82 46.1558 39.82ZM46.1558 51.96C43.3458 51.96 41.0658 49.68 41.0658 46.87C41.0658 44.06 43.3458 41.78 46.1558 41.78C48.9658 41.78 51.2458 44.06 51.2458 46.87C51.2458 49.68 48.9658 51.96 46.1558 51.96Z" fill="url(#paint0_linear_31_14)"/>
<defs>
<linearGradient id="paint0_linear_31_14" x1="-0.00419006" y1="30.36" x2="59.9958" y2="30.36" gradientUnits="userSpaceOnUse">
<stop stop-color="#03A8AC"/>
<stop offset="0.07" stop-color="#0F9EA9"/>
<stop offset="1" stop-color="#0F9EA9"/>
</linearGradient>
</defs>
</svg>
