<svg width="61" height="60" viewBox="0 0 61 60" fill="none" xmlns="http://www.w3.org/2000/svg">
<g clip-path="url(#clip0_60_134)">
<path fill-rule="evenodd" clip-rule="evenodd" d="M6.23002 45.8L4.28002 43.85C3.99002 43.56 3.91002 43.13 4.08002 42.76L5.34002 39.94C4.54002 38.56 3.93002 37.09 3.52002 35.55L0.64002 34.44C0.26002 34.3 0.0200195 33.93 0.0200195 33.53V28.06C0.0200195 27.66 0.27002 27.3 0.64002 27.15L3.52002 26.04C3.94002 24.5 4.55002 23.02 5.34002 21.64L4.08002 18.82C3.92002 18.45 4.00002 18.02 4.28002 17.73L8.15002 13.86C8.44002 13.57 8.87002 13.49 9.24002 13.66L12.06 14.92C13.44 14.12 14.91 13.51 16.45 13.1L17.56 10.21C17.71 9.83 18.07 9.59 18.47 9.59H23.94C24.34 9.59 24.71 9.84 24.85 10.22L25.96 13.11C27.5 13.52 28.97 14.13 30.35 14.93L33.17 13.67C33.54 13.51 33.97 13.59 34.26 13.87L35.41 15.02V12.59H33.51C31.93 12.59 31.06 10.78 32.03 9.55L38.97 0.72C39.72 -0.24 41.16 -0.24 41.92 0.72L48.87 9.54C49.84 10.77 48.97 12.58 47.39 12.58H45.49V19.78C47.55 17.17 50.52 13.4 50.52 13.4C51.27 12.44 52.71 12.44 53.47 13.4L60.42 22.22C61.39 23.45 60.52 25.26 58.94 25.26H57.04V43.47C57.04 44.01 56.6 44.45 56.06 44.45H47.93C47.39 44.45 46.95 44.01 46.95 43.47V25.26H45.49V30.79C45.49 31.33 45.05 31.77 44.51 31.77H42.4V33.53C42.4 33.93 42.15 34.29 41.78 34.44L38.9 35.55C38.49 37.09 37.87 38.56 37.08 39.94L38.33 42.76C38.49 43.13 38.41 43.56 38.13 43.84L36.91 45.06L40 52.27C40.14 52.6 40.09 52.99 39.86 53.27C39.63 53.55 39.26 53.68 38.91 53.61L33.06 52.41L29.91 57.48C29.72 57.79 29.37 57.97 29.01 57.94C28.65 57.91 28.33 57.68 28.19 57.35L25.24 50.37L24.86 51.36C24.72 51.74 24.35 51.98 23.95 51.98H18.48C18.19 51.98 17.93 51.86 17.75 51.65L14.09 59.43C13.94 59.76 13.61 59.97 13.25 59.99C12.89 60.01 12.55 59.82 12.36 59.51L9.36002 54.35L3.48002 55.38C3.12002 55.44 2.76002 55.3 2.54002 55.01C2.32002 54.72 2.28002 54.34 2.43002 54.01L6.24002 45.8H6.23002ZM37.36 16.97L38.13 17.74C38.41 18.02 38.5 18.46 38.33 18.82L37.08 21.64C37.88 23.02 38.49 24.5 38.9 26.04L41.78 27.15C42.16 27.29 42.4 27.66 42.4 28.06V29.82H43.53V24.51C43.07 23.88 43 22.99 43.53 22.27V11.61C43.53 11.07 43.97 10.63 44.51 10.63H47.23L40.45 2.02L33.67 10.63H36.39C36.93 10.63 37.37 11.07 37.37 11.61V16.97H37.36ZM35.42 46.55L34.26 47.71C33.98 47.99 33.54 48.08 33.18 47.91L30.36 46.66C29.14 47.37 27.84 47.93 26.49 48.33L29.25 54.86L31.77 50.81C31.99 50.46 32.39 50.29 32.79 50.37L37.48 51.33L35.43 46.54L35.42 46.55ZM16.73 49.22C16.57 48.8 16.45 48.49 16.45 48.49C14.91 48.08 13.43 47.46 12.05 46.67L9.23002 47.92C8.86002 48.08 8.43002 48 8.15002 47.72L7.70002 47.27L4.97002 53.14L9.68002 52.31C10.08 52.24 10.49 52.43 10.69 52.78L13.1 56.92L16.73 49.21V49.22ZM24.32 14.27L23.27 11.54H19.14L18.09 14.27C17.97 14.57 17.72 14.79 17.41 14.87C15.73 15.27 14.12 15.94 12.64 16.85C12.37 17.02 12.03 17.04 11.73 16.91L9.06002 15.72L6.14002 18.64L7.33002 21.31C7.46002 21.6 7.44002 21.94 7.27002 22.22C6.36002 23.7 5.69002 25.3 5.29002 27C5.22002 27.31 4.99002 27.57 4.69002 27.68L1.96002 28.73V32.86L4.69002 33.91C4.99002 34.03 5.21002 34.28 5.29002 34.59C5.70002 36.28 6.36002 37.89 7.27002 39.36C7.44002 39.63 7.46002 39.97 7.33002 40.27L6.14002 42.94L9.06002 45.86L11.73 44.68C12.02 44.55 12.36 44.57 12.63 44.74C14.11 45.64 15.71 46.32 17.4 46.72C17.71 46.79 17.97 47.02 18.08 47.32L19.13 50.05H23.26L24.31 47.32C24.43 47.02 24.68 46.8 24.99 46.72C26.67 46.32 28.29 45.65 29.76 44.74C30.03 44.57 30.37 44.55 30.67 44.68L33.34 45.86L36.26 42.94L35.08 40.27C34.95 39.98 34.97 39.64 35.14 39.37C36.05 37.89 36.72 36.29 37.12 34.6C37.19 34.29 37.42 34.03 37.72 33.92L40.45 32.87V28.74L37.72 27.69C37.42 27.57 37.2 27.32 37.12 27.01C36.72 25.32 36.05 23.71 35.14 22.24C34.97 21.97 34.95 21.63 35.08 21.33L36.26 18.66L33.34 15.74L30.67 16.93C30.38 17.06 30.04 17.04 29.76 16.87C28.28 15.96 26.68 15.29 24.99 14.89C24.68 14.82 24.42 14.59 24.31 14.29L24.32 14.27ZM21.2 18.42C28.03 18.42 33.57 23.96 33.57 30.79C33.57 37.62 28.03 43.16 21.2 43.16C14.37 43.16 8.83002 37.62 8.83002 30.79C8.83002 23.96 14.37 18.42 21.2 18.42ZM21.2 20.37C15.45 20.37 10.78 25.04 10.78 30.79C10.78 36.54 15.45 41.21 21.2 41.21C26.95 41.21 31.62 36.54 31.62 30.79C31.62 25.04 26.95 20.37 21.2 20.37ZM19.65 30.44L24.68 25.36C25.74 24.3 27.46 24.29 28.52 25.35C29.58 26.41 29.59 28.12 28.53 29.19C26.21 31.53 23.9 33.89 21.57 36.22C20.51 37.28 18.78 37.28 17.72 36.22L13.85 32.35C12.79 31.29 12.79 29.57 13.85 28.5C14.91 27.44 16.64 27.44 17.7 28.5L19.64 30.44H19.65ZM18.97 32.52L16.34 29.89C16.04 29.59 15.55 29.59 15.25 29.89C14.95 30.19 14.95 30.68 15.25 30.98L19.12 34.85C19.42 35.15 19.91 35.15 20.21 34.85C22.54 32.52 24.84 30.16 27.16 27.82C27.46 27.52 27.46 27.03 27.16 26.73C26.86 26.43 26.37 26.43 26.07 26.73L20.35 32.51C20.17 32.69 19.92 32.8 19.66 32.8C19.4 32.8 19.15 32.7 18.97 32.51V32.52ZM45.2 23.3H47.92C48.46 23.3 48.9 23.74 48.9 24.28V42.49H55.07V24.28C55.07 23.74 55.51 23.3 56.05 23.3H58.77L51.99 14.69L45.21 23.3H45.2Z" fill="url(#paint0_linear_60_134)"/>
</g>
<defs>
<linearGradient id="paint0_linear_60_134" x1="1.95311e-05" y1="30" x2="60.82" y2="30" gradientUnits="userSpaceOnUse">
<stop stop-color="#03A8AC"/>
<stop offset="0.07" stop-color="#0F9EA9"/>
<stop offset="1" stop-color="#0F9EA9"/>
</linearGradient>
<clipPath id="clip0_60_134">
<rect width="60.82" height="60" fill="white"/>
</clipPath>
</defs>
</svg>
