<svg width="100" height="100" viewBox="0 0 100 100" fill="none" xmlns="http://www.w3.org/2000/svg">
<g clip-path="url(#clip0_40_817)">
<path d="M4.31 97.07H95.7C96.08 97.07 96.43 96.91 96.67 96.67C96.91 96.43 97.07 96.07 97.07 95.7V93.54C97.07 93.16 96.91 92.82 96.67 92.57C96.42 92.32 96.07 92.17 95.7 92.17H4.31C3.93 92.17 3.59 92.32 3.34 92.57C3.09 92.82 2.93 93.17 2.93 93.54V95.7C2.93 96.08 3.09 96.43 3.34 96.67C3.59 96.92 3.93 97.07 4.31 97.07ZM21.61 89.23V70.98C21.61 69.72 21.09 68.57 20.26 67.73C19.42 66.89 18.27 66.38 17.01 66.38C15.75 66.38 14.6 66.9 13.76 67.73C12.92 68.57 12.4 69.72 12.4 70.98V89.23H21.61ZM24.54 70.97V89.22H31.09V70.97C31.09 68.9 31.94 67.02 33.3 65.65C34.66 64.29 36.54 63.44 38.62 63.44C40.7 63.44 42.57 64.29 43.94 65.65C45.3 67.02 46.15 68.9 46.15 70.97V89.22H52.7V70.97C52.7 68.9 53.55 67.02 54.91 65.65C56.28 64.29 58.16 63.44 60.23 63.44C62.3 63.44 64.19 64.29 65.55 65.65C66.92 67.02 67.76 68.9 67.76 70.97V89.22H74.31V70.97C74.31 68.9 75.16 67.02 76.52 65.65C77.89 64.29 79.77 63.44 81.84 63.44C83.91 63.44 85.8 64.29 87.16 65.65C88.53 67.02 89.37 68.9 89.37 70.97V89.22H94.21V57.97H5.77V70.28C5.77 71.09 5.11 71.75 4.3 71.75C3.49 71.75 2.84 71.09 2.84 70.28V57.71C2.24 57.49 1.7 57.15 1.26 56.7C0.49 55.92 0 54.85 0 53.66V47.71C0 46.52 0.49 45.45 1.27 44.67C2.05 43.89 3.12 43.4 4.31 43.4H6.16V41.76C6.16 40.57 6.65 39.5 7.42 38.71C8.2 37.93 9.28 37.44 10.47 37.44H23.18C23.42 36.57 23.71 35.71 24.03 34.87C25.27 31.65 27.09 28.72 29.36 26.21C29.9 25.61 30.83 25.57 31.42 26.1C32.02 26.64 32.07 27.56 31.53 28.16C29.49 30.41 27.86 33.03 26.76 35.91C25.84 38.3 25.3 40.85 25.15 43.4H74.87C74.5 37.11 71.8 31.44 67.62 27.26C63.12 22.75 56.89 19.96 50.01 19.96C47.51 19.96 45.1 20.33 42.83 21.01C40.48 21.71 38.28 22.76 36.28 24.08C35.6 24.52 34.7 24.34 34.25 23.66C33.8 22.99 33.98 22.08 34.66 21.64C36.9 20.16 39.37 18.99 41.99 18.2C44.08 17.57 46.28 17.18 48.54 17.07V1.47C48.54 0.66 49.19 0 50 0H67.56C68.37 0 69.02 0.66 69.02 1.47C69.02 1.77 68.93 2.05 68.77 2.28L66.2 6.55L68.81 10.88C69.23 11.57 69 12.47 68.31 12.89C68.08 13.03 67.82 13.1 67.56 13.1H51.47V17.08C58.57 17.45 64.97 20.48 69.68 25.2C73.04 28.55 75.54 32.76 76.83 37.46H89.53C90.71 37.46 91.79 37.95 92.58 38.73C93.36 39.51 93.84 40.58 93.84 41.78V43.42H95.69C96.87 43.42 97.95 43.91 98.74 44.69C99.53 45.47 100 46.54 100 47.73V53.68C100 54.87 99.52 55.94 98.74 56.73C98.3 57.17 97.76 57.52 97.16 57.74V89.51C97.76 89.73 98.29 90.07 98.74 90.52C99.52 91.3 100 92.38 100 93.57V95.73C100 96.91 99.52 97.99 98.74 98.78C97.96 99.57 96.88 100.04 95.69 100.04H4.31C3.13 100.04 2.05 99.56 1.27 98.78C0.49 98 0 96.92 0 95.73V93.57C0 92.39 0.49 91.31 1.27 90.52C1.71 90.08 2.25 89.73 2.85 89.51V76.94C2.85 76.13 3.5 75.48 4.31 75.48C5.12 75.48 5.78 76.13 5.78 76.94V89.25H9.48V71C9.48 68.93 10.33 67.05 11.69 65.68C13.05 64.32 14.93 63.47 17.01 63.47C19.09 63.47 20.96 64.32 22.33 65.68C23.69 67.05 24.54 68.93 24.54 71V70.97ZM86.46 89.23V70.98C86.46 69.72 85.94 68.57 85.1 67.73C84.26 66.89 83.12 66.38 81.85 66.38C80.58 66.38 79.44 66.9 78.6 67.73C77.77 68.57 77.25 69.72 77.25 70.98V89.23H86.46ZM64.84 89.23V70.98C64.84 69.72 64.32 68.57 63.48 67.73C62.65 66.89 61.5 66.38 60.23 66.38C58.96 66.38 57.82 66.9 56.99 67.73C56.15 68.57 55.63 69.72 55.63 70.98V89.23H64.84ZM43.23 89.23V70.98C43.23 69.72 42.71 68.57 41.87 67.73C41.04 66.89 39.89 66.38 38.63 66.38C37.37 66.38 36.22 66.9 35.38 67.73C34.54 68.57 34.02 69.72 34.02 70.98V89.23H43.23ZM64.97 2.93H51.47V10.17H64.97L63.25 7.33C62.97 6.88 62.95 6.28 63.24 5.8L64.97 2.93ZM77.47 40.38C77.63 41.37 77.74 42.38 77.79 43.4H90.91V41.76C90.91 41.38 90.75 41.03 90.51 40.79C90.26 40.54 89.91 40.39 89.54 40.39H77.48L77.47 40.38ZM22.21 43.4C22.26 42.38 22.37 41.37 22.53 40.38H10.47C10.09 40.38 9.75 40.54 9.5 40.78C9.25 41.03 9.09 41.37 9.09 41.75V43.39H22.21V43.4ZM4.31 55.04H95.7C96.08 55.04 96.43 54.89 96.67 54.64C96.92 54.39 97.07 54.05 97.07 53.67V47.72C97.07 47.34 96.91 47 96.67 46.75C96.42 46.5 96.07 46.34 95.7 46.34H4.31C3.93 46.34 3.59 46.5 3.34 46.75C3.09 47 2.93 47.34 2.93 47.72V53.67C2.93 54.05 3.09 54.4 3.34 54.64C3.59 54.89 3.93 55.04 4.31 55.04Z" fill="#0F9EA9"/>
</g>
<defs>
<clipPath id="clip0_40_817">
<rect width="100" height="100" fill="white"/>
</clipPath>
</defs>
</svg>
