<svg width="43" height="50" viewBox="0 0 43 50" fill="none" xmlns="http://www.w3.org/2000/svg">
<g clip-path="url(#clip0_50_44)">
<path d="M10.08 31.84H0.61C0.27 31.84 0 32.11 0 32.45V49.39C0 49.73 0.27 50 0.61 50H10.08C10.42 50 10.69 49.73 10.69 49.39V32.45C10.69 32.11 10.42 31.84 10.08 31.84ZM9.47 48.78H1.22V33.06H9.47V48.78Z" fill="#0F9EA9"/>
<path d="M25.81 22.37H16.34C16 22.37 15.73 22.64 15.73 22.98V49.39C15.73 49.73 16 50 16.34 50H25.81C26.15 50 26.42 49.73 26.42 49.39V22.98C26.42 22.64 26.15 22.37 25.81 22.37ZM25.2 48.78H16.95V23.59H25.2V48.78Z" fill="#0F9EA9"/>
<path d="M41.83 10.85H32.36C32.02 10.85 31.75 11.12 31.75 11.46V49.39C31.75 49.73 32.02 50 32.36 50H41.83C42.17 50 42.44 49.73 42.44 49.39V11.46C42.44 11.12 42.17 10.85 41.83 10.85ZM41.22 48.78H32.97V12.07H41.22V48.78Z" fill="#0F9EA9"/>
<path d="M5.47994 27.92C7.15994 27.92 8.51994 26.56 8.51994 24.88C8.51994 24.5 8.43994 24.13 8.30994 23.79L18.9899 17.38C19.5499 17.98 20.3299 18.35 21.2099 18.35C22.8899 18.35 24.2499 16.99 24.2499 15.31C24.2499 14.84 24.1399 14.41 23.9499 14.01L35.2099 5.27999C35.7499 5.76999 36.4599 6.06999 37.2399 6.06999C38.9199 6.06999 40.2799 4.70999 40.2799 3.02999C40.2799 1.34999 38.9199 -0.0100098 37.2399 -0.0100098C35.5599 -0.0100098 34.1999 1.34999 34.1999 3.02999C34.1999 3.47999 34.3099 3.90999 34.4899 4.29999L23.2199 13.04C22.6799 12.57 21.9899 12.27 21.2199 12.27C19.5399 12.27 18.1799 13.63 18.1799 15.31C18.1799 15.67 18.2499 16.01 18.3699 16.33L7.65994 22.75C7.10994 22.18 6.33994 21.83 5.47994 21.83C3.79994 21.83 2.43994 23.19 2.43994 24.87C2.43994 26.55 3.79994 27.91 5.47994 27.91V27.92ZM37.2399 1.21999C38.2399 1.21999 39.0599 2.03999 39.0599 3.03999C39.0599 4.03999 38.2399 4.85999 37.2399 4.85999C36.2399 4.85999 35.4199 4.03999 35.4199 3.03999C35.4199 2.03999 36.2399 1.21999 37.2399 1.21999ZM21.2199 13.5C22.2199 13.5 23.0399 14.32 23.0399 15.32C23.0399 16.32 22.2199 17.14 21.2199 17.14C20.2199 17.14 19.3999 16.32 19.3999 15.32C19.3999 14.32 20.2199 13.5 21.2199 13.5ZM5.47994 23.06C6.47994 23.06 7.29994 23.88 7.29994 24.88C7.29994 25.88 6.47994 26.7 5.47994 26.7C4.47994 26.7 3.65994 25.88 3.65994 24.88C3.65994 23.88 4.47994 23.06 5.47994 23.06Z" fill="#0F9EA9"/>
</g>
<defs>
<clipPath id="clip0_50_44">
<rect width="42.44" height="50" fill="white"/>
</clipPath>
</defs>
</svg>
