<svg width="86" height="61" viewBox="0 0 86 61" fill="none" xmlns="http://www.w3.org/2000/svg">
<g clip-path="url(#clip0_60_131)">
<path d="M85.3499 34.14L80.0399 1.77001C79.9499 1.24001 79.6199 0.790006 79.1399 0.550006C78.6599 0.310006 78.0899 0.320006 77.6199 0.570006L64.4499 7.61001C63.6999 8.01001 63.3799 8.91001 63.6899 9.69001L64.5499 11.82C62.1199 12.88 59.3399 12.96 56.8399 12.05C52.2699 10.37 47.2399 10.64 42.8899 12.76C38.5399 10.63 33.5099 10.37 28.9399 12.05C26.4399 12.97 23.6599 12.88 21.2299 11.82L22.0899 9.69001C22.4099 8.90001 22.0799 8.01001 21.3299 7.61001L8.12993 0.570006C7.65993 0.320006 7.08993 0.310006 6.60993 0.550006C6.12993 0.790006 5.78993 1.24001 5.70993 1.77001L0.399935 34.14C0.269935 34.93 0.719935 35.7 1.47993 35.97L8.72993 38.58C8.91993 38.65 9.10994 38.68 9.28994 38.68C9.94994 38.68 10.5699 38.28 10.8299 37.64L11.6699 35.55L15.5199 38.6C15.6199 39.87 16.1499 41.12 17.1199 42.1C18.1899 43.17 19.5899 43.71 20.9899 43.72C20.9999 45.12 21.5399 46.52 22.6099 47.59C23.6799 48.66 25.0799 49.2 26.4799 49.21C26.4899 50.61 27.0299 52.01 28.0999 53.08C29.1799 54.16 30.5999 54.7 32.0199 54.7C32.3299 54.7 32.6399 54.67 32.9499 54.62C33.1299 55.73 33.6399 56.8 34.4999 57.65C35.5799 58.73 36.9999 59.27 38.4199 59.27C39.4799 59.27 40.5399 58.97 41.4599 58.36L41.8599 58.76C42.9399 59.84 44.3599 60.38 45.7799 60.38C47.1999 60.38 48.6199 59.84 49.6999 58.76C50.3699 58.09 50.8399 57.28 51.0899 56.42C51.7499 56.7 52.4699 56.84 53.2099 56.84C54.6899 56.84 56.0799 56.26 57.1299 55.22C57.9999 54.35 58.5199 53.26 58.6899 52.13C58.9699 52.17 59.2599 52.2 59.5399 52.2C60.9599 52.2 62.3799 51.66 63.4599 50.58C64.4899 49.55 65.0699 48.17 65.0799 46.71C66.4799 46.7 67.8799 46.16 68.9499 45.09C70.5899 43.45 70.9799 41.03 70.1299 39.01L74.5299 36.67L74.9199 37.65C75.1799 38.3 75.7999 38.69 76.4599 38.69C76.6499 38.69 76.8399 38.66 77.0199 38.59L84.2699 35.98C85.0199 35.71 85.4799 34.94 85.3499 34.15V34.14ZM8.34994 34.92L3.89993 33.32L8.60993 4.59001L18.4299 9.84001L8.34994 34.92ZM22.6099 39.75C21.7399 40.61 20.3399 40.61 19.4699 39.75C18.5999 38.88 18.5999 37.48 19.4699 36.61L21.2799 34.8C21.6999 34.38 22.2599 34.15 22.8499 34.15C23.4399 34.15 23.9999 34.38 24.4199 34.8C25.2899 35.67 25.2899 37.07 24.4199 37.94L22.6099 39.75ZM28.0999 45.23C27.2299 46.1 25.8299 46.1 24.9599 45.23C24.0899 44.36 24.0899 42.96 24.9599 42.09L29.0299 38.02C29.4499 37.6 30.0099 37.37 30.5999 37.37C31.1899 37.37 31.7499 37.6 32.1699 38.02C33.0399 38.89 33.0399 40.29 32.1699 41.16L28.0999 45.23ZM33.5899 50.72C32.7199 51.59 31.3199 51.59 30.4499 50.72C29.5799 49.85 29.5799 48.45 30.4499 47.58L34.5199 43.51C34.9499 43.08 35.5199 42.86 36.0899 42.86C36.6599 42.86 37.2299 43.08 37.6599 43.51C38.0799 43.93 38.3099 44.49 38.3099 45.08C38.3099 45.67 38.0799 46.23 37.6599 46.65L33.5899 50.72ZM41.4199 53.86L39.9899 55.29C39.1199 56.16 37.7199 56.16 36.8499 55.29C35.9799 54.42 35.9799 53.02 36.8499 52.15L38.2799 50.72C38.7099 50.29 39.2799 50.07 39.8499 50.07C40.4199 50.07 40.9899 50.29 41.4199 50.72C42.2899 51.59 42.2899 52.99 41.4199 53.86ZM47.3399 56.41C46.4699 57.28 45.0699 57.28 44.1999 56.41L43.8799 56.09C44.8499 55.06 45.3899 53.72 45.3899 52.29C45.3899 51.92 45.3499 51.56 45.2899 51.21L47.3499 53.27C48.2199 54.14 48.2199 55.54 47.3499 56.41H47.3399ZM66.5899 42.73C65.7199 43.6 64.3199 43.6 63.4499 42.73L52.7199 32C52.0699 31.35 51.0199 31.35 50.3699 32C49.7199 32.65 49.7199 33.7 50.3699 34.35L61.0999 45.08C61.5199 45.5 61.7499 46.06 61.7499 46.65C61.7499 47.24 61.5199 47.8 61.0999 48.22C60.2299 49.09 58.8299 49.09 57.9599 48.22L50.1899 40.45C49.5399 39.8 48.4899 39.8 47.8399 40.45C47.1899 41.1 47.1899 42.15 47.8399 42.8L54.7699 49.73C55.1899 50.15 55.4199 50.71 55.4199 51.3C55.4199 51.89 55.1899 52.45 54.7699 52.87C54.3499 53.29 53.7899 53.52 53.1999 53.52C52.6099 53.52 52.0499 53.29 51.6299 52.87L46.6399 47.88C45.9899 47.23 44.9399 47.23 44.2899 47.88C44.0999 48.07 43.9699 48.29 43.8899 48.52C43.8399 48.47 43.7999 48.42 43.7499 48.38C43.0599 47.69 42.2099 47.2 41.2899 46.95C41.4999 46.36 41.6099 45.73 41.6099 45.09C41.6099 43.61 41.0299 42.22 39.9899 41.17C38.9199 40.1 37.5199 39.56 36.1199 39.55C36.1099 38.15 35.5699 36.75 34.4999 35.68C33.4499 34.63 32.0599 34.06 30.5799 34.06C29.6999 34.06 28.8599 34.26 28.0999 34.65C27.8399 33.85 27.3899 33.09 26.7599 32.46C25.7099 31.41 24.3199 30.84 22.8399 30.84C21.3599 30.84 19.9699 31.42 18.9199 32.46L17.1099 34.27C16.8499 34.53 16.6199 34.81 16.4299 35.1L12.9499 32.34L19.9599 14.91C23.1499 16.27 26.7899 16.38 30.0599 15.17C32.9799 14.1 36.1299 14 39.0599 14.85L34.8399 17.19C33.2999 18.04 32.1899 19.51 31.7899 21.21C31.3899 22.91 31.7299 24.73 32.7299 26.17C34.3399 28.51 37.3299 29.46 39.9899 28.48L49.0899 25.15C50.4399 24.65 51.9799 24.99 52.9999 26.01L66.5899 39.6C67.4599 40.47 67.4599 41.87 66.5899 42.74V42.73ZM68.0399 36.35L55.3499 23.66C53.4199 21.73 50.5199 21.09 47.9499 22.03L38.8499 25.36C37.6099 25.82 36.2099 25.37 35.4599 24.28C34.9899 23.6 34.8299 22.77 35.0199 21.97C35.2099 21.16 35.7099 20.49 36.4399 20.09L43.6699 16.09C47.3499 14.05 51.7299 13.72 55.6699 15.17C58.9399 16.37 62.5799 16.27 65.7699 14.91L73.2699 33.56L68.0299 36.35H68.0399ZM77.3999 34.92L67.3199 9.84001L77.1399 4.59001L81.8499 33.31L77.3999 34.91V34.92Z" fill="url(#paint0_linear_60_131)" stroke="white" stroke-width="0.75" stroke-miterlimit="10"/>
</g>
<defs>
<linearGradient id="paint0_linear_60_131" x1="0.379935" y1="30.38" x2="85.3699" y2="30.38" gradientUnits="userSpaceOnUse">
<stop stop-color="#03A8AC"/>
<stop offset="0.07" stop-color="#0F9EA9"/>
<stop offset="1" stop-color="#0F9EA9"/>
</linearGradient>
<clipPath id="clip0_60_131">
<rect width="85.74" height="60.75" fill="white"/>
</clipPath>
</defs>
</svg>
