<svg width="55" height="50" viewBox="0 0 55 50" fill="none" xmlns="http://www.w3.org/2000/svg">
<g clip-path="url(#clip0_51_87)">
<path d="M53.75 34.9L47.75 31.9C47.21 31.63 46.56 31.85 46.29 32.38C46.02 32.92 46.24 33.57 46.78 33.84L50.83 35.87L27.17 47.7L3.52 35.87L7.57 33.84C8.11 33.57 8.33 32.92 8.06 32.38C7.79 31.85 7.14 31.63 6.6 31.9L0.6 34.9C0.23 35.08 0 35.46 0 35.87C0 36.28 0.23 36.66 0.6 36.84L26.69 49.88C26.84 49.96 27.01 50 27.18 50C27.35 50 27.51 49.96 27.67 49.88L53.76 36.84C54.13 36.66 54.36 36.28 54.36 35.87C54.36 35.46 54.13 35.08 53.76 34.9H53.75Z" fill="white"/>
<path d="M53.75 24.03L47.75 21.03C47.21 20.76 46.56 20.98 46.29 21.51C46.02 22.05 46.24 22.7 46.78 22.97L50.83 25L27.17 36.83L3.52 25L7.57 22.97C8.11 22.7 8.33 22.05 8.06 21.51C7.79 20.97 7.14 20.76 6.6 21.03L0.6 24.03C0.23 24.21 0 24.59 0 25C0 25.41 0.23 25.79 0.6 25.97L26.69 39.01C26.84 39.09 27.01 39.13 27.18 39.13C27.35 39.13 27.51 39.09 27.67 39.01L53.76 25.97C54.13 25.79 54.36 25.41 54.36 25C54.36 24.59 54.13 24.21 53.76 24.03H53.75Z" fill="white"/>
<path d="M0.6 15.1L26.69 28.14C26.84 28.22 27.01 28.26 27.18 28.26C27.35 28.26 27.51 28.22 27.67 28.14L53.76 15.1C54.13 14.92 54.36 14.54 54.36 14.13C54.36 13.72 54.13 13.34 53.76 13.16L27.66 0.120007C27.35 -0.0299927 26.99 -0.0299927 26.69 0.120007L0.6 13.16C0.23 13.34 0 13.72 0 14.13C0 14.54 0.23 14.92 0.6 15.1ZM27.17 2.30001L50.83 14.13L27.17 25.96L3.52 14.13L27.17 2.30001Z" fill="white"/>
</g>
<defs>
<clipPath id="clip0_51_87">
<rect width="54.35" height="50" fill="white"/>
</clipPath>
</defs>
</svg>
