<svg width="51" height="50" viewBox="0 0 51 50" fill="none" xmlns="http://www.w3.org/2000/svg">
<g clip-path="url(#clip0_50_61)">
<path d="M46.95 3.06001C42.88 -1.00999 36.25 -1.00999 32.18 3.06001L25.46 9.78001C22.04 13.2 21.5 18.37 23.78 22.34L22.34 23.78C18.39 21.52 13.21 22.03 9.78 25.46L3.06 32.18C-1.02 36.26 -1.02 42.88 3.06 46.95C7.13 51.02 13.76 51.02 17.83 46.95L24.55 40.23C27.97 36.81 28.5 31.64 26.23 27.67L27.69 26.21C31.72 28.53 36.87 27.91 40.24 24.54L46.96 17.82C51.04 13.74 51.04 7.12001 46.96 3.05001L46.95 3.06001ZM29.69 14L36.41 7.28001C38.15 5.54001 40.98 5.54001 42.73 7.28001C44.47 9.02001 44.47 11.86 42.73 13.6L36.01 20.32C35.01 21.32 33.65 21.72 32.34 21.56L34.15 19.75C35.22 18.68 35.22 16.93 34.15 15.86C33.11 14.82 31.3 14.82 30.26 15.86L28.42 17.7C28.26 16.39 28.68 15.01 29.69 14.01V14ZM31.36 16.96C31.82 16.5 32.58 16.49 33.04 16.96C33.5 17.42 33.5 18.18 33.04 18.64L18.64 33.04C18.19 33.49 17.41 33.49 16.96 33.04C16.5 32.58 16.5 31.82 16.96 31.36L31.36 16.96ZM20.32 36L13.6 42.72C11.86 44.46 9.02 44.46 7.28 42.72C5.54 40.98 5.54 38.14 7.28 36.4L14 29.68C15.01 28.67 16.4 28.24 17.69 28.41L15.85 30.25C14.78 31.32 14.78 33.07 15.85 34.14C16.92 35.21 18.66 35.22 19.74 34.14L21.58 32.3C21.74 33.61 21.32 34.99 20.31 35.99L20.32 36ZM23.44 39.12L16.72 45.84C13.26 49.3 7.62 49.3 4.16 45.84C0.69 42.37 0.69 36.74 4.16 33.28L10.88 26.56C13.55 23.89 17.66 23.15 21.17 24.94L19 27.11C16.76 26.39 14.45 27.03 12.9 28.58L6.18 35.3C3.83 37.65 3.83 41.48 6.18 43.83C8.53 46.18 12.35 46.18 14.71 43.83L21.43 37.11C23.08 35.46 23.56 33.09 22.89 31.01L25.06 28.84C26.88 32.41 26.07 36.5 23.44 39.13V39.12ZM45.84 16.72L39.12 23.44C36.32 26.25 32.13 26.76 28.82 25.07L31.01 22.88C33.24 23.61 35.56 22.97 37.11 21.42L43.83 14.7C46.18 12.35 46.18 8.52001 43.83 6.17001C41.48 3.82001 37.65 3.82001 35.3 6.17001L28.58 12.89C26.93 14.54 26.46 16.9 27.12 18.98L24.93 21.17C23.25 17.86 23.75 13.68 26.56 10.86L33.28 4.14001C36.74 0.680007 42.38 0.680007 45.84 4.14001C49.31 7.61001 49.31 13.24 45.84 16.7V16.72Z" fill="#0F9EA9"/>
<path d="M12.61 13.71C12.92 14.02 13.41 14.02 13.71 13.71C14.01 13.4 14.02 12.91 13.71 12.61L11.73 10.63C11.42 10.32 10.93 10.32 10.63 10.63C10.32 10.94 10.32 11.43 10.63 11.73L12.61 13.71Z" fill="#0F9EA9"/>
<path d="M18.96 11.15C19.43 11.15 19.79 10.74 19.74 10.28L19.43 7.5C19.38 7.07 19 6.77 18.57 6.81C18.14 6.86 17.83 7.24 17.88 7.67L18.19 10.45C18.23 10.85 18.57 11.15 18.97 11.15H18.96Z" fill="#0F9EA9"/>
<path d="M7.50999 19.42L10.29 19.73C10.73 19.78 11.11 19.46 11.15 19.04C11.2 18.61 10.89 18.23 10.46 18.18L7.67999 17.87C7.25999 17.83 6.86999 18.13 6.81999 18.56C6.76999 18.99 7.07999 19.37 7.50999 19.42Z" fill="#0F9EA9"/>
<path d="M37.3999 36.29C37.0899 35.98 36.5999 35.98 36.2999 36.29C35.9899 36.6 35.9899 37.09 36.2999 37.39L38.2799 39.37C38.5899 39.68 39.0799 39.68 39.3799 39.37C39.6899 39.06 39.6899 38.57 39.3799 38.27L37.3999 36.29Z" fill="#0F9EA9"/>
<path d="M30.9599 38.85C30.5299 38.9 30.2199 39.28 30.2699 39.71L30.5799 42.49C30.6299 42.91 30.9999 43.23 31.4399 43.18C31.8699 43.13 32.1799 42.75 32.1299 42.32L31.8199 39.54C31.7699 39.11 31.3799 38.81 30.9599 38.85Z" fill="#0F9EA9"/>
<path d="M42.5 30.58L39.72 30.27C39.3 30.23 38.91 30.53 38.86 30.96C38.81 31.39 39.12 31.77 39.55 31.82L42.33 32.13C42.77 32.18 43.15 31.86 43.19 31.44C43.24 31.01 42.93 30.63 42.5 30.58Z" fill="#0F9EA9"/>
</g>
<defs>
<clipPath id="clip0_50_61">
<rect width="50.01" height="50" fill="white"/>
</clipPath>
</defs>
</svg>
