<svg width="60" height="60" viewBox="0 0 60 60" fill="none" xmlns="http://www.w3.org/2000/svg">
<g clip-path="url(#clip0_31_32)">
<path d="M57.29 12.25H53.49V2.99C53.49 1.34 52.15 0 50.5 0H37.84C36.19 0 34.85 1.34 34.85 2.99V12.25H29.34V4.75C29.34 3.1 28 1.76 26.35 1.76H9.26C7.61 1.76 6.27 3.1 6.27 4.75V12.25H2.71C1.22 12.25 0 13.46 0 14.96V18.73C0 19.22 0.39 19.61 0.88 19.61C1.37 19.61 1.76 19.22 1.76 18.73V14.96C1.76 14.44 2.19 14.01 2.71 14.01H6.27V15.77H4.39C3.9 15.77 3.51 16.16 3.51 16.65V47.12C3.51 47.61 3.9 48 4.39 48H48.75C49.24 48 49.63 47.61 49.63 47.12C49.63 46.63 49.24 46.24 48.75 46.24H5.27V17.53H6.28C6.4 19.07 7.69 20.28 9.26 20.28H16.35V38.64C16.35 39.13 16.74 39.52 17.23 39.52H19.98C20.47 39.52 20.86 39.13 20.86 38.64C20.86 38.15 20.47 37.76 19.98 37.76H18.11V20.27H26.37C27.94 20.27 29.23 19.05 29.35 17.52H35.53C36.08 18.2 36.92 18.63 37.85 18.63H40.81C41.22 19.75 42.21 20.58 43.41 20.76V27.05H40.54C40.05 27.05 39.66 27.44 39.66 27.93C39.66 28.42 40.05 28.81 40.54 28.81H44.29C44.78 28.81 45.17 28.42 45.17 27.93V20.76C46.37 20.58 47.37 19.74 47.77 18.63H50.5C51.44 18.63 52.28 18.2 52.82 17.52H54.71V46.23H52.51C52.02 46.23 51.63 46.62 51.63 47.11C51.63 47.6 52.02 47.99 52.51 47.99H55.59C56.08 47.99 56.47 47.6 56.47 47.11V16.64C56.47 16.15 56.08 15.76 55.59 15.76H53.48C53.48 15.76 53.48 15.68 53.48 15.64V14H57.28C57.8 14 58.23 14.43 58.23 14.95V48.8C58.23 49.32 57.8 49.75 57.28 49.75H2.71C2.19 49.75 1.76 49.32 1.76 48.8V22.47C1.76 21.98 1.37 21.59 0.88 21.59C0.39 21.59 0 21.98 0 22.47V48.8C0 50.29 1.21 51.51 2.71 51.51H23.85V54.73H14.89C13.44 54.73 12.25 55.91 12.25 57.37C12.25 58.83 13.43 60.01 14.89 60.01H45.12C46.57 60.01 47.76 58.83 47.76 57.37C47.76 55.91 46.58 54.73 45.12 54.73H36.16V51.51H57.3C58.79 51.51 60.01 50.3 60.01 48.8V14.95C60.01 13.46 58.8 12.24 57.3 12.24L57.29 12.25ZM27.6 17.29C27.6 17.97 27.05 18.52 26.37 18.52H9.26C8.58 18.52 8.03 17.97 8.03 17.29V4.75C8.03 4.07 8.58 3.52 9.26 3.52H26.37C27.05 3.52 27.6 4.07 27.6 4.75V17.29ZM29.36 15.76V14H34.87V15.64C34.87 15.64 34.87 15.72 34.87 15.76H29.36ZM44.68 19.04H43.91C43.12 19.04 42.47 18.44 42.38 17.67C42.38 17.67 42.38 17.67 42.38 17.66C42.38 17.61 42.38 17.56 42.38 17.51V17.29H46.23V17.51C46.23 17.56 46.23 17.61 46.23 17.66V17.67C46.15 18.44 45.49 19.04 44.7 19.04H44.68ZM50.51 16.88H47.98V16.82C47.98 16.46 47.83 16.13 47.58 15.89C47.69 15.55 47.89 15.25 48.18 15.04C49.97 13.76 51.03 11.68 51.03 9.46C51.03 8.19 50.69 6.96 50.03 5.89C49.78 5.47 49.24 5.34 48.82 5.59C48.41 5.84 48.27 6.38 48.53 6.8C49.01 7.6 49.27 8.52 49.27 9.46C49.27 11.11 48.48 12.66 47.15 13.61C46.5 14.07 46.04 14.76 45.84 15.53H42.73C42.53 14.76 42.07 14.08 41.42 13.61C40.09 12.66 39.3 11.11 39.3 9.46C39.3 6.66 41.53 4.39 44.28 4.39C44.92 4.39 45.54 4.51 46.13 4.75C46.58 4.93 47.09 4.72 47.28 4.27C47.47 3.82 47.25 3.31 46.8 3.12C46 2.79 45.15 2.63 44.29 2.63C40.57 2.63 37.55 5.69 37.55 9.46C37.55 11.67 38.62 13.76 40.4 15.04C40.69 15.25 40.9 15.55 41 15.89C40.76 16.12 40.6 16.45 40.6 16.82V16.88H37.84C37.16 16.88 36.61 16.33 36.61 15.65V2.99C36.61 2.31 37.16 1.76 37.84 1.76H50.5C51.18 1.76 51.73 2.31 51.73 2.99V15.65C51.73 16.33 51.18 16.88 50.5 16.88H50.51ZM46 57.36C46 57.84 45.61 58.24 45.12 58.24H14.88C14.4 58.24 14 57.85 14 57.36C14 56.87 14.39 56.48 14.88 56.48H45.11C45.59 56.48 45.99 56.87 45.99 57.36H46ZM34.39 54.73H25.6V51.51H34.39V54.73Z" fill="url(#paint0_linear_31_32)"/>
<path d="M38.96 34.74C40.08 34.5 40.89 33.49 40.89 32.35C40.89 31.21 40.08 30.2 38.96 29.96C38.54 29.87 38.25 29.81 38.04 29.77L37.51 28.49C37.63 28.31 37.8 28.06 38.03 27.7C38.65 26.74 38.52 25.45 37.71 24.64C36.9 23.83 35.61 23.69 34.65 24.32C34.29 24.55 34.04 24.72 33.86 24.84L32.58 24.31C32.54 24.1 32.48 23.8 32.39 23.39C32.15 22.27 31.14 21.46 30 21.46C28.86 21.46 27.85 22.27 27.61 23.39C27.52 23.81 27.46 24.1 27.42 24.31L26.14 24.84C25.96 24.72 25.71 24.55 25.35 24.32C24.39 23.7 23.1 23.83 22.29 24.64C21.48 25.45 21.34 26.74 21.97 27.7C22.2 28.06 22.37 28.31 22.49 28.49L21.96 29.77C21.75 29.81 21.45 29.87 21.04 29.96C19.92 30.2 19.11 31.21 19.11 32.35C19.11 33.49 19.92 34.5 21.04 34.74C21.46 34.83 21.75 34.89 21.96 34.93L22.49 36.21C22.37 36.39 22.2 36.64 21.97 37C21.35 37.96 21.48 39.25 22.29 40.06C23.1 40.87 24.39 41.01 25.35 40.38C25.71 40.15 25.96 39.98 26.14 39.86L27.42 40.39C27.46 40.6 27.52 40.9 27.61 41.31C27.85 42.43 28.86 43.24 30 43.24C31.14 43.24 32.15 42.43 32.39 41.31C32.48 40.89 32.54 40.6 32.58 40.39L33.86 39.86C34.04 39.98 34.29 40.15 34.65 40.38C35.61 41 36.9 40.87 37.71 40.06C38.52 39.25 38.66 37.96 38.03 37C37.8 36.64 37.63 36.39 37.51 36.21L38.04 34.93C38.25 34.89 38.55 34.83 38.96 34.74ZM22.58 33.26H22.59C22.59 33.26 22.57 33.26 22.58 33.26ZM37.4 33.26H37.42C37.42 33.26 37.4 33.26 37.39 33.26H37.4ZM37.39 33.26C37.04 33.28 36.74 33.49 36.6 33.81L35.7 35.97C35.57 36.29 35.63 36.66 35.86 36.92C35.89 36.96 36.03 37.15 36.55 37.95C36.73 38.22 36.69 38.58 36.46 38.81C36.23 39.04 35.87 39.08 35.6 38.9C34.82 38.39 34.62 38.25 34.58 38.22C34.32 37.99 33.96 37.92 33.63 38.05L31.47 38.94C31.14 39.07 30.92 39.38 30.91 39.73C30.91 39.79 30.86 40.04 30.67 40.94C30.6 41.26 30.32 41.48 30 41.48C29.68 41.48 29.39 41.25 29.33 40.94C29.14 40.03 29.1 39.79 29.09 39.73C29.07 39.38 28.86 39.07 28.53 38.94L26.37 38.04C26.04 37.91 25.67 37.97 25.42 38.21C25.37 38.25 25.17 38.4 24.4 38.89C24.13 39.07 23.77 39.03 23.54 38.8C23.31 38.57 23.27 38.21 23.45 37.94C23.96 37.16 24.1 36.96 24.13 36.92C24.36 36.66 24.43 36.29 24.3 35.97L23.4 33.81C23.27 33.49 22.96 33.28 22.61 33.26C22.56 33.26 22.32 33.22 21.4 33.02C21.08 32.95 20.86 32.67 20.86 32.35C20.86 32.03 21.09 31.74 21.4 31.68C22.31 31.48 22.55 31.45 22.61 31.44C22.96 31.42 23.26 31.21 23.4 30.89L24.3 28.73C24.43 28.41 24.37 28.04 24.14 27.78C24.11 27.74 23.97 27.55 23.45 26.75C23.27 26.48 23.31 26.12 23.54 25.89C23.77 25.66 24.13 25.62 24.4 25.8C25.18 26.31 25.38 26.45 25.42 26.48C25.68 26.71 26.04 26.78 26.37 26.65L28.53 25.76C28.86 25.62 29.07 25.32 29.09 24.97C29.09 24.91 29.14 24.66 29.33 23.76C29.4 23.44 29.68 23.22 30 23.22C30.32 23.22 30.61 23.45 30.67 23.76C30.87 24.67 30.9 24.91 30.91 24.97C30.93 25.32 31.14 25.62 31.46 25.76L33.62 26.66C33.95 26.79 34.32 26.73 34.57 26.49C34.62 26.45 34.82 26.3 35.59 25.81C35.86 25.63 36.22 25.67 36.45 25.9C36.68 26.13 36.72 26.49 36.54 26.76C36.03 27.54 35.89 27.74 35.86 27.78C35.63 28.04 35.56 28.41 35.69 28.73L36.58 30.89C36.71 31.21 37.02 31.43 37.37 31.45C37.42 31.45 37.66 31.49 38.58 31.69C38.9 31.76 39.12 32.04 39.12 32.36C39.12 32.68 38.89 32.97 38.58 33.03C37.67 33.23 37.43 33.26 37.37 33.27L37.39 33.26Z" fill="url(#paint1_linear_31_32)"/>
<path d="M30 28.2C27.71 28.2 25.85 30.06 25.85 32.35C25.85 34.64 27.71 36.5 30 36.5C32.29 36.5 34.15 34.64 34.15 32.35C34.15 30.06 32.29 28.2 30 28.2ZM30 34.73C28.68 34.73 27.61 33.66 27.61 32.34C27.61 31.02 28.68 29.95 30 29.95C31.32 29.95 32.39 31.02 32.39 32.34C32.39 33.66 31.32 34.73 30 34.73Z" fill="url(#paint2_linear_31_32)"/>
<path d="M10.78 8.10998H17.65C18.14 8.10998 18.53 7.71998 18.53 7.22998C18.53 6.73998 18.14 6.34998 17.65 6.34998H10.78C10.29 6.34998 9.89999 6.73998 9.89999 7.22998C9.89999 7.71998 10.29 8.10998 10.78 8.10998Z" fill="url(#paint3_linear_31_32)"/>
<path d="M10.78 11.62H24.84C25.33 11.62 25.72 11.23 25.72 10.74C25.72 10.25 25.33 9.85999 24.84 9.85999H10.78C10.29 9.85999 9.89999 10.25 9.89999 10.74C9.89999 11.23 10.29 11.62 10.78 11.62Z" fill="url(#paint4_linear_31_32)"/>
<path d="M24.84 13.38H10.78C10.29 13.38 9.89999 13.77 9.89999 14.26C9.89999 14.75 10.29 15.14 10.78 15.14H24.84C25.33 15.14 25.72 14.75 25.72 14.26C25.72 13.77 25.33 13.38 24.84 13.38Z" fill="url(#paint5_linear_31_32)"/>
</g>
<defs>
<linearGradient id="paint0_linear_31_32" x1="0" y1="30" x2="60" y2="30" gradientUnits="userSpaceOnUse">
<stop stop-color="#03A8AC"/>
<stop offset="0.07" stop-color="#0F9EA9"/>
<stop offset="1" stop-color="#0F9EA9"/>
</linearGradient>
<linearGradient id="paint1_linear_31_32" x1="19.1" y1="32.34" x2="40.9" y2="32.34" gradientUnits="userSpaceOnUse">
<stop stop-color="#03A8AC"/>
<stop offset="0.07" stop-color="#0F9EA9"/>
<stop offset="1" stop-color="#0F9EA9"/>
</linearGradient>
<linearGradient id="paint2_linear_31_32" x1="25.85" y1="32.34" x2="34.15" y2="32.34" gradientUnits="userSpaceOnUse">
<stop stop-color="#03A8AC"/>
<stop offset="0.07" stop-color="#0F9EA9"/>
<stop offset="1" stop-color="#0F9EA9"/>
</linearGradient>
<linearGradient id="paint3_linear_31_32" x1="9.89999" y1="7.22998" x2="18.53" y2="7.22998" gradientUnits="userSpaceOnUse">
<stop stop-color="#03A8AC"/>
<stop offset="0.07" stop-color="#0F9EA9"/>
<stop offset="1" stop-color="#0F9EA9"/>
</linearGradient>
<linearGradient id="paint4_linear_31_32" x1="9.89999" y1="10.75" x2="25.72" y2="10.75" gradientUnits="userSpaceOnUse">
<stop stop-color="#03A8AC"/>
<stop offset="0.07" stop-color="#0F9EA9"/>
<stop offset="1" stop-color="#0F9EA9"/>
</linearGradient>
<linearGradient id="paint5_linear_31_32" x1="9.89999" y1="14.26" x2="25.72" y2="14.26" gradientUnits="userSpaceOnUse">
<stop stop-color="#03A8AC"/>
<stop offset="0.07" stop-color="#0F9EA9"/>
<stop offset="1" stop-color="#0F9EA9"/>
</linearGradient>
<clipPath id="clip0_31_32">
<rect width="60" height="60" fill="white"/>
</clipPath>
</defs>
</svg>
