<svg width="55" height="60" viewBox="0 0 55 60" fill="none" xmlns="http://www.w3.org/2000/svg">
<g clip-path="url(#clip0_60_141)">
<path d="M4.59 22.16H16.64C16.93 22.16 17.2 22 17.35 21.75C17.5 21.5 17.5 21.18 17.35 20.93L11.32 10.5C11.17 10.25 10.9 10.09 10.61 10.09C10.32 10.09 10.05 10.25 9.9 10.5L6.89 15.72L3.88 20.94C3.73 21.19 3.73 21.51 3.88 21.76C4.03 22.01 4.3 22.17 4.59 22.17V22.16ZM8.31 16.53L10.61 12.54L15.21 20.51H6.01L8.31 16.52V16.53ZM11.43 15.14V16.86C11.43 17.31 11.06 17.68 10.61 17.68C10.16 17.68 9.79 17.31 9.79 16.86V15.14C9.79 14.69 10.16 14.32 10.61 14.32C11.06 14.32 11.43 14.69 11.43 15.14ZM11.43 18.94V19.1C11.43 19.55 11.06 19.92 10.61 19.92C10.16 19.92 9.79 19.55 9.79 19.1V18.94C9.79 18.49 10.16 18.12 10.61 18.12C11.06 18.12 11.43 18.49 11.43 18.94ZM17.19 14.37C17.19 13.92 17.56 13.55 18.01 13.55H34.75C35.2 13.55 35.57 13.92 35.57 14.37C35.57 14.82 35.2 15.19 34.75 15.19H18.01C17.56 15.19 17.19 14.82 17.19 14.37ZM17.19 17.88C17.19 17.43 17.56 17.06 18.01 17.06H27.32C27.77 17.06 28.14 17.43 28.14 17.88C28.14 18.33 27.77 18.7 27.32 18.7H18.01C17.56 18.7 17.19 18.33 17.19 17.88ZM17.35 35.05C17.5 34.8 17.5 34.48 17.35 34.23L11.32 23.79C11.17 23.54 10.9 23.38 10.61 23.38C10.32 23.38 10.05 23.54 9.9 23.79L6.89 29.01L3.88 34.23C3.73 34.48 3.73 34.8 3.88 35.05C4.03 35.3 4.3 35.46 4.59 35.46H16.64C16.93 35.46 17.2 35.3 17.35 35.05ZM6.01 33.82L10.61 25.84L15.21 33.82H6.01ZM10.61 27.62C11.06 27.62 11.43 27.99 11.43 28.44V30.16C11.43 30.61 11.06 30.98 10.61 30.98C10.16 30.98 9.79 30.61 9.79 30.16V28.44C9.79 27.99 10.16 27.62 10.61 27.62ZM11.43 32.24V32.4C11.43 32.85 11.06 33.22 10.61 33.22C10.16 33.22 9.79 32.85 9.79 32.4V32.24C9.79 31.79 10.16 31.42 10.61 31.42C11.06 31.42 11.43 31.79 11.43 32.24ZM35.57 27.66C35.57 28.11 35.2 28.48 34.75 28.48H18.01C17.56 28.48 17.19 28.11 17.19 27.66C17.19 27.21 17.56 26.84 18.01 26.84H34.75C35.2 26.84 35.57 27.21 35.57 27.66ZM28.14 31.18C28.14 31.63 27.77 32 27.32 32H18.01C17.56 32 17.19 31.63 17.19 31.18C17.19 30.73 17.56 30.36 18.01 30.36H27.32C27.77 30.36 28.14 30.73 28.14 31.18ZM50.56 38H45.94C45.85 37.3 45.74 36.63 45.59 36.03C45.02 33.62 43.15 31.83 40.87 31.26V11.02C40.87 10.8 40.78 10.59 40.63 10.44L30.43 0.24C30.28 0.09 30.07 0 29.85 0H0.82C0.37 0 0 0.37 0 0.82V51.31C0 51.76 0.37 52.13 0.82 52.13H31.66C31.79 52.21 31.91 52.29 32 52.36V59.18C32 59.63 32.37 60 32.82 60H44.27C44.72 60 45.09 59.63 45.09 59.18V52.38L45.55 45.09H50.56C52.51 45.09 54.1 43.5 54.1 41.55C54.1 39.6 52.51 38.01 50.56 38.01V38ZM44.78 43.44H35.11L27.41 39.64H45.89V43.44H44.78ZM22.49 40.7C22.12 41.44 22.07 42.29 22.34 43.08C22.38 43.21 22.43 43.33 22.49 43.45H16.9L12.62 41.55L16.9 39.65H23.34C22.99 39.93 22.7 40.28 22.49 40.7ZM43.99 36.41C44.11 36.9 44.2 37.44 44.28 38H37.54L39.3 36.58C39.65 36.3 39.71 35.78 39.42 35.43C39.14 35.08 38.62 35.02 38.27 35.31L34.93 38.01H25.05C24.36 37.98 23.78 37.46 23.66 36.78C23.59 36.39 23.69 36 23.92 35.68C24.15 35.36 24.49 35.14 24.87 35.08L38.51 32.78C41 32.36 43.4 33.95 43.98 36.41H43.99ZM30.67 2.8L38.07 10.19H30.67V2.8ZM1.64 1.64H29.03V11.01C29.03 11.46 29.4 11.83 29.85 11.83H39.23V31.06C38.9 31.06 38.58 31.09 38.25 31.15L24.61 33.45C23.79 33.59 23.07 34.04 22.59 34.72C22.11 35.4 21.92 36.23 22.05 37.04C22.11 37.38 22.22 37.7 22.38 38H16.72C16.61 38 16.49 38.02 16.39 38.07L10.26 40.79C9.96 40.92 9.77 41.22 9.77 41.54C9.77 41.86 9.96 42.16 10.26 42.29L16.39 45.01C16.49 45.06 16.61 45.08 16.72 45.08H24.33L26.77 46.28C26.73 48.05 27.94 49.45 29.23 50.48H1.64V1.64ZM43.46 52.3C43.46 52.3 43.46 52.33 43.46 52.35V58.36H33.65V52.07C33.65 51.49 33.22 51.17 32.38 50.63C32.37 50.63 32.36 50.61 32.34 50.61C32.27 50.57 32.2 50.52 32.13 50.47C30.62 49.52 28.1 47.94 28.47 45.95C28.54 45.59 28.36 45.23 28.03 45.06L24.65 43.39C24.3 43.22 24.04 42.92 23.91 42.54C23.78 42.16 23.81 41.76 23.98 41.41C24.34 40.68 25.23 40.38 25.96 40.74L34.49 44.95L37.99 47.78C38.14 47.9 38.32 47.96 38.51 47.96C38.75 47.96 38.99 47.86 39.15 47.66C39.43 47.31 39.38 46.79 39.03 46.51L37.27 45.09H43.94L43.49 52.3H43.46ZM50.56 43.44H47.53V39.64H50.56C51.61 39.64 52.46 40.49 52.46 41.54C52.46 42.59 51.61 43.44 50.56 43.44Z" fill="url(#paint0_linear_60_141)"/>
</g>
<defs>
<linearGradient id="paint0_linear_60_141" x1="0" y1="30" x2="54.1" y2="30" gradientUnits="userSpaceOnUse">
<stop stop-color="#03A8AC"/>
<stop offset="0.07" stop-color="#0F9EA9"/>
<stop offset="1" stop-color="#0F9EA9"/>
</linearGradient>
<clipPath id="clip0_60_141">
<rect width="54.1" height="60" fill="white"/>
</clipPath>
</defs>
</svg>
