<svg width="993" height="45" viewBox="0 0 993 45" fill="none" xmlns="http://www.w3.org/2000/svg">
<g clip-path="url(#clip0_29_5)">
<g opacity="0.2">
<mask id="mask0_29_5" style="mask-type:luminance" maskUnits="userSpaceOnUse" x="0" y="0" width="993" height="45">
<path d="M0.98 30.33H86.32V34.55H0.98V30.33ZM0 35.53H87.29V29.36H0V35.53ZM779.78 30.33H865.12V34.55H779.78V30.33ZM778.8 35.53H866.09V29.36H778.8V35.53ZM0.98 20.85H86.32V25.07H0.98V20.85ZM0 26.04H87.29V19.87H0V26.04ZM208.01 19.68L191.98 39.73C191.74 40.02 191.4 40.18 191.02 40.17C190.64 40.16 190.3 39.98 190.08 39.67L180.78 26.64L191.38 32.74L208.01 19.68ZM191.29 31.57L177.38 23.56L189.29 40.24C189.69 40.8 190.31 41.13 190.99 41.15C191.01 41.15 191.04 41.15 191.06 41.15C191.72 41.15 192.33 40.86 192.74 40.34L214.03 13.71L191.29 31.56V31.57ZM986.81 19.68L970.78 39.73C970.54 40.02 970.2 40.18 969.82 40.17C969.44 40.16 969.1 39.98 968.89 39.67L959.59 26.64L970.19 32.74L986.82 19.68H986.81ZM970.09 31.57L956.18 23.56L968.09 40.24C968.49 40.8 969.11 41.13 969.79 41.15C969.81 41.15 969.84 41.15 969.86 41.15C970.52 41.15 971.13 40.86 971.55 40.34L992.84 13.71L970.1 31.56L970.09 31.57ZM596.45 18.1L580.42 38.15C580.18 38.44 579.84 38.6 579.46 38.59C579.08 38.58 578.74 38.4 578.52 38.09L569.22 25.06L579.82 31.16L596.45 18.1ZM579.73 29.99L565.82 21.98L577.73 38.66C578.13 39.22 578.75 39.55 579.43 39.57C579.45 39.57 579.48 39.57 579.5 39.57C580.16 39.57 580.77 39.28 581.19 38.76L602.48 12.13L579.74 29.98L579.73 29.99ZM0.98 11.18H86.32V15.4H0.98V11.18ZM0 16.37H87.29V10.2H0V16.37ZM779.78 11.18H865.12V15.4H779.78V11.18ZM778.8 16.37H866.09V10.2H778.8V16.37ZM320.18 35.31L307.97 16.22C307.37 15.28 307.6 14.02 308.5 13.36L313.49 9.69C313.9 9.39 314.38 9.24 314.87 9.24C315.36 9.24 315.88 9.4 316.29 9.73L336.89 25.7L337.02 25.8H339.52C340.26 25.8 340.86 26.4 340.86 27.14V29.25C340.86 29.83 340.49 30.34 339.94 30.52L322.61 36.17C322.39 36.24 322.17 36.28 321.96 36.28C321.26 36.28 320.58 35.92 320.19 35.31M312.91 8.9L307.92 12.57C306.61 13.54 306.26 15.37 307.14 16.75L319.35 35.84C319.93 36.74 320.92 37.26 321.95 37.26C322.27 37.26 322.59 37.21 322.9 37.11L340.23 31.46C341.19 31.15 341.83 30.26 341.83 29.26V27.15C341.83 25.87 340.79 24.83 339.51 24.83H337.34L316.88 8.96C316.29 8.5 315.57 8.27 314.86 8.27C314.15 8.27 313.48 8.48 312.91 8.91M190.15 7.53C190.15 6.61 190.67 4.33 191.32 3.36C191.99 4.31 192.48 6.71 192.48 7.53V9.09L193.27 8.49C193.9 8.01 195.43 6.84 196.06 6.42C197.01 5.75 198.36 5.8 199.28 6.52L193.5 10.62H199.04C200.2 10.62 201.48 11.4 201.63 12.48H194.31L195.27 13.33C196.56 14.48 197.43 15.27 197.73 15.57C198.31 16.09 198.63 16.8 198.63 17.56C198.63 17.92 198.52 18.36 198.34 18.76L192.55 13.32V26.57L191.24 27.6L190.09 26.78V13.32L184.3 18.76C184.12 18.36 184.01 17.92 184.01 17.56C184.01 16.87 184.35 16.13 184.91 15.57C185.31 15.22 186.69 13.96 187.39 13.32L188.32 12.47H181.03C181.23 11.39 182.5 10.61 183.61 10.61H189.15L183.37 6.51C184.29 5.79 185.64 5.74 186.59 6.41C187.15 6.82 188.69 7.97 189.39 8.49L190.17 9.08V7.53H190.15ZM190.97 2.27L190.76 2.5C189.89 3.45 189.3 5.85 189.19 7.15C188.45 6.6 187.55 5.92 187.14 5.63C185.75 4.65 183.76 4.79 182.51 5.96L182.28 6.17V6.98L186.06 9.66H183.59C181.94 9.66 180.1 10.87 180.01 12.67L179.99 12.98L180.48 13.48H185.77C185.15 14.05 184.48 14.65 184.21 14.89C183.44 15.66 183 16.64 183 17.59C183 18.2 183.21 18.93 183.56 19.54L183.76 19.89H184.51L189.08 15.6V27.31L191.24 28.84L193.5 27.07V15.6L198.07 19.89H198.82L199.02 19.54C199.37 18.92 199.58 18.19 199.58 17.59C199.58 16.55 199.14 15.58 198.37 14.89C198.12 14.64 197.5 14.08 196.84 13.48H202.11L202.59 13V12.71C202.59 10.92 200.7 9.67 199.01 9.67H196.54L200.31 6.99V6.18L200.09 5.97C198.84 4.8 196.85 4.66 195.48 5.63C195.03 5.93 194.13 6.61 193.41 7.15C193.29 5.96 192.75 3.43 191.82 2.5L191.61 2.29H190.94L190.97 2.27ZM968.95 7.53C968.95 6.61 969.47 4.33 970.12 3.36C970.79 4.31 971.28 6.71 971.28 7.53V9.09L972.07 8.49C972.7 8.01 974.23 6.84 974.86 6.42C975.82 5.75 977.16 5.8 978.08 6.52L972.3 10.62H977.84C979 10.62 980.28 11.4 980.43 12.48H973.11L974.07 13.33C975.36 14.48 976.23 15.27 976.53 15.57C977.11 16.09 977.43 16.8 977.43 17.56C977.43 17.92 977.32 18.36 977.14 18.76L971.35 13.32V26.57L970.04 27.6L968.89 26.78V13.32L963.1 18.76C962.92 18.36 962.81 17.92 962.81 17.56C962.81 16.87 963.15 16.13 963.71 15.57C964.11 15.22 965.49 13.96 966.19 13.32L967.12 12.47H959.83C960.03 11.39 961.3 10.61 962.41 10.61H967.95L962.17 6.51C963.09 5.79 964.44 5.74 965.39 6.41C965.95 6.82 967.49 7.97 968.19 8.49L968.97 9.08V7.53H968.95ZM969.77 2.27L969.56 2.5C968.69 3.45 968.1 5.85 967.99 7.15C967.25 6.6 966.35 5.92 965.94 5.63C964.55 4.65 962.56 4.79 961.31 5.96L961.08 6.17V6.98L964.85 9.66H962.38C960.73 9.66 958.89 10.87 958.8 12.67L958.78 12.98L959.27 13.47H964.56C963.94 14.04 963.27 14.64 963 14.88C962.23 15.65 961.79 16.63 961.79 17.58C961.79 18.19 962 18.92 962.35 19.53L962.55 19.88H963.3L967.87 15.59V27.3L970.03 28.83L972.29 27.06V15.59L976.86 19.88H977.61L977.81 19.53C978.16 18.91 978.37 18.18 978.37 17.58C978.37 16.54 977.93 15.57 977.16 14.88C976.91 14.63 976.29 14.07 975.63 13.47H980.9L981.38 12.99V12.7C981.38 10.91 979.49 9.66 977.8 9.66H975.33L979.11 6.98V6.17L978.89 5.96C977.64 4.79 975.65 4.65 974.28 5.62C973.83 5.92 972.93 6.6 972.21 7.14C972.09 5.95 971.55 3.42 970.62 2.49L970.41 2.28H969.74L969.77 2.27ZM0.98 1.7H86.32V5.92H0.98V1.7ZM0 6.89H87.29V0.72H0V6.89ZM779.78 1.7H865.12V5.92H779.78V1.7ZM778.8 6.89H866.09V0.72H778.8V6.89ZM614.94 1.68H619.17V43.88H614.94V1.68ZM613.96 44.49H620.14V0.7H613.96V44.49ZM624.44 1.68H628.67V43.88H624.44V1.68ZM623.46 44.49H629.64V0.7H623.46V44.49ZM634.12 1.68H638.35V43.88H634.12V1.68ZM633.15 44.49H639.33V0.7H633.15V44.49ZM715.08 38.87L707.03 30.79L715.08 22.81L707.03 14.83L715.08 6.76L709.95 1.67H713.84L718.96 6.74L710.91 14.82L718.97 22.81L710.91 30.8L718.96 38.88L713.93 43.87H710.05L715.09 38.88L715.08 38.87ZM707.59 0.69L713.7 6.76L705.65 14.84L713.69 22.82L705.65 30.79L713.7 38.87L708.03 44.49H714.69L720.34 38.88L712.29 30.8L720.36 22.8L712.29 14.81L720.34 6.73L714.24 0.68H707.58L707.59 0.69ZM389.51 39.72H431.71V43.94H389.51V39.72ZM454.07 30.47H462.2L457.58 35.1L467.16 35.12L462.36 39.94H471.96L468.01 43.86H439.94L436.04 39.96H445.67L440.88 35.11H449.95L445.43 30.49H453.68L453.87 30.67L454.06 30.47H454.07ZM389.51 30.37H431.71V34.59H389.51V30.37ZM450.31 25.6H457.47L453.89 29.27L450.31 25.6ZM389.51 20.89H431.71V25.11H389.51V20.89ZM519.36 36.25H527.95V27.65H536.55V19.05H544.16V27.65H552.76V36.25H561.42V43.86H519.37V36.25H519.36ZM260.13 36.28H268.75V27.64H277.39V19H285.04V27.64H293.68V36.28H302.16V43.93H260.13V36.28ZM453.98 16.2L457.56 19.87H450.4L453.98 16.2ZM389.51 11.22H431.71V15.44H389.51V11.22ZM364.72 11.1C364.72 9.02 365.87 3.54 367.39 1.74H367.44C368.98 3.44 370.11 9.17 370.11 11.1V13.3L370.91 12.64C372.12 11.64 375.08 9.23 376.3 8.36C378.41 6.76 381.45 6.99 383.37 8.9V9.16L373.13 16.94H382.28C384.86 16.94 387.73 18.9 387.74 21.72L387.64 21.82H374.43L375.31 22.66C376.75 24.04 379.28 26.46 380.04 27.28C381.27 28.46 381.94 30.07 381.94 31.79C381.94 32.79 381.61 34.01 381.06 35.06L370.23 24.19V40.99L367.27 43.48L364.59 41.44V24.19L353.8 35.06H353.76C353.21 34.01 352.88 32.79 352.88 31.79C352.88 30.22 353.58 28.57 354.78 27.28C355.61 26.5 358.64 23.54 359.54 22.65L360.39 21.81H347.18L347.09 21.71C347.23 18.89 350.07 16.93 352.55 16.93H361.7L351.46 9.15V8.89C353.38 6.98 356.42 6.75 358.53 8.35C359.61 9.19 362.58 11.58 363.92 12.65L364.71 13.29V11.09L364.72 11.1ZM389.51 1.74H431.71V5.96H389.51V1.74ZM476.28 1.69H492.59V10.39H501.19V18.99H509.79V27.59H518.38V43.86H476.29V1.69H476.28ZM493.57 1.69H518.38V26.61H510.77V18.01H502.17V9.41H493.57V1.69ZM519.35 1.69H535.56V9.41H526.97V18.01H519.35V1.69ZM519.35 27.59V18.99H527.95V10.39H536.54V1.69H561.42V35.27H553.74V26.67H545.14V18.07H535.58V26.67H526.98V35.27H519.36V27.59H519.35ZM562.42 1.69H604.59V43.89H562.42V1.69ZM216.84 1.69H233.24V10.29H241.88V18.9H250.52V27.51H259.15V35.3V43.93H216.85V1.69H216.84ZM234.22 1.69H259.15V17.93V26.54H251.5V17.93H242.86V9.32H234.22V1.69ZM260.13 1.69H276.42V9.31H267.79V17.92H260.13V1.69ZM260.13 18.9H268.77V10.29H277.4V1.69H302.16V35.3H294.66V26.66H286.02V18.02H276.41V26.66H267.77V35.3H260.13V18.9ZM303.3 1.68H345.37V43.91H303.3V1.68ZM605.58 1.68H609.81V43.88H605.58V1.68ZM439.95 1.67H468.12L471.97 5.51H462.36L467.15 10.36H457.91L462.43 14.98H454.17L453.98 14.8L453.79 15H445.67L450.29 10.37L440.88 10.35L445.68 5.54H436.06L439.95 1.67ZM459.88 20.85L455.13 15.97L464.76 15.95L460.24 11.34H469.49L464.7 6.48H474.33L469.51 1.65H475.11V43.84H469.4L474.33 38.94H464.72L469.51 34.14L459.92 34.12L464.54 29.47H455.01L459.77 24.61H447.98L452.74 29.49L443.11 29.51L447.63 34.12H438.55L443.34 38.98H433.69L438.56 43.86H432.9V1.67H438.56L433.68 6.52H443.31L438.52 11.32L447.93 11.34L443.31 15.99L452.83 15.97L448.07 20.84H459.86L459.88 20.85ZM476.08 0.69H431.93V0.77H388.54V6.94H431.93V10.25H388.54V16.42H431.93V19.92H388.54V20.43C387.81 17.75 384.92 15.97 382.28 15.97H376.02L384.34 9.65V8.51L384.07 8.24C381.81 5.98 378.22 5.7 375.72 7.59C374.71 8.31 372.52 10.09 371.09 11.25V11.11C371.09 9.07 369.94 3 368.13 1.06L367.86 0.78H366.94L366.67 1.09C364.95 3.09 363.74 8.79 363.74 11.11V11.27C362.25 10.08 360.04 8.3 359.13 7.6C356.62 5.7 353.02 5.97 350.76 8.23L350.49 8.5V9.64L358.81 15.96H352.55C350.01 15.96 347.14 17.74 346.33 20.42V0.71H302.15H277.39H233.24H215.86H215.8V44.49H346.33V22.33L346.76 22.79H358C356.73 24.03 354.75 25.97 354.08 26.59C352.69 28.08 351.9 29.97 351.9 31.79C351.9 32.95 352.28 34.36 352.91 35.55L353.17 36.03H354.2L363.61 26.55V41.91L366.99 44.48H367.59L371.21 41.43V26.54L380.62 36.02H381.65L381.91 35.54C382.54 34.35 382.92 32.94 382.92 31.78C382.92 29.78 382.14 27.93 380.74 26.58C380.12 25.91 378.3 24.15 376.86 22.78H388.06L388.53 22.27V26.07H431.92V29.38H388.53V35.55H431.92V38.72H388.53V44.47H610.78V0.7H604.59L561.41 0.71H536.53V0.68H519.34H476.07L476.08 0.69ZM0.98 39.67H86.32V43.93H0.98V39.67ZM166.45 26.64L172.75 32.98V43.94H130.47V33.29L137.06 26.64L144.41 34.04L151.75 26.64L159.1 34.04L166.44 26.64H166.45ZM163.62 27.06C163.97 26.71 164.31 26.35 164.66 26L166.46 24.19L172.75 30.54V32.18L166.45 25.84L159.68 32.67L159.11 33.24L151.75 25.84L144.98 32.67L144.41 33.24L137.05 25.84L130.46 32.5V30.88L137.07 24.2L144.43 31.62L151.77 24.2L159.12 31.62L163.61 27.07L163.62 27.06ZM166.45 21.87L172.75 28.2V29.73L166.46 23.38L164.26 25.6C163.91 25.95 163.56 26.31 163.21 26.66L159.12 30.8L151.76 23.38L144.42 30.8L143.58 29.96L137.06 23.38L130.45 30.06V28.42L137.04 21.86L144.36 29.2L151.74 21.86L159.05 29.2L166.43 21.86L166.45 21.87ZM106.11 25.82L111.31 20.62L113.54 22.85L108.33 28.05L106.1 25.82H106.11ZM91.39 22.85L96.59 17.65L101.78 22.83L101.76 22.85L101.78 22.87L96.59 28.05L91.39 22.85ZM103.16 22.87L103.18 22.85L103.16 22.83L108.35 17.65L110.63 19.93L105.43 25.13L103.17 22.87H103.16ZM114.99 22.85L120.2 17.65L125.41 22.85L120.2 28.05L114.99 22.85ZM169.05 11.67H170.75L166.97 15.49V18.87L169.05 16.7H170.74L167.25 20.22L172.74 25.76V27.4L166.44 21.07L159.06 28.41L153.19 22.51L151.75 21.07L144.37 28.41L137.06 21.07L130.47 27.63V26.02L136.26 20.21L132.76 16.68H134.39L136.7 19.01V15.64L132.78 11.7L134.39 11.66L136.69 13.99V11.67H137.57V13.83L139.65 11.66H141.35L137.57 15.48V18.86L139.65 16.69H141.34L137.85 20.21L144.37 26.79L150.93 20.22L147.43 16.69H149.06L151.37 19.02V15.65L147.45 11.71L149.06 11.67L151.36 14V11.68H152.24V13.84L154.32 11.67H156.02L152.25 15.49V18.87L154.33 16.7H156.02L152.53 20.22L159.05 26.8L165.61 20.23L162.11 16.7H163.74L166.05 19.03V15.66L162.13 11.72L163.74 11.68L166.04 14.01V11.69H166.92V13.85L169 11.68L169.05 11.67ZM112.01 19.93L129.49 2.45V43.96H87.98L105.42 26.52L108.34 29.44L114.26 23.52L120.18 29.44L126.77 22.86L120.18 16.28L114.26 22.2L112 19.94L112.01 19.93ZM130.47 1.66H172.75V24.96L168.05 20.22L172.1 16.15H168.81L167.53 17.47V15.72L172.1 11.12H168.81L167.54 12.44V11.12H165.54V12.64L164.03 11.11L160.86 11.18L165.54 15.89V17.66L164.02 16.13H160.8L164.85 20.22L159.09 26L153.36 20.22L157.41 16.15H154.12L152.84 17.47V15.72L157.41 11.12H154.12L152.84 12.44V11.12H150.84V12.64L149.33 11.11L146.17 11.18L150.85 15.89V17.66L149.33 16.13H146.11L150.16 20.22L144.39 26L138.66 20.22L142.71 16.15H139.42L138.14 17.47V15.72L142.71 11.12H139.42L138.14 12.44V11.12H136.14V12.64L134.63 11.11L131.47 11.18L136.15 15.89V17.66L134.63 16.13H131.41L135.46 20.22L130.46 25.23V1.66H130.47ZM129.87 0.68H129.49V1.06L111.31 19.24L108.34 16.27L102.46 22.14L96.58 16.27L89.99 22.85L96.58 29.43L102.46 23.56L104.72 25.82L87.28 43.26V38.69H0V44.48H173.72V0.68H130.47V0.08L129.87 0.68ZM779.78 39.67H865.12V43.93H779.78V39.67ZM945.25 26.64L951.55 32.98V43.94H909.27V33.29L915.86 26.64L923.21 34.04L930.55 26.64L937.9 34.04L945.24 26.64H945.25ZM942.41 27.06C942.75 26.71 943.1 26.36 943.45 26.01L945.26 24.19L951.55 30.54V32.18L945.25 25.84L938.48 32.67L937.91 33.24L930.55 25.84L923.78 32.67L923.21 33.24L915.85 25.84L909.26 32.5V30.88L915.87 24.2L923.23 31.62L930.57 24.2L937.92 31.62L942.41 27.07V27.06ZM945.24 21.87L951.54 28.2V29.73L945.25 23.38L943.04 25.61C942.69 25.96 942.34 26.31 942 26.66L937.91 30.8L930.55 23.38L923.21 30.8L922.36 29.95L915.84 23.38L909.24 30.06V28.42L915.83 21.86L923.14 29.2L930.52 21.86L937.83 29.2L945.21 21.86L945.24 21.87ZM884.91 25.82L890.11 20.62L892.34 22.85L887.14 28.05L884.91 25.82ZM870.19 22.85L875.39 17.65L880.58 22.83L880.56 22.85L880.58 22.87L875.39 28.05L870.19 22.85ZM881.96 22.87L881.98 22.85L881.96 22.83L887.15 17.65L889.43 19.93L884.23 25.13L881.97 22.87H881.96ZM893.79 22.85L899 17.65L904.2 22.85L899 28.05L893.79 22.85ZM947.85 11.67H949.55L945.77 15.49V18.87L947.85 16.7H949.54L946.05 20.22L951.54 25.76V27.4L945.24 21.07L937.86 28.41L931.99 22.51L930.55 21.07L923.17 28.41L915.86 21.07L909.27 27.63V26.02L915.06 20.21L911.56 16.68H913.19L915.5 19.01V15.64L911.58 11.7L913.19 11.66L915.49 13.99V11.67H916.37V13.83L918.45 11.66H920.15L916.38 15.48V18.86L918.46 16.69H920.15L916.66 20.21L923.18 26.79L929.74 20.22L926.24 16.69H927.87L930.18 19.02V15.65L926.26 11.71L927.87 11.67L930.17 14V11.68H931.05V13.84L933.13 11.67H934.83L931.06 15.49V18.87L933.14 16.7H934.83L931.34 20.22L937.86 26.8L944.42 20.23L940.92 16.7H942.55L944.86 19.03V15.66L940.94 11.72L942.55 11.68L944.85 14.01V11.69H945.73V13.85L947.81 11.68L947.85 11.67ZM890.8 19.93L908.28 2.45V43.96H866.77L884.21 26.52L887.13 29.44L893.05 23.52L898.97 29.44L905.56 22.86L898.97 16.28L893.05 22.2L890.79 19.94L890.8 19.93ZM909.27 1.66H951.55V24.96L946.85 20.22L950.9 16.15H947.61L946.33 17.47V15.72L950.9 11.12H947.61L946.34 12.44V11.12H944.34V12.64L942.83 11.11L939.66 11.18L944.34 15.89V17.66L942.82 16.13H939.6L943.65 20.22L937.88 26L932.15 20.22L936.2 16.15H932.91L931.63 17.47V15.72L936.2 11.12H932.91L931.63 12.44V11.12H929.63V12.64L928.12 11.11L924.96 11.18L929.64 15.89V17.66L928.13 16.13H924.91L928.96 20.22L923.19 26L917.46 20.22L921.51 16.15H918.22L916.94 17.47V15.72L921.51 11.12H918.22L916.94 12.44V11.12H914.94V12.64L913.43 11.11L910.26 11.18L914.94 15.89V17.66L913.42 16.13H910.2L914.25 20.22L909.25 25.23V1.66H909.27ZM908.67 0.68H908.29V1.06L890.12 19.24L887.15 16.27L881.27 22.14L875.39 16.27L868.8 22.85L875.39 29.43L881.27 23.56L883.53 25.82L866.09 43.26V38.69H778.8V44.48H952.52V0.68H909.27V0.08L908.67 0.68ZM727.22 30.81L734.1 23.99V37.71L727.22 30.81ZM735.07 39.08L735.27 38.89L735.07 38.69V23.97L744.92 33.79V34.08H745.21L755.04 43.87H735.07V39.08ZM779.78 20.85H865.12V25.07H779.78V20.85ZM745.9 13.12L755.72 22.94V23.28H756.06L765.88 33.1H745.91V13.12H745.9ZM756.73 2.36L776.64 22.3H756.69L756.73 2.36ZM730.01 38.87L721.96 30.79L730 22.81L721.96 14.83L730.01 6.75L724.88 1.66H728.77L733.89 6.73L725.84 14.81L733.9 22.8L725.84 30.79L733.89 38.87L728.86 43.86H724.97L730.01 38.87ZM755.72 21.56L744.92 10.76V32.4L734.1 21.61V21.64L727.22 14.82L735.27 6.74L729.17 0.69H722.5L728.62 6.76L720.57 14.83L728.61 22.81L720.57 30.78L728.62 38.86L722.94 44.48H729.6L734.08 40.04V44.48H757.04L746.59 34.07H768.22L757.43 23.28H778.79V26.04H866.08V19.87H778.79V23.08L755.76 0L755.72 21.55V21.56ZM667.53 25.74L672.73 20.54L674.96 22.77L669.76 27.97L667.53 25.74ZM652.81 22.77L658.01 17.57L663.2 22.75L663.18 22.77L663.2 22.79L658.01 27.97L652.81 22.77ZM664.58 22.78L664.6 22.76L664.58 22.74L669.77 17.56L672.05 19.84L666.85 25.04L664.59 22.78H664.58ZM676.41 22.77L681.61 17.57L686.82 22.77L681.61 27.97L676.41 22.77ZM691.89 15.99L698.77 22.81L691.89 29.63V15.99ZM673.42 19.84L690.91 2.36V14.65L690.72 14.84L690.91 15.03V30.6L690.72 30.79L690.91 30.98V43.87H649.4L666.84 26.43L669.76 29.35L675.68 23.43L681.6 29.35L688.19 22.77L681.6 16.19L675.68 22.11L673.42 19.85V19.84ZM643.62 1.68H647.85V43.88H643.62V1.68ZM700.15 38.87L692.1 30.79L700.15 22.81L692.1 14.83L700.15 6.76L695.02 1.67H698.91L704.03 6.74L695.98 14.82L704.04 22.81L695.98 30.8L704.03 38.88L699 43.87H695.11L700.15 38.88V38.87ZM672.74 19.15L669.77 16.18L663.89 22.05L658.01 16.18L651.42 22.76L658.01 29.34L663.89 23.47L666.15 25.73L648.83 43.05V0.7H642.65V44.49H691.89V31.96L698.77 38.87L693.1 44.49H699.76L705.41 38.88L697.36 30.8L705.43 22.8L697.36 14.81L705.41 6.73L699.31 0.68H692.65L698.76 6.75L691.88 13.65V0L672.73 19.15H672.74Z" fill="white"/>
</mask>
<g mask="url(#mask0_29_5)">
<path d="M992.83 0H0V44.49H992.83V0Z" fill="url(#paint0_linear_29_5)"/>
</g>
</g>
</g>
<defs>
<linearGradient id="paint0_linear_29_5" x1="1.354" y1="23.8704" x2="992.584" y2="23.8704" gradientUnits="userSpaceOnUse">
<stop stop-color="#03A8AC"/>
<stop offset="0.49" stop-color="#58629A"/>
<stop offset="1" stop-color="#774893"/>
</linearGradient>
<clipPath id="clip0_29_5">
<rect width="992.83" height="44.49" fill="white"/>
</clipPath>
</defs>
</svg>
