<svg width="1440" height="60" fill="none" xmlns="http://www.w3.org/2000/svg"><mask id="mask0_374_22422" style="mask-type:luminance" maskUnits="userSpaceOnUse" x="0" y="0" width="1440" height="60"><path d="M975.73 25.4962L971.422 21.5432L962.898 29.3632L954.375 21.5432L944.824 30.3062L954.375 39.0692L962.898 31.2502L966.181 34.2602L941.053 57.3232V0.933151H932.09V59.7082H941.053V59.6932H1003.51V42.5422L1013.49 51.7402L1004.75 59.6942H1014.41L1023.13 51.7622L1011.45 41.0122L1023.15 30.3692L1011.45 19.7272L1023.13 8.97015L1014.28 0.919151H1004.63L1013.49 8.99715L1003.51 18.1892V0.000152588L975.73 25.4962ZM1015.5 51.7472L1003.82 40.9882L1015.49 30.3692L1003.82 19.7422L1015.5 8.99415L1008.06 2.22015H1013.7L1021.12 8.97615L1009.44 19.7332L1021.14 30.3692L1009.44 41.0062L1021.12 51.7562L1013.83 58.3942H1008.19L1015.5 51.7472ZM933.507 2.23415H939.638V58.4072H933.507V2.23415ZM976.733 26.4152L1002.09 3.13915V19.4932L1001.82 19.7492L1002.09 20.0012V40.7302L1001.82 40.9822L1002.09 41.2372V58.3932H941.891L967.182 35.1792L971.422 39.0692L980.014 31.1862L988.608 39.0692L998.159 30.3062L988.608 21.5432L980.014 29.4262L976.733 26.4152ZM1003.51 21.2902L1013.48 30.3692L1003.51 39.4422V21.2902ZM981.058 30.3062L988.608 23.3812L996.156 30.3062L988.608 37.2302L981.058 30.3062ZM963.9 30.3312L963.927 30.3062L963.9 30.2812L971.422 23.3812L974.729 26.4152L967.182 33.3412L963.9 30.3312ZM946.826 30.3062L954.375 23.3812L961.896 30.2812L961.869 30.3062L961.896 30.3312L954.375 37.2302L946.826 30.3062ZM968.184 34.2602L975.731 27.3342L978.971 30.3062L971.422 37.2302L968.184 34.2602ZM1096.09 28.6992L1080.43 14.3262L1080.44 43.1352L1064.73 28.7752V28.8082L1054.76 19.7272L1066.43 8.97015L1057.59 0.919151H1047.92L1056.8 8.99815L1045.12 19.7472L1056.78 30.3692L1045.12 40.9822L1056.8 51.7402L1048.05 59.6942H1057.72L1064.73 53.3112V59.6932H1098.55L1082.87 45.3612H1114.24L1098.59 30.9922H1129.57V34.6682H1256.17V26.4542H1129.57V30.7242L1096.15 0.0131531L1096.09 28.6992ZM1058.81 51.7472L1047.13 40.9882L1058.79 30.3692L1047.13 19.7432L1058.81 8.99315L1051.36 2.22015H1057.01L1064.43 8.97615L1052.75 19.7332L1064.44 30.3692L1052.75 41.0062L1064.43 51.7562L1057.13 58.3942H1051.49L1058.81 51.7472ZM1097.56 3.14715L1126.44 29.6922H1097.5L1097.56 3.14715ZM1081.85 17.4662L1096.08 30.5342L1096.08 30.9922H1096.58L1110.82 44.0602H1081.86L1081.85 17.4662ZM1130.98 27.7542H1254.76V33.3672H1130.98V27.7542ZM1066.15 52.0222L1066.43 51.7622L1066.15 51.4992V31.9062L1080.44 44.9712V45.3612H1080.86L1095.12 58.3922H1066.15V52.0222ZM1054.76 41.0122L1064.73 31.9292V50.1952L1054.76 41.0122ZM1317.92 0.909153H1317.38V1.41315L1291.02 25.6082L1286.71 21.6572L1278.18 29.4742L1269.66 21.6572L1260.11 30.4182L1269.66 39.1812L1278.18 31.3622L1281.47 34.3732L1256.17 57.5872V51.5112H1129.57V59.7902H1253.77L1253.75 59.8062H1318.79V59.7912H1381.53V0.909153H1318.79V0.113152L1317.92 0.909153ZM1318.79 2.21015H1380.11V33.2272L1373.3 26.9142L1379.17 21.4922L1374.41 21.4732L1372.56 23.2432V20.9212L1379.18 14.7922L1374.41 14.7832L1372.56 16.5532V14.7912H1369.65V16.8112L1367.46 14.7802L1362.86 14.8732L1369.65 21.1432V23.5052L1367.45 21.4742H1362.79L1368.67 26.9202L1360.3 34.6112L1351.99 26.9142L1357.86 21.4922L1353.1 21.4732L1351.25 23.2432V20.9212L1357.87 14.7922L1353.1 14.7832L1351.25 16.5532V14.7912H1348.34V16.8112L1346.15 14.7802L1341.56 14.8732L1348.34 21.1432V23.5052L1346.14 21.4742H1341.48L1347.36 26.9202L1338.99 34.6112L1330.68 26.9142L1336.55 21.4922L1331.79 21.4732L1329.94 23.2432V20.9212L1336.56 14.7922L1331.79 14.7832L1329.94 16.5532V14.7912H1327.03V16.8112L1324.84 14.7802L1320.25 14.8732L1327.03 21.1432V23.5052L1324.83 21.4742H1320.17L1326.05 26.9202L1318.79 33.5902V2.21015ZM1292.02 26.5282L1317.38 3.25315V58.5052H1257.17L1282.47 35.2922L1286.71 39.1812L1295.3 31.2992L1303.89 39.1812L1313.44 30.4182L1303.89 21.6572L1295.3 29.5372L1292.02 26.5282ZM1374.75 15.5332L1377.22 15.5392L1371.74 20.6142V25.1082L1374.75 22.2252L1377.21 22.2352L1372.15 26.9152L1380.11 34.2942V36.4812L1370.98 28.0572L1360.28 37.8332L1351.76 29.9772L1349.67 28.0572L1338.97 37.8332L1328.36 28.0572L1318.79 36.7932V34.6522L1327.2 26.9222L1322.13 22.2242H1324.49L1327.85 25.3222V20.8342L1322.17 15.5852L1324.5 15.5382L1327.85 18.6332V15.5402H1329.12V18.4192L1332.13 15.5332L1334.59 15.5392L1329.12 20.6142V25.1082L1332.13 22.2252L1334.59 22.2352L1329.53 26.9152L1338.99 35.6732L1348.51 26.9222L1343.44 22.2242H1345.8L1349.16 25.3222V20.8342L1343.48 15.5852L1345.81 15.5382L1349.16 18.6332V15.5402H1350.43V18.4192L1353.44 15.5332L1355.9 15.5392L1350.43 20.6142V25.1082L1353.44 22.2252L1355.9 22.2352L1350.84 26.9152L1360.3 35.6732L1369.82 26.9222L1364.75 22.2242H1367.11L1370.47 25.3222V20.8342L1364.79 15.5852L1367.13 15.5382L1370.47 18.6332V15.5402H1371.74V18.4192L1374.75 15.5332ZM1296.34 30.4182L1303.89 23.4952L1311.44 30.4182L1303.89 37.3432L1296.34 30.4182ZM1279.19 30.4432L1279.21 30.4182L1279.19 30.3932L1286.71 23.4952L1290.01 26.5282L1282.47 33.4532L1279.19 30.4432ZM1262.11 30.4182L1269.66 23.4952L1277.18 30.3932L1277.15 30.4182L1277.18 30.4432L1269.66 37.3432L1262.11 30.4182ZM1283.47 34.3722L1291.02 27.4472L1294.26 30.4182L1286.71 37.3432L1283.47 34.3722ZM1370.98 29.1162L1380.11 37.5472V39.5872L1371 31.1392L1367.79 34.1022C1367.29 34.5692 1366.78 35.0342 1366.29 35.5022L1360.35 41.0162L1349.69 31.1382L1339.04 41.0172L1337.82 39.8872L1337.82 39.8792L1328.37 31.1382L1318.79 40.0352V37.8482L1328.36 29.1162L1338.97 38.8922L1349.67 29.1162L1360.28 38.8922L1370.98 29.1162ZM1366.87 36.0282C1367.37 35.5602 1367.87 35.0962 1368.37 34.6302L1371 32.2042L1380.11 40.6532V42.8392L1370.98 34.3982L1361.17 43.4942L1360.34 44.2532L1349.67 34.3982L1339.85 43.4942L1339.03 44.2532L1328.36 34.3982L1318.79 43.2622V41.1022L1328.38 32.2052L1339.04 42.0812L1349.69 32.2052L1360.35 42.0822L1366.87 36.0282ZM1370.98 35.4622L1380.11 43.9042V58.4892H1318.79V44.3182L1328.36 35.4622L1339.03 45.3162L1349.67 35.4622L1360.33 45.3162L1370.98 35.4622ZM1130.98 52.8122H1254.76V58.4882H1130.98V52.8122ZM188.359 0.909153H187.81V1.41315L161.45 25.6082L157.141 21.6572L148.618 29.4742L140.094 21.6572L130.543 30.4182L140.094 39.1812L148.618 31.3622L151.9 34.3732L126.606 57.5872V51.5112H0V59.7902H124.208L124.19 59.8062H189.228V59.7912H251.964V0.909153H189.228V0.113152L188.359 0.909153ZM189.228 2.21015H250.548V33.2272L243.734 26.9142L249.607 21.4922L244.842 21.4732L242.991 23.2432V20.9212L249.618 14.7922L244.842 14.7832L242.991 16.5532V14.7912H240.086V16.8112L237.893 14.7802L233.3 14.8732L240.086 21.1432V23.5052L237.887 21.4742H233.221L239.1 26.9202L230.739 34.6112L222.423 26.9142L228.298 21.4922L223.532 21.4732L221.681 23.2432V20.9212L228.309 14.7922L223.532 14.7832L221.681 16.5532V14.7912H218.774V16.8112L216.581 14.7802L211.991 14.8732L218.774 21.1432V23.5052L216.578 21.4742H211.912L217.79 26.9202L209.427 34.6112L201.111 26.9142L206.986 21.4922L202.222 21.4732L200.372 23.2432V20.9212L206.999 14.7922L202.222 14.7832L200.372 16.5532V14.7912H197.464V16.8112L195.272 14.7802L190.681 14.8732L197.464 21.1432V23.5052L195.266 21.4742H190.601L196.48 26.9202L189.228 33.5902V2.21015ZM162.452 26.5282L187.81 3.25315V58.5052H127.61L152.902 35.2922L157.141 39.1812L165.733 31.2992L174.326 39.1812L183.878 30.4182L174.326 21.6572L165.733 29.5372L162.452 26.5282ZM245.189 15.5332L247.65 15.5392L242.175 20.6142V25.1082L245.188 22.2252L247.644 22.2352L242.585 26.9152L250.548 34.2942V36.4812L241.414 28.0572L230.711 37.8332L222.196 29.9772L220.104 28.0572L209.402 37.8332L198.794 28.0572L189.228 36.7942V34.6522L197.632 26.9222L192.561 22.2242H194.926L198.282 25.3222V20.8342L192.602 15.5852L194.938 15.5382L198.282 18.6332V15.5402H199.554V18.4192L202.569 15.5332L205.029 15.5392L199.554 20.6142V25.1082L202.568 22.2252L205.023 22.2352L199.963 26.9152L209.425 35.6732L218.943 26.9222L213.871 22.2242H216.238L219.591 25.3222V20.8342L213.911 15.5852L216.247 15.5382L219.591 18.6332V15.5402H220.864V18.4192L223.879 15.5332L226.339 15.5392L220.864 20.6142V25.1082L223.879 22.2252L226.333 22.2352L221.275 26.9152L230.736 35.6732L240.253 26.9222L235.181 22.2242H237.547L240.902 25.3222V20.8342L235.222 15.5852L237.56 15.5382L240.902 18.6332V15.5402H242.175V18.4192L245.189 15.5332ZM166.776 30.4182L174.326 23.4952L181.875 30.4182L174.326 37.3432L166.776 30.4182ZM149.62 30.4432L149.646 30.4182L149.62 30.3932L157.141 23.4952L160.448 26.5282L152.901 33.4532L149.62 30.4432ZM132.546 30.4182L140.094 23.4952L147.616 30.3932L147.589 30.4182L147.616 30.4432L140.094 37.3432L132.546 30.4182ZM153.903 34.3722L161.45 27.4472L164.69 30.4182L157.141 37.3432L153.903 34.3722ZM241.412 29.1162L250.548 37.5472V39.5872L241.43 31.1392L238.242 34.0892C237.732 34.5602 237.224 35.0312 236.722 35.5022L230.79 41.0162L220.121 31.1382L209.477 41.0172L208.262 39.8982L208.27 39.8892L198.809 31.1382L189.228 40.0352V37.8492L198.792 29.1162L209.401 38.8922L220.101 29.1162L230.71 38.8922L241.412 29.1162ZM237.305 36.0282C237.808 35.5562 238.314 35.0872 238.822 34.6182L241.43 32.2042L250.548 40.6532V42.8392L241.413 34.3982L231.6 43.4942L230.771 44.2532L220.101 34.3982L210.289 43.4942L209.462 44.2532L198.792 34.3982L189.228 43.2622V41.1022L198.81 32.2052L209.479 42.0812L220.121 32.2052L230.79 42.0822L237.305 36.0282ZM241.414 35.4622L250.548 43.9042V58.4892H189.228V44.3182L198.793 35.4622L209.46 45.3162L220.102 35.4622L230.769 45.3162L241.414 35.4622ZM1.41642 52.8122H125.191V58.4882H1.41642V52.8122ZM690.504 0.916153H689.09H626.466V1.01715H563.531V9.23015H626.466V13.6402H563.531V21.8552H626.466V26.5082H563.531V27.1892C562.478 23.6161 558.279 21.2492 554.453 21.2492H545.381L557.441 12.8362V11.3122L557.043 10.9492C553.764 7.93715 548.553 7.57015 544.936 10.0852C543.467 11.0482 540.289 13.4072 538.22 14.9582V14.7792C538.22 12.0592 536.557 3.97915 533.934 1.39615L533.548 1.01715H532.217L531.826 1.43415C529.329 4.09715 527.577 11.6832 527.577 14.7792V14.9962C525.418 13.4062 522.205 11.0452 520.89 10.1042C517.249 7.57515 512.031 7.93715 508.754 10.9482L508.356 11.3132V12.8362L520.417 21.2492H511.343C507.662 21.2492 503.498 23.6161 502.328 27.1832V0.941151H438.246V0.943153H402.332V0.939152H338.295V0.943153H313.088H313.003V59.7712H313.088V59.7762H439.9V59.7562H502.328V29.7322L502.949 30.3442H519.253C517.412 31.9962 514.533 34.5742 513.574 35.4022C511.562 37.3822 510.407 39.9042 510.407 42.3242C510.407 43.8722 510.956 45.7442 511.877 47.3312L512.25 47.9732H513.743L527.39 35.3542V55.8032L532.744 59.5432L538.406 55.1702V35.3542L552.054 47.9732H553.547L553.921 47.3302C554.84 45.7442 555.388 43.8732 555.388 42.3242C555.388 39.6672 554.255 37.2012 552.223 35.4022C551.32 34.5132 548.683 32.1732 546.602 30.3442H562.847L563.531 29.6702V34.7232H626.466V39.1332H563.531V47.3482H626.466V51.5672H563.531V59.7912H627.57V59.6842H689.09H689.383H690.504H751.863H753.266H814.273V59.7242H878.31V59.7082H885.879V0.933151H876.906V0.951153H814.273H778.195V0.917152H753.266L690.504 0.916153ZM667.001 27.7532L660.106 21.2612L674.07 21.2412L667.514 15.1072L680.938 15.0922L673.987 8.64315L687.953 8.63515L680.959 2.21715H689.088V58.3842H680.812L687.961 51.8542L674.024 51.8632L680.979 45.4642L667.075 45.4332L673.784 39.2452L659.969 39.2642L666.868 32.7752H649.762L656.659 39.2692L642.695 39.2892L649.25 45.4232L636.08 45.4402L643.027 51.8872L629.027 51.8952L636.097 58.3842H627.883V2.21715H636.09L629.019 8.67615L642.99 8.66715L636.035 15.0662L649.69 15.0972L642.983 21.2872L656.793 21.2662L649.895 27.7532H667.001ZM638.099 2.21815H678.957L684.535 7.33615L670.597 7.34415L677.549 13.7952L664.146 13.8112L670.705 19.9482L658.728 19.9642L658.453 19.7062L658.177 19.9652L646.393 19.9822L653.089 13.8042L639.44 13.7732L646.405 7.36515L632.454 7.37415L638.099 2.21815ZM878.322 2.23415H884.462V58.4072H878.322V2.23415ZM439.9 2.24115H500.911V58.4542H439.9V2.24115ZM377.291 25.1602H389.817V13.6932H402.332V2.24515H438.246V46.9882H427.369V35.4892H414.839V23.9882H400.908V35.4892H388.378V46.9882H377.291V25.1602ZM377.291 2.24515H400.915V12.3922H388.402V23.8592H377.291V2.24515ZM339.712 2.24515H375.875V23.8592H375.87V35.3232H364.771V23.8592H352.243V12.3922H339.712V2.24515ZM314.504 2.24515H338.295V13.6932H350.825V25.1602H363.356V36.6252H375.875V46.9882H375.862V58.4702H314.504V2.24515ZM815.733 2.25115H876.894V58.4242H815.733V2.25115ZM753.266 36.7272V25.2802H765.737V13.8342H778.195V2.25215H814.273V46.9512H803.136V35.5042H790.665V24.0592H776.792V35.5042H764.32V46.9512H753.266V36.7272ZM753.266 2.25215H776.778V12.5332H764.321V23.9802H753.266V2.25215ZM715.866 2.25215H751.85V23.9802V35.4262H740.809V23.9802H728.338V12.5332H715.866V2.25215ZM690.798 2.25215H714.45V13.8342H726.922V25.2802H739.392V36.7272H751.85V58.3842H690.798V2.25215ZM564.948 2.31815H626.154V7.93015H564.948V2.31815ZM528.993 14.7792C528.993 12.0142 530.666 4.71915 532.867 2.31815H532.932C535.17 4.58215 536.804 12.2112 536.804 14.7792V17.7072L537.962 16.8342C539.722 15.5052 544.01 12.2912 545.776 11.1322C548.839 9.00015 553.241 9.31115 556.026 11.8532V12.1912L541.177 22.5502H554.453C558.194 22.5502 562.361 25.1602 562.37 28.9072L562.232 29.0432H543.072L544.349 30.1642C546.44 31.9952 550.108 35.2272 551.214 36.3142C552.993 37.8892 553.973 40.0232 553.973 42.3242C553.973 43.6562 553.496 45.2772 552.698 46.6722L536.991 32.1992V54.5642L532.698 57.8792L528.806 55.1582V32.1992L513.154 46.6722H513.098C512.299 45.2762 511.823 43.6552 511.823 42.3242C511.823 40.2302 512.839 38.0312 514.576 36.3202C515.782 35.2812 520.169 31.3412 521.486 30.1582L522.724 29.0432H503.565L503.426 28.9082C503.624 25.1602 507.755 22.5502 511.343 22.5502H524.62L509.772 12.1912V11.8522C512.553 9.31015 516.959 9.00215 520.027 11.1352C521.596 12.2582 525.906 15.4322 527.842 16.8572L528.993 17.7062V14.7792ZM564.948 14.9412H626.154V20.5541H564.948V14.9412ZM658.451 21.5672L663.642 26.4532H653.256L658.451 21.5672ZM377.291 48.2902H389.794V36.7892H402.324V25.2882H413.423V36.7892H425.952V48.2902H438.246V58.4752H377.291V48.2902ZM753.28 48.2532H765.737V36.8052H778.209V25.3592H789.249V36.8052H801.719V48.2532H814.273V58.3842H753.28V48.2532ZM564.948 27.8092H626.154V33.4222H564.948V27.8092ZM653.121 34.0772H663.508L658.312 38.9622L653.121 34.0772ZM564.948 40.4342H626.154V46.0472H564.948V40.4342ZM658.585 40.5642L670.372 40.5482L663.676 46.7262L677.574 46.7562L670.609 53.1662L684.528 53.1572L678.805 58.3832H638.1L632.445 53.1942L646.417 53.1862L639.466 46.7342L652.619 46.7182L646.062 40.5812L658.036 40.5652L658.311 40.8232L658.585 40.5642ZM564.948 52.8692H626.154V58.4892H564.948V52.8692ZM1026.28 0.919151L1035.14 8.99715L1023.47 19.7492L1035.13 30.3692L1023.47 40.9822L1035.14 51.7402L1026.41 59.6942H1036.06L1044.78 51.7622L1033.1 41.0122L1044.8 30.3692L1033.1 19.7272L1044.78 8.97015L1035.93 0.919151H1026.28ZM1037.15 51.7472L1025.47 40.9882L1037.15 30.3692L1025.47 19.7422L1037.15 8.99415L1029.71 2.22015H1035.35L1042.77 8.97615L1031.09 19.7332L1042.79 30.3692L1031.09 41.0062L1042.77 51.7562L1035.48 58.3942H1029.85L1037.15 51.7472ZM918.312 59.7082H927.275V0.933151H918.312V59.7082ZM919.728 2.23415H925.859V58.4072H919.728V2.23415ZM904.267 59.7082H913.23V0.933151H904.267V59.7082ZM905.684 2.23415H911.815V58.4072H905.684V2.23415ZM890.488 59.7082H899.451V0.933151H890.488V59.7082ZM891.904 2.23415H898.035V58.4072H891.904V2.23415ZM1129.57 9.17515H1256.17V0.961151H1129.57V9.17515ZM1130.98 2.26115H1254.76V7.87415H1130.98V2.26115ZM0 9.17515H126.606V0.961151H0V9.17515ZM1.41642 2.26115H125.191V7.87415H1.41642V2.26115ZM1406.55 3.01915L1406.25 3.32215C1404.98 4.58115 1404.13 7.77615 1403.97 9.50515C1402.9 8.77115 1401.58 7.87215 1400.99 7.47815C1398.98 6.17215 1396.09 6.36015 1394.28 7.91115L1393.95 8.18915V9.26215L1399.43 12.8242H1395.85C1393.45 12.8242 1390.79 14.4342 1390.66 16.8292L1390.63 17.2432L1391.35 17.9032H1399.03C1398.12 18.6582 1397.16 19.4571 1396.77 19.7742C1395.66 20.7962 1395.02 22.1082 1395.02 23.3722C1395.02 24.1822 1395.32 25.1542 1395.83 25.9732L1396.13 26.4462H1397.22L1403.84 20.7332V36.3212L1406.97 38.3622L1410.25 36.0052V20.7332L1416.87 26.4462H1417.96L1418.26 25.9732C1418.77 25.1532 1419.07 24.1822 1419.07 23.3722C1419.07 21.9832 1418.44 20.6972 1417.32 19.7752C1416.95 19.4372 1416.06 18.6892 1415.1 17.9032H1422.74L1423.44 17.2632V16.8762C1423.44 14.4882 1420.7 12.8242 1418.25 12.8242H1414.66L1420.14 9.26215V8.18915L1419.81 7.91615C1418 6.35915 1415.12 6.17015 1413.12 7.46415C1412.46 7.86615 1411.16 8.76415 1410.12 9.48815C1409.95 7.89815 1409.17 4.53415 1407.82 3.29315L1407.52 3.01915H1406.55ZM1405.36 10.0232C1405.36 8.80515 1406.1 5.76315 1407.05 4.47915C1408.02 5.74215 1408.73 8.93815 1408.73 10.0232V12.0942L1409.87 11.2922C1410.79 10.6502 1413.01 9.09615 1413.92 8.53715C1415.31 7.63815 1417.26 7.71016 1418.6 8.67115L1410.22 14.1262H1418.25C1419.92 14.1262 1421.78 15.1672 1422 16.6022H1411.39L1412.78 17.7372C1414.65 19.2712 1415.91 20.3202 1416.34 20.7172C1417.19 21.4152 1417.66 22.3582 1417.66 23.3722C1417.66 23.8492 1417.5 24.4342 1417.23 24.9702L1408.83 17.7282V35.3732L1406.93 36.7412L1405.26 35.6502V17.7282L1396.86 24.9702C1396.6 24.4342 1396.44 23.8482 1396.44 23.3722C1396.44 22.4512 1396.92 21.4742 1397.74 20.7222C1398.32 20.2562 1400.32 18.5812 1401.33 17.7332L1402.68 16.6022H1392.11C1392.4 15.1662 1394.24 14.1262 1395.85 14.1262H1403.87L1395.49 8.67115C1396.83 7.71016 1398.79 7.64015 1400.17 8.53515C1400.98 9.07815 1403.22 10.6152 1404.22 11.3062L1405.36 12.0852V10.0232ZM276.984 3.01915L276.681 3.32215C275.415 4.58115 274.559 7.77615 274.401 9.50515C273.33 8.77115 272.015 7.87115 271.426 7.47815C269.412 6.17215 266.525 6.36015 264.716 7.91115L264.387 8.18915V9.26215L269.863 12.8242H266.28C263.88 12.8242 261.222 14.4342 261.092 16.8262L261.069 17.2422L261.785 17.9032H269.465C268.559 18.6582 267.598 19.4571 267.207 19.7742C266.092 20.7962 265.454 22.1082 265.454 23.3722C265.454 24.1822 265.758 25.1542 266.267 25.9732L266.561 26.4462H267.655L274.278 20.7332V36.3212L277.409 38.3622L280.683 36.0052V20.7332L287.305 26.4462H288.399L288.694 25.9732C289.202 25.1532 289.506 24.1822 289.506 23.3722C289.506 21.9832 288.873 20.6972 287.753 19.7752C287.388 19.4372 286.492 18.6892 285.538 17.9032H293.176L293.87 17.2632V16.8762C293.87 14.4882 291.135 12.8242 288.68 12.8242H285.096L290.573 9.26215V8.18715L290.248 7.91615C288.435 6.35915 285.551 6.17015 283.556 7.46415C282.899 7.86615 281.591 8.76415 280.551 9.48815C280.384 7.89815 279.601 4.53415 278.251 3.29315L277.951 3.01915H276.984ZM275.791 10.0232C275.791 8.80515 276.538 5.76315 277.487 4.47915C278.457 5.74215 279.169 8.93815 279.169 10.0232V12.0942L280.308 11.2922C281.221 10.6502 283.441 9.09615 284.358 8.53715C285.742 7.64015 287.692 7.71016 289.033 8.67115L280.65 14.1262H288.68C290.356 14.1262 292.219 15.1672 292.432 16.6022H281.823L283.213 17.7372C285.089 19.2712 286.345 20.3202 286.779 20.7172C287.624 21.4152 288.09 22.3582 288.09 23.3722C288.09 23.8492 287.93 24.4342 287.664 24.9702L279.266 17.7282V35.3732L277.367 36.7412L275.694 35.6502V17.7282L267.298 24.9702C267.029 24.4342 266.87 23.8492 266.87 23.3722C266.87 22.4512 267.357 21.4742 268.175 20.7222C268.754 20.2562 270.757 18.5812 271.769 17.7332L273.12 16.6022H262.544C262.838 15.1662 264.677 14.1262 266.28 14.1262H274.309L265.927 8.67115C267.265 7.70915 269.22 7.64015 270.602 8.53515C271.416 9.07815 273.653 10.6152 274.657 11.3062L275.791 12.0852V10.0232ZM453.848 11.8542L446.609 16.7352C444.701 18.0202 444.207 20.4622 445.482 22.2932L463.192 47.7092C464.03 48.9112 465.464 49.6012 466.958 49.6012C467.418 49.6012 467.886 49.5352 468.342 49.3982L493.483 41.8742C494.87 41.4592 495.801 40.2812 495.801 38.9402V36.1282C495.801 34.4272 494.295 33.0432 492.441 33.0432H489.299L459.618 11.9212C458.76 11.3122 457.721 11.0052 456.682 11.0052C455.685 11.0052 454.688 11.2872 453.848 11.8542ZM464.386 47.0082L446.676 21.5932C445.801 20.3372 446.139 18.6632 447.447 17.7812L454.687 12.9012C455.279 12.5012 455.981 12.3032 456.683 12.3032C457.415 12.3032 458.146 12.5191 458.75 12.9482L488.622 34.2062L488.814 34.3432H492.441C493.512 34.3432 494.385 35.1442 494.385 36.1282V38.9402C494.385 39.7152 493.846 40.3972 493.043 40.6372L467.903 48.1632C467.591 48.2572 467.271 48.3022 466.955 48.3022C465.936 48.3022 464.957 47.8302 464.386 47.0082ZM1129.57 21.7992H1256.17V13.5862H1129.57V21.7992ZM1130.98 14.8862H1254.76V20.4982H1130.98V14.8862ZM0 21.7992H126.606V13.5862H0V21.7992ZM1.41642 14.8862H125.191V20.4982H1.41642V14.8862ZM840.84 39.9172L820.66 29.2592L837.933 51.4652C838.509 52.2062 839.408 52.6462 840.4 52.6742C840.431 52.6752 840.465 52.6752 840.498 52.6752C841.451 52.6752 842.337 52.2882 842.943 51.6022L873.825 16.1522L840.84 39.9172ZM865.088 24.1002L841.84 50.7872C841.496 51.1762 840.993 51.3852 840.442 51.3752C839.897 51.3592 839.403 51.1172 839.086 50.7102L825.594 33.3652L840.962 41.4822L865.088 24.1002ZM1407.02 42.0202L1386.83 31.3602L1404.11 53.5682C1404.69 54.3082 1405.58 54.7502 1406.58 54.7772C1406.61 54.7782 1406.64 54.7782 1406.67 54.7782C1407.63 54.7782 1408.51 54.3912 1409.12 53.7062L1440 18.2552L1407.02 42.0202ZM1431.26 26.2032L1408.02 52.8902C1407.67 53.2782 1407.17 53.4922 1406.62 53.4772C1406.07 53.4622 1405.58 53.2202 1405.26 52.8122L1391.77 35.4672L1407.14 43.5842L1431.26 26.2032ZM277.45 42.0202L257.269 31.3602L274.544 53.5682C275.121 54.3082 276.018 54.7502 277.01 54.7772C277.043 54.7782 277.075 54.7782 277.109 54.7782C278.062 54.7782 278.947 54.3912 279.554 53.7062L310.435 18.2552L277.45 42.0202ZM301.698 26.2032L278.45 52.8902C278.106 53.2782 277.605 53.4922 277.053 53.4772C276.508 53.4622 276.014 53.2202 275.697 52.8122L262.205 35.4672L277.573 43.5842L301.698 26.2032ZM0 34.6682H126.606V26.4542H0V34.6682ZM1.41642 27.7542H125.191V33.3672H1.41642V27.7542ZM1129.57 47.2932H1256.17V39.0782H1129.57V47.2932ZM1130.98 40.3802H1254.76V45.9932H1130.98V40.3802ZM0 47.2932H126.606V39.0782H0V47.2932ZM1.41642 40.3802H125.191V45.9932H1.41642V40.3802Z" fill="white"/></mask><g mask="url(#mask0_374_22422)"><rect width="1440.39" height="61" fill="url(#paint0_linear_374_22422)"/></g><defs><linearGradient id="paint0_linear_374_22422" x1="0" y1="30.5" x2="1440.39" y2="30.5" gradientUnits="userSpaceOnUse"><stop stop-color="white" stop-opacity="0.31"/><stop offset="1" stop-color="#279362" stop-opacity="0.42"/></linearGradient></defs></svg>