<svg width="1920" height="87" viewBox="0 0 1920 87" fill="none" xmlns="http://www.w3.org/2000/svg">
<g clip-path="url(#clip0_47_5)">
<mask id="mask0_47_5" style="mask-type:luminance" maskUnits="userSpaceOnUse" x="0" y="0" width="1920" height="87">
<path d="M1.89 58.65H166.9V66.8H1.89V58.65ZM0 68.69H168.78V56.76H0V68.69ZM1507.74 58.65H1672.75V66.8H1507.74V58.65ZM1505.86 68.69H1674.64V56.76H1505.86V68.69ZM1.89 40.31H166.9V48.46H1.89V40.31ZM0 50.35H168.78V38.42H0V50.35ZM402.2 38.06L371.21 76.82C370.75 77.39 370.08 77.69 369.35 77.67C368.62 77.65 367.96 77.3 367.54 76.7L349.55 51.51L370.04 63.3L402.2 38.05V38.06ZM369.88 61.03L342.98 45.54L366.01 77.8C366.78 78.87 367.98 79.52 369.3 79.55C369.35 79.55 369.39 79.55 369.43 79.55C370.7 79.55 371.88 78.99 372.69 77.99L413.86 26.5L369.89 61.02L369.88 61.03ZM1908.06 38.06L1877.07 76.82C1876.61 77.39 1875.95 77.69 1875.21 77.67C1874.48 77.65 1873.82 77.3 1873.4 76.7L1855.41 51.51L1875.9 63.3L1908.06 38.05V38.06ZM1875.73 61.03L1848.83 45.54L1871.86 77.8C1872.63 78.87 1873.83 79.52 1875.15 79.55C1875.19 79.55 1875.24 79.55 1875.28 79.55C1876.55 79.55 1877.73 78.99 1878.54 77.99L1919.71 26.5L1875.74 61.02L1875.73 61.03ZM1153.28 35.01L1122.29 73.77C1121.83 74.34 1121.16 74.64 1120.43 74.62C1119.7 74.6 1119.04 74.25 1118.62 73.65L1100.63 48.46L1121.12 60.25L1153.28 35V35.01ZM1120.95 57.98L1094.05 42.5L1117.08 74.75C1117.85 75.82 1119.05 76.47 1120.37 76.51C1120.41 76.51 1120.46 76.51 1120.5 76.51C1121.77 76.51 1122.95 75.95 1123.76 74.95L1164.93 23.46L1120.96 57.98H1120.95ZM1.89 21.62H166.9V29.77H1.89V21.62ZM0 31.66H168.78V19.73H0V31.66ZM1507.74 21.62H1672.75V29.77H1507.74V21.62ZM1505.86 31.66H1674.64V19.73H1505.86V31.66ZM619.09 68.28L595.48 31.36C594.31 29.54 594.77 27.11 596.51 25.82L606.16 18.73C606.95 18.15 607.89 17.86 608.82 17.86C609.75 17.86 610.77 18.17 611.57 18.8L651.39 49.68L651.65 49.88H656.49C657.92 49.88 659.08 51.04 659.08 52.47V56.56C659.08 57.68 658.36 58.68 657.29 59.02L623.77 69.95C623.35 70.09 622.93 70.15 622.51 70.15C621.15 70.15 619.85 69.46 619.08 68.27M605.04 17.22L595.39 24.31C592.85 26.18 592.19 29.72 593.89 32.38L617.5 69.3C618.62 71.05 620.53 72.05 622.52 72.05C623.13 72.05 623.76 71.96 624.37 71.76L657.88 60.83C659.73 60.23 660.97 58.52 660.97 56.57V52.48C660.97 50.01 658.96 48 656.49 48H652.3L612.73 17.32C611.59 16.43 610.2 15.99 608.82 15.99C607.44 15.99 606.16 16.4 605.04 17.22ZM367.66 14.56C367.66 12.79 368.66 8.37 369.92 6.51C371.21 8.34 372.16 12.99 372.16 14.56V17.57L373.68 16.41C374.9 15.48 377.86 13.22 379.08 12.41C380.92 11.11 383.53 11.21 385.31 12.6L374.13 20.52H384.84C387.08 20.52 389.56 22.03 389.84 24.12H375.7L377.55 25.77C380.05 28 381.73 29.52 382.3 30.1C383.43 31.11 384.05 32.48 384.05 33.96C384.05 34.65 383.84 35.5 383.48 36.28L372.29 25.76V51.39L369.76 53.38L367.53 51.8V25.77L356.34 36.29C355.98 35.51 355.77 34.66 355.77 33.97C355.77 32.63 356.42 31.21 357.51 30.12C358.28 29.44 360.95 27.01 362.3 25.78L364.1 24.14H350C350.39 22.05 352.84 20.54 354.98 20.54H365.68L354.5 12.62C356.28 11.22 358.89 11.12 360.73 12.42C361.82 13.21 364.8 15.44 366.14 16.44L367.65 17.57V14.58L367.66 14.56ZM369.25 4.38L368.85 4.82C367.16 6.65 366.02 11.29 365.81 13.8C364.38 12.73 362.63 11.43 361.84 10.86C359.15 8.96 355.31 9.24 352.89 11.49L352.45 11.89V13.45L359.75 18.63H354.97C351.77 18.63 348.23 20.97 348.05 24.44L348.02 25.05L348.98 26.01H359.22C358.01 27.11 356.73 28.27 356.21 28.73C354.72 30.22 353.87 32.12 353.87 33.96C353.87 35.14 354.27 36.55 354.95 37.74L355.34 38.43H356.8L365.63 30.13V52.77L369.8 55.73L374.16 52.31V30.13L382.99 38.43H384.45L384.84 37.74C385.52 36.55 385.93 35.14 385.93 33.96C385.93 31.94 385.09 30.07 383.59 28.73C383.1 28.24 381.91 27.16 380.64 26.01H390.82L391.75 25.08V24.52C391.75 21.05 388.1 18.63 384.83 18.63H380.05L387.35 13.45V11.89L386.92 11.49C384.5 9.23 380.66 8.95 378 10.83C377.12 11.41 375.38 12.72 374 13.77C373.78 11.46 372.73 6.58 370.93 4.77L370.53 4.37H369.24L369.25 4.38ZM1873.52 14.56C1873.52 12.79 1874.52 8.37 1875.78 6.51C1877.07 8.34 1878.02 12.99 1878.02 14.56V17.57L1879.54 16.41C1880.76 15.48 1883.72 13.22 1884.94 12.41C1886.79 11.11 1889.39 11.21 1891.17 12.6L1879.99 20.52H1890.7C1892.94 20.52 1895.42 22.03 1895.7 24.12H1881.56L1883.41 25.77C1885.91 28 1887.59 29.52 1888.16 30.1C1889.29 31.11 1889.91 32.48 1889.91 33.96C1889.91 34.65 1889.7 35.5 1889.34 36.28L1878.15 25.76V51.39L1875.62 53.38L1873.39 51.8V25.77L1862.2 36.29C1861.84 35.51 1861.63 34.66 1861.63 33.97C1861.63 32.63 1862.28 31.21 1863.37 30.12C1864.14 29.44 1866.81 27.01 1868.16 25.78L1869.96 24.14H1855.86C1856.25 22.05 1858.7 20.54 1860.84 20.54H1871.54L1860.36 12.62C1862.14 11.23 1864.75 11.12 1866.59 12.42C1867.68 13.21 1870.66 15.44 1872 16.44L1873.51 17.57V14.58L1873.52 14.56ZM1875.11 4.38L1874.71 4.82C1873.02 6.65 1871.88 11.29 1871.67 13.8C1870.24 12.73 1868.49 11.43 1867.7 10.86C1865.01 8.96 1861.17 9.24 1858.75 11.49L1858.31 11.89V13.45L1865.61 18.63H1860.84C1857.64 18.63 1854.1 20.97 1853.92 24.45L1853.89 25.05L1854.84 26.01H1865.08C1863.87 27.11 1862.59 28.27 1862.07 28.73C1860.58 30.22 1859.73 32.12 1859.73 33.96C1859.73 35.14 1860.13 36.55 1860.81 37.74L1861.2 38.43H1862.66L1871.49 30.13V52.77L1875.66 55.73L1880.02 52.31V30.13L1888.85 38.43H1890.31L1890.7 37.74C1891.38 36.55 1891.78 35.14 1891.78 33.96C1891.78 31.94 1890.94 30.07 1889.44 28.73C1888.95 28.24 1887.76 27.16 1886.49 26.01H1896.67L1897.6 25.08V24.52C1897.6 21.05 1893.95 18.63 1890.68 18.63H1885.9L1893.2 13.45V11.89L1892.77 11.49C1890.35 9.23 1886.51 8.95 1883.85 10.83C1882.97 11.41 1881.23 12.72 1879.85 13.77C1879.63 11.46 1878.58 6.58 1876.78 4.77L1876.38 4.37H1875.09L1875.11 4.38ZM1.89 3.28H166.9V11.43H1.89V3.28ZM0 13.33H168.78V1.39H0V13.32V13.33ZM1507.74 3.28H1672.75V11.43H1507.74V3.28ZM1505.86 13.33H1674.64V1.39H1505.86V13.32V13.33ZM1189.02 3.24H1197.19V84.83H1189.02V3.24ZM1187.13 86.02H1199.08V1.36H1187.13V86.03V86.02ZM1207.39 3.24H1215.56V84.83H1207.39V3.24ZM1205.5 86.02H1217.45V1.36H1205.5V86.03V86.02ZM1226.12 3.24H1234.29V84.83H1226.12V3.24ZM1224.23 86.02H1236.18V1.36H1224.23V86.03V86.02ZM1382.66 75.16L1367.09 59.53L1382.65 44.11L1367.09 28.68L1382.66 13.07L1372.75 3.23H1380.26L1390.16 13.04L1374.59 28.66L1390.18 44.11L1374.59 59.56L1390.16 75.17L1380.44 84.81H1372.93L1382.67 75.16H1382.66ZM1368.16 1.33L1379.98 13.06L1364.41 28.68L1379.96 44.11L1364.41 59.53L1379.98 75.16L1369.02 86.03H1381.89L1392.82 75.19L1377.25 59.58L1392.85 44.12L1377.25 28.66L1392.82 13.04L1381.03 1.35H1368.16V1.33ZM753.15 76.79H834.74V84.95H753.15V76.79ZM877.98 58.92L893.69 58.9L884.76 67.87L903.29 67.91L894 77.22H912.56L904.93 84.8H850.66L843.12 77.26H861.75L852.48 67.88L870.01 67.86L861.27 58.95L877.23 58.93L877.6 59.31L877.97 58.93L877.98 58.92ZM753.15 58.73H834.74V66.88H753.15V58.73ZM870.7 49.5H884.55L877.62 56.6L870.7 49.5ZM753.15 40.39H834.74V48.54H753.15V40.39ZM1004.22 70.09H1020.83V53.46H1037.46V36.84H1052.18V53.46H1068.81V70.09H1085.55V84.81H1004.24V70.09H1004.22ZM502.98 70.14H519.65V53.44H536.36V36.73H551.16V53.44H567.86V70.14H584.25V84.93H502.99V70.14H502.98ZM877.8 31.33L884.72 38.43H870.87L877.8 31.33ZM753.15 21.7H834.74V29.85H753.15V21.7ZM705.22 21.47C705.22 17.46 707.45 6.86 710.39 3.37H710.48C713.46 6.66 715.64 17.74 715.64 21.47V25.72L717.18 24.45C719.53 22.52 725.24 17.85 727.6 16.17C731.68 13.07 737.55 13.52 741.26 17.22V17.71L721.47 32.76H739.17C744.16 32.76 749.71 36.55 749.72 42L749.54 42.19H724L725.71 43.82C728.5 46.48 733.39 51.17 734.86 52.75C737.23 55.04 738.54 58.14 738.54 61.48C738.54 63.41 737.9 65.77 736.84 67.8L715.9 46.78V79.27L710.18 84.08L704.99 80.13V46.78L684.12 67.8H684.05C682.98 65.77 682.35 63.42 682.35 61.48C682.35 58.44 683.7 55.24 686.02 52.76C687.63 51.25 693.48 45.53 695.23 43.81L696.88 42.19H671.34L671.16 42C671.42 36.56 676.93 32.76 681.71 32.76H699.41L679.62 17.71V17.22C683.33 13.53 689.2 13.08 693.29 16.18C695.38 17.81 701.13 22.42 703.71 24.49L705.24 25.72V21.47H705.22ZM753.15 3.37H834.74V11.52H753.15V3.37ZM920.92 3.27H952.45V20.09H969.08V36.72H985.7V53.35H1002.31V84.81H920.92V3.27ZM954.34 3.27H1002.31V51.46H987.59V34.83H970.97V18.2H954.34V3.27ZM1004.2 3.27H1035.55V18.2H1018.94V34.83H1004.2V3.27ZM1004.2 53.35V36.72H1020.83V20.09H1037.44V3.27H1085.54V68.2H1070.69V51.57H1054.06V34.94H1035.57V51.57H1018.94V68.2H1004.2V53.35ZM1087.48 3.27H1169.02V84.86H1087.48V3.27ZM419.28 3.26H451V19.89H467.71V36.55H484.41V53.2H501.1V68.25H501.08V84.93H419.28V3.26ZM452.88 3.26H501.09V34.65V51.3H486.29V34.65H469.59V18H452.89V3.26H452.88ZM502.98 3.26H534.47V18H517.79V34.65H502.98V3.26ZM502.98 36.54H519.68V19.88H536.37V3.26H584.25V68.25H569.75V51.55H553.05V34.84H534.48V51.55H517.78V68.25H503V36.54H502.98ZM586.44 3.26H667.78V84.91H586.44V3.26ZM1170.92 3.24H1179.1V84.83H1170.92V3.24ZM850.67 3.22H905.14L912.58 10.65H894L903.27 20.03L885.4 20.05L894.15 28.96L878.18 28.98L877.81 28.6L877.44 28.98L861.73 29L870.65 20.03L852.45 19.98L861.74 10.67H843.14L850.67 3.2V3.22ZM889.2 40.31L880.01 30.88L898.63 30.85L889.89 21.94L907.78 21.92L898.52 12.55H917.14L907.82 3.22H918.66V84.8H907.63L917.16 75.32H898.58L907.85 66.04L889.32 65.99L898.26 57L879.84 57.03L889.04 47.61H866.23L875.43 57.04L856.81 57.07L865.55 65.98L847.99 66L857.25 75.36H838.59L848.01 84.8H837.06V3.22H848L838.57 12.6H857.19L847.92 21.88L866.12 21.93L857.18 30.92L875.59 30.89L866.4 40.31H889.2ZM920.53 1.33H835.16V1.48H751.26V13.41H835.16V19.81H751.26V31.74H835.16V38.5H751.26V39.49C749.86 34.3 744.26 30.86 739.16 30.86H727.06L743.14 18.64V16.43L742.61 15.9C738.24 11.53 731.29 10.99 726.47 14.65C724.51 16.05 720.28 19.48 717.52 21.73V21.47C717.52 17.52 715.3 5.78 711.81 2.03L711.3 1.48H709.53L709.01 2.09C705.68 5.96 703.35 16.98 703.35 21.47V21.79C700.47 19.48 696.19 16.05 694.43 14.69C689.58 11.02 682.62 11.54 678.25 15.91L677.72 16.44V18.65L693.8 30.87H681.7C676.79 30.87 671.24 34.31 669.68 39.49V1.37H584.25H536.37H451H417.4H417.29V86.02H669.68V43.18L670.51 44.07H692.25C689.8 46.47 685.96 50.21 684.68 51.42C682 54.29 680.46 57.96 680.46 61.47C680.46 63.72 681.19 66.44 682.42 68.74L682.92 69.67H684.91L703.1 51.34V81.04L709.63 86.01H710.79L717.79 80.12V51.34L735.98 69.67H737.97L738.47 68.74C739.7 66.44 740.43 63.72 740.43 61.47C740.43 57.61 738.92 54.03 736.21 51.42C735 50.13 731.49 46.73 728.72 44.07H750.38L751.29 43.09V50.43H835.19V56.84H751.29V68.77H835.19V74.9H751.29V86.02H1181.02V1.36H1169.06V1.38H1085.56H1037.46V1.33H1004.23H920.56H920.53ZM1.89 76.71H166.9V84.96H1.89V76.71ZM321.84 51.51L334.02 63.77V84.96H252.27V64.37L265.02 51.51L279.24 65.82L293.43 51.51L307.65 65.82L321.84 51.51ZM316.36 52.33C317.03 51.65 317.7 50.96 318.38 50.28L321.86 46.77L334.01 59.04V62.22L321.83 49.96L308.75 63.17L307.64 64.27L293.42 49.95L280.34 63.16L279.24 64.26L265.02 49.94L252.27 62.82V59.68L265.04 46.76L279.26 61.11L293.45 46.76L307.67 61.11L316.36 52.31V52.33ZM321.83 42.29L334.01 54.54V57.5L321.86 45.23L317.61 49.51C316.93 50.19 316.25 50.88 315.58 51.56L307.67 59.57L293.45 45.22L279.26 59.57L277.64 57.94L265.03 45.22L252.26 58.14V54.96L265.01 42.28L279.15 56.48L293.42 42.28L307.56 56.48L321.83 42.28V42.29ZM205.17 49.93L215.23 39.87L219.55 44.19L209.49 54.25L205.17 49.94V49.93ZM176.7 44.18L186.76 34.12L196.79 44.14L196.75 44.18L196.79 44.22L186.76 54.24L176.7 44.18ZM199.46 44.22L199.5 44.18L199.46 44.14L209.49 34.12L213.9 38.53L203.84 48.59L199.47 44.22H199.46ZM222.33 44.18L232.39 34.12L242.45 44.18L232.39 54.24L222.33 44.18ZM326.87 22.56H330.15L322.85 29.94V36.47L326.87 32.28H330.15L323.4 39.09L334.02 49.81V52.99L321.84 40.76L307.57 54.96L296.22 43.55L293.43 40.76L279.16 54.96L265.02 40.76L252.27 53.45V50.34L263.47 39.11L256.71 32.28H259.86L264.33 36.78V30.26L256.76 22.63L259.87 22.56L264.33 27.06V22.57H266.03V26.75L270.05 22.56H273.33L266.03 29.94V36.47L270.05 32.28H273.32L266.57 39.09L279.18 51.81L291.87 39.1L285.11 32.27H288.26L292.73 36.77V30.25L285.16 22.62L288.27 22.55L292.73 27.05V22.56H294.43V26.74L298.45 22.55H301.73L294.43 29.93V36.46L298.45 32.27H301.72L294.98 39.08L307.59 51.8L320.28 39.09L313.52 32.26H316.67L321.14 36.76V30.24L313.57 22.61L316.69 22.54L321.15 27.04V22.55H322.84V26.73L326.86 22.54L326.87 22.56ZM216.57 38.53L250.38 4.72V84.98H170.12L203.84 51.26L209.49 56.91L220.94 45.46L232.39 56.91L245.12 44.18L232.39 31.45L220.94 42.9L216.57 38.53ZM252.27 3.21H334.02V48.26L324.93 39.09L332.76 31.22L326.41 31.19L323.94 33.76V30.39L332.77 21.49H326.4L323.94 24.05V21.49H320.06V24.43L317.14 21.48L311.02 21.62L320.06 30.73V34.16L317.13 31.21H310.91L318.75 39.12L307.6 50.29L296.51 39.11L304.34 31.24L297.99 31.21L295.52 33.78V30.41L304.36 21.51H297.99L295.52 24.07V21.51H291.65V24.45L288.72 21.5L282.6 21.64L291.64 30.75V34.18L288.71 31.23H282.49L290.33 39.14L279.18 50.31L268.09 39.13L275.92 31.26L269.57 31.23L267.1 33.8V30.43L275.94 21.53H269.57L267.1 24.09V21.53H263.22V24.47L260.3 21.52L254.18 21.66L263.22 30.77V34.2L260.29 31.25H254.07L261.91 39.16L252.24 48.85V3.21H252.27ZM251.11 1.32H250.38V2.05L215.24 37.19L209.5 31.45L198.14 42.81L186.78 31.45L174.04 44.18L186.78 56.91L198.14 45.55L202.51 49.92L168.79 83.64V74.81H0V86.01H335.9V1.32H252.27V0.16L251.11 1.32ZM1507.74 76.71H1672.75V84.96H1507.74V76.71ZM1827.69 51.51L1839.87 63.77V84.96H1758.12V64.37L1770.87 51.51L1785.09 65.82L1799.28 51.51L1813.5 65.82L1827.69 51.51ZM1822.22 52.33C1822.88 51.65 1823.55 50.98 1824.22 50.3L1827.72 46.77L1839.87 59.04V62.22L1827.69 49.96L1814.61 63.17L1813.51 64.27L1799.29 49.95L1786.21 63.16L1785.11 64.26L1770.89 49.94L1758.14 62.82V59.68L1770.91 46.76L1785.13 61.11L1799.32 46.76L1813.54 61.11L1822.23 52.31L1822.22 52.33ZM1827.69 42.29L1839.87 54.54V57.5L1827.72 45.23L1823.45 49.53C1822.77 50.21 1822.1 50.89 1821.44 51.56L1813.53 59.57L1799.31 45.22L1785.12 59.57L1783.49 57.93L1770.89 45.22L1758.12 58.14V54.96L1770.87 42.28L1785.01 56.48L1799.28 42.28L1813.42 56.48L1827.69 42.28V42.29ZM1711.03 49.93L1721.09 39.87L1725.41 44.19L1715.35 54.25L1711.03 49.94V49.93ZM1682.56 44.18L1692.62 34.12L1702.65 44.14L1702.61 44.18L1702.65 44.22L1692.62 54.24L1682.56 44.18ZM1705.32 44.22L1705.36 44.18L1705.32 44.14L1715.35 34.12L1719.76 38.53L1709.7 48.59L1705.33 44.22H1705.32ZM1728.19 44.18L1738.25 34.12L1748.31 44.18L1738.25 54.24L1728.19 44.18ZM1832.73 22.56H1836.01L1828.71 29.94V36.47L1832.73 32.28H1836L1829.25 39.09L1839.87 49.81V52.99L1827.69 40.76L1813.42 54.96L1802.07 43.55L1799.28 40.76L1785.01 54.96L1770.87 40.76L1758.12 53.45V50.34L1769.32 39.11L1762.56 32.28H1765.71L1770.18 36.78V30.26L1762.61 22.63L1765.72 22.56L1770.18 27.06V22.57H1771.88V26.75L1775.9 22.56H1779.18L1771.88 29.94V36.47L1775.9 32.28H1779.17L1772.43 39.09L1785.04 51.81L1797.73 39.1L1790.97 32.27H1794.12L1798.59 36.77V30.25L1791.02 22.62L1794.14 22.55L1798.6 27.05V22.56H1800.3V26.74L1804.32 22.55H1807.6L1800.3 29.93V36.46L1804.32 32.27H1807.59L1800.85 39.08L1813.46 51.8L1826.15 39.09L1819.39 32.26H1822.54L1827.01 36.76V30.24L1819.44 22.61L1822.56 22.54L1827.02 27.04V22.55H1828.71V26.73L1832.73 22.54V22.56ZM1722.42 38.53L1756.23 4.72V84.98H1675.97L1709.69 51.26L1715.34 56.91L1726.79 45.46L1738.24 56.91L1750.97 44.18L1738.24 31.45L1726.79 42.9L1722.41 38.53H1722.42ZM1758.12 3.21H1839.87V48.26L1830.78 39.09L1838.61 31.22L1832.26 31.19L1829.79 33.76V30.39L1838.62 21.49H1832.25L1829.79 24.05V21.49H1825.91V24.43L1822.99 21.48L1816.87 21.62L1825.91 30.73V34.16L1822.98 31.21H1816.76L1824.6 39.12L1813.45 50.29L1802.36 39.11L1810.19 31.24L1803.84 31.21L1801.37 33.78V30.41L1810.21 21.51H1803.84L1801.37 24.07V21.51H1797.49V24.45L1794.57 21.5L1788.45 21.64L1797.49 30.75V34.18L1794.56 31.23H1788.34L1796.18 39.14L1785.03 50.31L1773.94 39.13L1781.77 31.26L1775.42 31.23L1772.95 33.8V30.43L1781.79 21.53H1775.42L1772.95 24.09V21.53H1769.07V24.47L1766.15 21.52L1760.03 21.66L1769.07 30.77V34.2L1766.14 31.25H1759.92L1767.76 39.16L1758.09 48.85V3.21H1758.12ZM1756.96 1.32H1756.23V2.05L1721.09 37.19L1715.35 31.45L1703.99 42.81L1692.63 31.45L1679.9 44.18L1692.63 56.91L1703.99 45.55L1708.36 49.92L1674.64 83.64V74.81H1505.86V86.01H1841.76V1.32H1758.13V0.16L1756.97 1.32H1756.96ZM1406.13 59.57L1419.43 46.38V72.91L1406.13 59.57ZM1421.31 75.56L1421.69 75.18L1421.31 74.8V46.34L1440.36 65.32V65.89H1440.93L1459.93 84.82H1421.31V75.57V75.56ZM1507.74 40.31H1672.75V48.46H1507.74V40.31ZM1442.24 25.37L1461.22 44.35V45.02H1461.89L1480.87 64H1442.25V25.37H1442.24ZM1463.19 4.57L1501.69 43.12H1463.11L1463.19 4.57ZM1411.52 75.16L1395.95 59.53L1411.5 44.11L1395.95 28.68L1411.52 13.06L1401.6 3.22H1409.12L1419.01 13.03L1403.44 28.65L1419.02 44.1L1403.44 59.55L1419.01 75.16L1409.29 84.8H1401.77L1411.52 75.15V75.16ZM1461.23 41.69L1440.35 20.81V62.66L1419.42 41.8V41.85L1406.12 28.66L1421.69 13.04L1409.9 1.35H1397.01L1408.84 13.08L1393.27 28.69L1408.81 44.12L1393.27 59.54L1408.84 75.17L1397.87 86.04H1410.76L1419.42 77.45V86.04H1463.82L1443.61 65.9H1485.43L1464.56 45.03H1505.86V50.37H1674.64V38.44H1505.86V44.64L1461.31 0.02L1461.23 41.69ZM1290.71 49.76L1300.77 39.7L1305.09 44.02L1295.03 54.08L1290.71 49.76ZM1262.24 44.02L1272.3 33.96L1282.33 43.98L1282.3 44.01L1282.33 44.05L1272.3 54.07L1262.24 44.01V44.02ZM1285 44.05L1285.03 44.01L1285 43.98L1295.03 33.96L1299.44 38.37L1289.38 48.43L1285 44.06V44.05ZM1307.88 44.02L1317.94 33.96L1328 44.02L1317.94 54.08L1307.88 44.02ZM1337.81 30.92L1351.11 44.11L1337.81 57.29V30.93V30.92ZM1302.11 38.37L1335.92 4.56V28.31L1335.55 28.68L1335.92 29.05V59.16L1335.55 59.52L1335.92 59.89V84.81H1255.66L1289.38 51.09L1295.03 56.74L1306.48 45.29L1317.93 56.74L1330.66 44.01L1317.93 31.28L1306.48 42.73L1302.1 38.36L1302.11 38.37ZM1244.48 3.24H1252.65V84.83H1244.48V3.24ZM1353.79 75.16L1338.22 59.53L1353.78 44.11L1338.22 28.68L1353.79 13.07L1343.88 3.23H1351.39L1361.28 13.04L1345.71 28.66L1361.3 44.11L1345.71 59.56L1361.28 75.17L1351.56 84.81H1344.05L1353.79 75.16ZM1300.78 37.03L1295.04 31.29L1283.68 42.65L1272.32 31.29L1259.59 44.02L1272.32 56.75L1283.68 45.39L1288.06 49.76L1254.56 83.26V1.36H1242.61V86.03H1337.82V61.8L1351.13 75.16L1340.17 86.03H1353.05L1363.98 75.19L1348.41 59.58L1364.01 44.12L1348.41 28.66L1363.98 13.04L1352.19 1.35H1339.32L1351.14 13.08L1337.83 26.43V0L1300.8 37.03H1300.78Z" fill="white"/>
</mask>
<g mask="url(#mask0_47_5)">
<path d="M1919.71 0H0V86.02H1919.71V0Z" fill="url(#paint0_linear_47_5)"/>
</g>
</g>
<defs>
<linearGradient id="paint0_linear_47_5" x1="4.1576" y1="43.9588" x2="1920.54" y2="43.9588" gradientUnits="userSpaceOnUse">
<stop stop-color="#03A8AC"/>
<stop offset="0.49" stop-color="#58629A"/>
<stop offset="1" stop-color="#774893"/>
</linearGradient>
<clipPath id="clip0_47_5">
<rect width="1919.71" height="86.02" fill="white"/>
</clipPath>
</defs>
</svg>
