<svg width="60" height="60" viewBox="0 0 60 60" fill="none" xmlns="http://www.w3.org/2000/svg">
<g clip-path="url(#clip0_29_2)">
<path d="M60 2.94C60 1.32 58.68 0 57.06 0H32.01C31.24 0 30.53 0.3 30.01 0.79C29.48 0.3 28.78 0 28.01 0H2.94C1.32 0 0 1.32 0 2.94V27.99C0 28.76 0.3 29.47 0.79 29.99C0.3 30.52 0 31.22 0 31.99V57.04C0 58.66 1.32 59.98 2.94 59.98H27.99C28.76 59.98 29.47 59.68 29.99 59.19C30.52 59.68 31.22 59.98 31.99 59.98H57.04C58.66 59.98 59.98 58.66 59.98 57.04V31.99C59.98 31.22 59.68 30.51 59.19 29.99C59.68 29.46 59.98 28.76 59.98 27.99V2.94H60ZM30.94 2.94C30.94 2.35 31.42 1.88 32 1.88H57.05C57.64 1.88 58.11 2.36 58.11 2.94V27.99C58.11 28.58 57.63 29.05 57.05 29.05H48C46.95 29.05 46.09 29.91 46.09 30.96V33.27C46.09 33.83 46.35 34.38 46.81 34.76C47.79 35.58 48.25 36.84 48.04 38.12C47.81 39.52 46.68 40.7 45.3 40.99C44.2 41.22 43.12 40.97 42.27 40.27C41.43 39.59 40.95 38.58 40.95 37.5C40.95 36.42 41.42 35.44 42.23 34.76C42.69 34.38 42.95 33.83 42.95 33.27V30.96C42.95 29.91 42.09 29.05 41.04 29.05H30.93V18.94C30.93 18.94 30.94 18.91 30.96 18.91H33.26C33.26 18.91 33.29 18.92 33.32 18.96C34.57 20.46 36.48 21.16 38.42 20.84C40.6 20.48 42.37 18.79 42.82 16.63C43.16 14.99 42.76 13.31 41.72 12.03C40.68 10.75 39.14 10.02 37.49 10.02C35.84 10.02 34.35 10.73 33.31 11.97C33.28 12.01 33.26 12.02 33.26 12.02H30.95C30.95 12.02 30.92 12.01 30.92 11.99V2.94H30.94ZM1.88 2.94C1.88 2.35 2.36 1.88 2.94 1.88H27.99C28.58 1.88 29.05 2.36 29.05 2.94V11.99C29.05 13.04 29.91 13.9 30.96 13.9H33.27C33.83 13.9 34.38 13.64 34.76 13.18C35.44 12.37 36.44 11.9 37.5 11.9C38.56 11.9 39.59 12.38 40.27 13.22C40.96 14.07 41.22 15.15 40.99 16.25C40.7 17.63 39.52 18.76 38.12 18.99C36.84 19.2 35.59 18.74 34.77 17.76C34.39 17.3 33.84 17.04 33.28 17.04H30.97C29.92 17.04 29.06 17.9 29.06 18.95V29.06H18.95C18.95 29.06 18.92 29.05 18.92 29.03V26.73C18.92 26.73 18.93 26.7 18.97 26.67C20.47 25.42 21.17 23.51 20.85 21.57C20.49 19.39 18.8 17.62 16.64 17.17C15 16.83 13.32 17.23 12.04 18.27C10.76 19.31 10.03 20.85 10.03 22.5C10.03 24.15 10.74 25.64 11.98 26.68C12.02 26.71 12.03 26.74 12.03 26.73V29.04C12.03 29.04 12.02 29.07 12 29.07H2.94C2.35 29.07 1.88 28.59 1.88 28.01V2.94ZM29.06 57.06C29.06 57.65 28.58 58.12 28 58.12H2.94C2.35 58.12 1.88 57.64 1.88 57.06V32.01C1.88 31.42 2.36 30.95 2.94 30.95H11.99C13.04 30.95 13.9 30.09 13.9 29.04V26.73C13.9 26.17 13.64 25.62 13.18 25.24C12.37 24.56 11.9 23.56 11.9 22.5C11.9 21.44 12.38 20.41 13.22 19.73C14.07 19.04 15.15 18.78 16.25 19.01C17.63 19.3 18.76 20.48 18.99 21.88C19.2 23.16 18.74 24.41 17.76 25.23C17.3 25.61 17.04 26.16 17.04 26.72V29.03C17.04 30.08 17.9 30.94 18.95 30.94H29.06V41.05C29.06 41.05 29.05 41.08 29.03 41.08H26.73C26.73 41.08 26.7 41.07 26.67 41.03C25.63 39.79 24.11 39.08 22.49 39.08C20.87 39.08 19.3 39.81 18.26 41.09C17.22 42.37 16.82 44.05 17.16 45.69C17.61 47.85 19.38 49.54 21.56 49.9C23.5 50.22 25.41 49.52 26.66 48.02C26.69 47.98 26.71 47.97 26.71 47.97H29.02C29.02 47.97 29.05 47.98 29.05 48V57.05L29.06 57.06ZM58.12 57.06C58.12 57.65 57.64 58.12 57.06 58.12H32.01C31.42 58.12 30.95 57.64 30.95 57.06V48.01C30.95 46.96 30.09 46.1 29.04 46.1H26.73C26.17 46.1 25.62 46.36 25.24 46.82C24.42 47.8 23.16 48.26 21.88 48.05C20.48 47.82 19.3 46.69 19.01 45.31C18.78 44.21 19.03 43.13 19.73 42.28C20.41 41.44 21.42 40.96 22.5 40.96C23.58 40.96 24.56 41.43 25.24 42.24C25.62 42.7 26.17 42.96 26.73 42.96H29.04C30.09 42.96 30.95 42.1 30.95 41.05V30.94H41.06C41.06 30.94 41.09 30.95 41.09 30.97V33.27C41.09 33.27 41.08 33.3 41.04 33.33C39.8 34.37 39.09 35.89 39.09 37.51C39.09 39.13 39.82 40.7 41.1 41.74C42.08 42.54 43.29 42.96 44.54 42.96C44.92 42.96 45.31 42.92 45.69 42.84C47.85 42.39 49.54 40.62 49.9 38.44C50.22 36.5 49.52 34.59 48.02 33.34C47.98 33.31 47.97 33.29 47.97 33.29V30.98C47.97 30.98 47.98 30.95 48 30.95H57.05C57.64 30.95 58.11 31.43 58.11 32.01V57.06H58.12Z" fill="url(#paint0_linear_29_2)"/>
</g>
<defs>
<linearGradient id="paint0_linear_29_2" x1="0" y1="30" x2="60" y2="30" gradientUnits="userSpaceOnUse">
<stop stop-color="#03A8AC"/>
<stop offset="0.07" stop-color="#0F9EA9"/>
<stop offset="1" stop-color="#0F9EA9"/>
</linearGradient>
<clipPath id="clip0_29_2">
<rect width="60" height="60" fill="white"/>
</clipPath>
</defs>
</svg>
