<svg width="62" height="62" fill="none" xmlns="http://www.w3.org/2000/svg"><path d="M16.0625 14.2842C18.4934 11.254 22.221 10.1901 25.5586 11.5771L29.1572 13.0723C29.1936 13.0874 29.2287 13.106 29.2637 13.123C30.1794 12.3728 31.224 11.7509 32.5088 11.3975C34.5986 10.8241 36.8799 10.9636 38.8896 11.085L39.1455 11.1006C41.336 11.235 43.4255 12.2067 45.0322 13.834C46.8147 15.632 48.3241 16.748 50.3262 16.748H56.8281C57.8976 16.7481 58.7656 17.6161 58.7656 18.6855C58.7656 19.755 57.8976 20.623 56.8281 20.623H50.3262C46.7923 20.623 44.3688 18.6701 42.2764 16.5596C41.3387 15.609 40.1425 15.0457 38.9053 14.9707L38.6465 14.9551C36.9365 14.8492 34.9992 14.7329 33.5293 15.1357C32.031 15.5491 30.9144 16.8047 29.6201 18.2617L25.833 22.5244C24.9548 23.5139 24.9547 25.1855 25.833 26.1748C26.4788 26.9033 27.4119 27.0163 28.1533 26.4609C28.4271 26.2569 28.7319 25.9964 29.0547 25.7227C30.0183 24.9037 31.114 23.9738 32.416 23.5527C35.3245 22.6127 37.0626 24.9706 37.8066 25.9756L43.8008 34.0693C45.8465 36.8357 46.8716 38.2235 48.0029 38.8203C49.0543 39.3757 50.4626 39.3965 53.8311 39.3965H56.8232C57.8926 39.3967 58.7607 40.2646 58.7607 41.334C58.7605 42.4032 57.8924 43.2713 56.8232 43.2715H53.8418C50.1709 43.2715 48.1477 43.2707 46.2051 42.2451C45.5597 41.9045 44.9886 41.4804 44.4238 40.9502L41.1729 44.0957C36.8535 48.2704 34.4816 50.5624 31.1904 50.9551C31.0588 50.9706 30.9141 50.9832 30.7695 50.9961H30.7256C30.5324 51.0141 30.3391 51.0185 30.1484 51.0186C27.0851 51.0181 24.3337 49.2437 19.5654 46.1699C17.2228 44.6616 16.0524 43.9077 14.9082 43.5615L14.7217 43.5039C13.5644 43.1837 12.1536 43.1836 9.35352 43.1836H5.16602C4.09658 43.1835 3.22852 42.3155 3.22852 41.2461C3.22875 40.1768 4.09672 39.3087 5.16602 39.3086H9.35352C12.5232 39.3086 14.1147 39.3092 15.7861 39.7793L16.0186 39.8486C17.6951 40.355 19.1006 41.2623 21.6504 42.9053C26.1712 45.8192 28.4342 47.2785 30.4492 47.1338C30.5396 47.126 30.6303 47.1187 30.7207 47.1084C32.7278 46.8681 34.647 45.0155 38.4648 41.3242L41.9062 37.9951C41.5328 37.5008 41.1314 36.9631 40.6953 36.374L34.6992 28.2773C34.0973 27.461 33.8307 27.2491 33.7119 27.2129C33.7079 27.2133 33.6771 27.2172 33.6172 27.2363C33.0437 27.4223 32.2601 28.0864 31.5703 28.6729C31.2191 28.9724 30.8524 29.282 30.4883 29.5557C28.1194 31.3355 24.9474 30.9976 22.9453 28.7451C20.7546 26.278 20.7546 22.4127 22.9453 19.9482L26.3584 16.1045L24.0732 15.1553C22.3424 14.4372 20.4308 15.0308 19.085 16.71C17.3955 18.8128 15.0215 20.0195 12.5674 20.0195H5.16602C4.09666 20.0195 3.22865 19.1514 3.22852 18.082C3.22852 17.0126 4.09658 16.1446 5.16602 16.1445H12.5674C13.859 16.1445 15.1015 15.4828 16.0625 14.2842Z" fill="#54C08A"/></svg>